<svg xmlns="http://www.w3.org/2000/svg" xmlns:xlink="http://www.w3.org/1999/xlink" width="60" zoomAndPan="magnify" viewBox="0 0 45 44.999999" height="60" preserveAspectRatio="xMidYMid meet" version="1.0"><defs><clipPath id="6a0d36de30"><path d="M 1.386719 1.386719 L 43.386719 1.386719 L 43.386719 43.386719 L 1.386719 43.386719 Z M 1.386719 1.386719 " clip-rule="nonzero"/></clipPath><clipPath id="bda31ea949"><path d="M 7.929688 8.445312 L 32 8.445312 L 32 33 L 7.929688 33 Z M 7.929688 8.445312 " clip-rule="nonzero"/></clipPath><clipPath id="1f65271cbd"><path d="M 21 20 L 37.179688 20 L 37.179688 36.195312 L 21 36.195312 Z M 21 20 " clip-rule="nonzero"/></clipPath></defs><g clip-path="url(#6a0d36de30)"><path fill="#0d4b6f" d="M 43.609375 22.5 C 43.609375 23.191406 43.578125 23.878906 43.507812 24.566406 C 43.441406 25.257812 43.339844 25.9375 43.203125 26.617188 C 43.070312 27.296875 42.902344 27.964844 42.699219 28.628906 C 42.5 29.289062 42.269531 29.9375 42.003906 30.578125 C 41.738281 31.214844 41.441406 31.839844 41.117188 32.449219 C 40.792969 33.058594 40.4375 33.652344 40.050781 34.226562 C 39.667969 34.800781 39.257812 35.355469 38.816406 35.890625 C 38.378906 36.425781 37.914062 36.9375 37.425781 37.425781 C 36.9375 37.914062 36.425781 38.378906 35.890625 38.816406 C 35.355469 39.257812 34.800781 39.667969 34.226562 40.050781 C 33.652344 40.4375 33.058594 40.792969 32.449219 41.117188 C 31.839844 41.441406 31.214844 41.738281 30.578125 42.003906 C 29.9375 42.269531 29.289062 42.5 28.628906 42.699219 C 27.964844 42.902344 27.296875 43.070312 26.617188 43.203125 C 25.9375 43.339844 25.257812 43.441406 24.566406 43.507812 C 23.878906 43.578125 23.191406 43.609375 22.5 43.609375 C 21.808594 43.609375 21.117188 43.578125 20.429688 43.507812 C 19.742188 43.441406 19.058594 43.339844 18.378906 43.203125 C 17.703125 43.070312 17.03125 42.902344 16.371094 42.699219 C 15.707031 42.5 15.058594 42.269531 14.417969 42.003906 C 13.78125 41.738281 13.15625 41.441406 12.546875 41.117188 C 11.9375 40.792969 11.34375 40.4375 10.769531 40.050781 C 10.195312 39.667969 9.640625 39.257812 9.105469 38.816406 C 8.570312 38.378906 8.058594 37.914062 7.570312 37.425781 C 7.082031 36.9375 6.617188 36.425781 6.179688 35.890625 C 5.742188 35.355469 5.328125 34.800781 4.945312 34.226562 C 4.5625 33.652344 4.207031 33.058594 3.878906 32.449219 C 3.554688 31.839844 3.257812 31.214844 2.996094 30.578125 C 2.730469 29.9375 2.496094 29.289062 2.296875 28.628906 C 2.097656 27.964844 1.929688 27.296875 1.792969 26.617188 C 1.660156 25.9375 1.558594 25.257812 1.488281 24.566406 C 1.421875 23.878906 1.386719 23.191406 1.386719 22.5 C 1.386719 21.808594 1.421875 21.117188 1.488281 20.429688 C 1.558594 19.742188 1.660156 19.058594 1.792969 18.378906 C 1.929688 17.703125 2.097656 17.03125 2.296875 16.371094 C 2.496094 15.707031 2.730469 15.058594 2.996094 14.417969 C 3.257812 13.78125 3.554688 13.15625 3.878906 12.546875 C 4.207031 11.9375 4.5625 11.34375 4.945312 10.769531 C 5.328125 10.195312 5.742188 9.640625 6.179688 9.105469 C 6.617188 8.570312 7.082031 8.058594 7.570312 7.570312 C 8.058594 7.082031 8.570312 6.617188 9.105469 6.179688 C 9.640625 5.742188 10.195312 5.328125 10.769531 4.945312 C 11.34375 4.5625 11.9375 4.207031 12.546875 3.878906 C 13.15625 3.554688 13.78125 3.257812 14.417969 2.996094 C 15.058594 2.730469 15.707031 2.496094 16.371094 2.296875 C 17.03125 2.097656 17.703125 1.929688 18.378906 1.792969 C 19.058594 1.660156 19.742188 1.558594 20.429688 1.488281 C 21.117188 1.421875 21.808594 1.386719 22.5 1.386719 C 23.191406 1.386719 23.878906 1.421875 24.566406 1.488281 C 25.257812 1.558594 25.9375 1.660156 26.617188 1.792969 C 27.296875 1.929688 27.964844 2.097656 28.628906 2.296875 C 29.289062 2.496094 29.9375 2.730469 30.578125 2.996094 C 31.214844 3.257812 31.839844 3.554688 32.449219 3.878906 C 33.058594 4.207031 33.652344 4.5625 34.226562 4.945312 C 34.800781 5.328125 35.355469 5.742188 35.890625 6.179688 C 36.425781 6.617188 36.9375 7.082031 37.425781 7.570312 C 37.914062 8.058594 38.378906 8.570312 38.816406 9.105469 C 39.257812 9.640625 39.667969 10.195312 40.050781 10.769531 C 40.4375 11.34375 40.792969 11.9375 41.117188 12.546875 C 41.441406 13.15625 41.738281 13.78125 42.003906 14.417969 C 42.269531 15.058594 42.5 15.707031 42.699219 16.371094 C 42.902344 17.03125 43.070312 17.703125 43.203125 18.378906 C 43.339844 19.058594 43.441406 19.742188 43.507812 20.429688 C 43.578125 21.117188 43.609375 21.808594 43.609375 22.5 Z M 43.609375 22.5 " fill-opacity="1" fill-rule="nonzero"/></g><g clip-path="url(#bda31ea949)"><path fill="#ffffff" d="M 31.179688 17.371094 L 28.753906 17.371094 C 28.492188 17.371094 28.257812 17.210938 28.160156 16.96875 C 28.15625 16.964844 28.15625 16.964844 28.15625 16.960938 C 28.054688 16.71875 28.109375 16.441406 28.292969 16.257812 L 30.007812 14.539062 C 30.261719 14.289062 30.261719 13.882812 30.007812 13.628906 L 26.644531 10.261719 C 26.390625 10.011719 25.984375 10.011719 25.730469 10.261719 L 24.015625 11.980469 C 23.832031 12.164062 23.550781 12.21875 23.3125 12.117188 C 23.308594 12.117188 23.304688 12.113281 23.304688 12.113281 C 23.0625 12.015625 22.902344 11.777344 22.902344 11.515625 L 22.902344 9.089844 C 22.902344 8.734375 22.613281 8.445312 22.257812 8.445312 L 17.496094 8.445312 C 17.140625 8.445312 16.851562 8.734375 16.851562 9.089844 L 16.851562 11.515625 C 16.851562 11.777344 16.695312 12.015625 16.453125 12.113281 C 16.449219 12.113281 16.449219 12.117188 16.445312 12.117188 C 16.203125 12.21875 15.925781 12.164062 15.738281 11.980469 L 14.023438 10.261719 C 13.773438 10.011719 13.363281 10.011719 13.113281 10.261719 L 9.746094 13.628906 C 9.496094 13.882812 9.496094 14.289062 9.746094 14.539062 L 11.460938 16.257812 C 11.648438 16.441406 11.703125 16.71875 11.601562 16.960938 C 11.601562 16.964844 11.597656 16.964844 11.597656 16.96875 C 11.496094 17.210938 11.261719 17.371094 11 17.371094 L 8.574219 17.371094 C 8.21875 17.371094 7.929688 17.660156 7.929688 18.015625 L 7.929688 22.773438 C 7.929688 23.128906 8.21875 23.417969 8.574219 23.417969 L 11 23.417969 C 11.261719 23.417969 11.496094 23.578125 11.597656 23.820312 C 11.597656 23.820312 11.601562 23.824219 11.601562 23.828125 C 11.703125 24.070312 11.648438 24.347656 11.460938 24.53125 L 9.746094 26.25 C 9.496094 26.5 9.496094 26.90625 9.746094 27.160156 L 13.113281 30.527344 C 13.363281 30.777344 13.773438 30.777344 14.023438 30.527344 L 15.738281 28.808594 C 15.925781 28.625 16.203125 28.570312 16.445312 28.671875 C 16.449219 28.671875 16.449219 28.671875 16.453125 28.675781 C 16.695312 28.773438 16.851562 29.007812 16.851562 29.269531 L 16.851562 31.699219 C 16.851562 32.054688 17.140625 32.34375 17.496094 32.34375 L 20.917969 32.34375 C 21.128906 32.34375 21.320312 32.230469 21.429688 32.050781 C 21.488281 31.953125 21.5625 31.859375 21.644531 31.777344 C 21.707031 31.714844 21.664062 31.613281 21.578125 31.613281 C 20.785156 31.613281 20.140625 30.96875 20.140625 30.175781 L 20.140625 27.003906 C 20.140625 26.960938 20.105469 26.925781 20.058594 26.925781 C 20 26.925781 19.9375 26.925781 19.878906 26.925781 C 16.269531 26.925781 13.347656 24.003906 13.34375 20.398438 C 13.34375 16.792969 16.273438 13.859375 19.878906 13.859375 C 23.023438 13.859375 25.648438 16.082031 26.269531 19.039062 C 26.363281 19.472656 26.785156 19.746094 27.21875 19.65625 C 27.316406 19.632812 27.417969 19.625 27.519531 19.625 L 30.691406 19.625 C 30.765625 19.625 30.839844 19.628906 30.910156 19.640625 C 31.390625 19.714844 31.824219 19.339844 31.824219 18.851562 L 31.824219 18.015625 C 31.824219 17.660156 31.535156 17.371094 31.179688 17.371094 " fill-opacity="1" fill-rule="nonzero"/></g><g clip-path="url(#1f65271cbd)"><path fill="#ffffff" d="M 29.105469 32.941406 C 26.703125 32.941406 24.753906 30.992188 24.753906 28.589844 C 24.753906 26.1875 26.703125 24.238281 29.105469 24.238281 C 31.507812 24.238281 33.457031 26.1875 33.457031 28.589844 C 33.457031 30.992188 31.507812 32.941406 29.105469 32.941406 Z M 36.632812 26.574219 L 35.019531 26.574219 C 34.84375 26.574219 34.6875 26.46875 34.621094 26.308594 L 34.617188 26.304688 C 34.550781 26.140625 34.585938 25.957031 34.710938 25.832031 L 35.855469 24.691406 C 36.019531 24.523438 36.019531 24.25 35.855469 24.082031 L 33.613281 21.84375 C 33.445312 21.675781 33.171875 21.675781 33.003906 21.84375 L 31.863281 22.984375 C 31.738281 23.109375 31.554688 23.144531 31.390625 23.078125 L 31.386719 23.074219 C 31.226562 23.007812 31.121094 22.851562 31.121094 22.675781 L 31.121094 21.0625 C 31.121094 20.824219 30.929688 20.632812 30.691406 20.632812 L 27.519531 20.632812 C 27.285156 20.632812 27.089844 20.824219 27.089844 21.0625 L 27.089844 22.675781 C 27.089844 22.851562 26.984375 23.007812 26.824219 23.074219 L 26.820312 23.078125 C 26.660156 23.144531 26.472656 23.109375 26.351562 22.984375 L 25.207031 21.84375 C 25.039062 21.675781 24.765625 21.675781 24.601562 21.84375 L 22.359375 24.082031 C 22.191406 24.25 22.191406 24.523438 22.359375 24.691406 L 23.5 25.832031 C 23.625 25.957031 23.660156 26.140625 23.59375 26.304688 L 23.589844 26.308594 C 23.523438 26.46875 23.367188 26.574219 23.195312 26.574219 L 21.578125 26.574219 C 21.339844 26.574219 21.148438 26.765625 21.148438 27.003906 L 21.148438 30.175781 C 21.148438 30.410156 21.339844 30.605469 21.578125 30.605469 L 23.195312 30.605469 C 23.367188 30.605469 23.523438 30.710938 23.589844 30.871094 L 23.59375 30.875 C 23.660156 31.039062 23.625 31.222656 23.5 31.347656 L 22.359375 32.488281 C 22.191406 32.65625 22.191406 32.929688 22.359375 33.097656 L 24.601562 35.335938 C 24.765625 35.503906 25.039062 35.503906 25.207031 35.335938 L 26.351562 34.195312 C 26.472656 34.070312 26.660156 34.035156 26.820312 34.101562 L 26.824219 34.105469 C 26.984375 34.171875 27.089844 34.328125 27.089844 34.503906 L 27.089844 36.117188 C 27.089844 36.355469 27.285156 36.546875 27.519531 36.546875 L 30.691406 36.546875 C 30.929688 36.546875 31.121094 36.355469 31.121094 36.117188 L 31.121094 34.503906 C 31.121094 34.328125 31.226562 34.171875 31.386719 34.105469 L 31.390625 34.101562 C 31.554688 34.035156 31.738281 34.070312 31.863281 34.195312 L 33.003906 35.335938 C 33.171875 35.503906 33.445312 35.503906 33.613281 35.335938 L 35.855469 33.097656 C 36.019531 32.929688 36.019531 32.65625 35.855469 32.488281 L 34.710938 31.347656 C 34.585938 31.222656 34.550781 31.039062 34.617188 30.875 L 34.621094 30.871094 C 34.6875 30.710938 34.84375 30.605469 35.019531 30.605469 L 36.632812 30.605469 C 36.871094 30.605469 37.0625 30.410156 37.0625 30.175781 L 37.0625 27.003906 C 37.0625 26.765625 36.871094 26.574219 36.632812 26.574219 " fill-opacity="1" fill-rule="nonzero"/></g></svg>