<svg width="35" height="25" viewBox="0 0 35 25" fill="none" xmlns="http://www.w3.org/2000/svg">
<path d="M15.68 9.96C15.68 12.456 15.296 14.632 14.528 16.488C13.76 18.28 12.768 19.784 11.552 21C10.336 22.152 8.928 23.016 7.328 23.592C5.792 24.104 4.256 24.36 2.72 24.36V21C4.384 21 5.92 20.456 7.328 19.368C8.8 18.216 9.664 16.68 9.92 14.76C9.728 14.888 9.504 14.984 9.248 15.048C8.736 15.176 8.16 15.24 7.52 15.24C5.6 15.24 4 14.536 2.72 13.128C1.44 11.656 0.8 9.96 0.8 8.04C0.8 6.12 1.44 4.456 2.72 3.048C4.064 1.576 5.824 0.839996 8 0.839996C10.432 0.839996 12.32 1.768 13.664 3.62399C15.008 5.41599 15.68 7.528 15.68 9.96ZM34.88 9.96C34.88 12.456 34.496 14.632 33.728 16.488C32.96 18.28 31.968 19.784 30.752 21C29.536 22.152 28.128 23.016 26.528 23.592C24.992 24.104 23.456 24.36 21.92 24.36V21C23.584 21 25.12 20.456 26.528 19.368C28 18.216 28.864 16.68 29.12 14.76C28.928 14.888 28.704 14.984 28.448 15.048C27.936 15.176 27.36 15.24 26.72 15.24C24.8 15.24 23.2 14.536 21.92 13.128C20.64 11.656 20 9.96 20 8.04C20 6.12 20.64 4.456 21.92 3.048C23.264 1.576 25.024 0.839996 27.2 0.839996C29.632 0.839996 31.52 1.768 32.864 3.62399C34.208 5.41599 34.88 7.528 34.88 9.96Z" fill="#E26330"/>
</svg>
