<?xml version="1.0" encoding="UTF-8"?> <svg xmlns="http://www.w3.org/2000/svg" width="273" height="44" viewBox="0 0 273 44" fill="none"><path d="M73.4721 8.68378H83.8974L92.8333 36.8155H84.3111L82.8217 31.5615H73.5135L72.0241 36.8155H64.4948L73.4721 8.68378ZM75.0442 26.0593H81.2083L78.1469 15.2203L75.0442 26.0593Z" fill="#A6A5A4" fill-opacity="0.33"></path><path d="M95.2321 21.0535H92.6257V16.2546H95.2321V14.6825C95.2321 9.55259 98.3762 7.15312 103.258 7.15312C104.54 7.15312 105.492 7.3186 106.402 7.56682V12.7381C105.906 12.5726 105.285 12.4485 104.499 12.4485C102.927 12.4485 102.224 13.4 102.224 14.6825V16.2546H108.222V14.4343C108.222 9.30437 111.408 6.86353 116.289 6.86353C117.572 6.86353 118.482 7.02901 119.392 7.27723V12.4485C118.896 12.283 118.358 12.2003 117.531 12.2003C115.917 12.2003 115.255 13.1104 115.255 14.4343V16.2546H119.392V21.0535H115.255V36.8155H108.222V21.0535H102.224V36.8155H95.2321V21.0535Z" fill="#A6A5A4" fill-opacity="0.33"></path><path d="M121.046 10.6697C121.046 8.60118 122.701 7.02911 124.894 7.02911C127.086 7.02911 128.783 8.60118 128.783 10.6697C128.783 12.7382 127.086 14.3103 124.894 14.3103C122.701 14.2689 121.046 12.7382 121.046 10.6697ZM121.419 16.2547H128.452V36.8157H121.419V16.2547Z" fill="#A6A5A4" fill-opacity="0.33"></path><path d="M139.208 7.19434H132.216V36.8154H139.208V7.19434Z" fill="#A6A5A4" fill-opacity="0.33"></path><path d="M142.642 10.6697C142.642 8.60118 144.297 7.02911 146.49 7.02911C148.682 7.02911 150.379 8.60118 150.379 10.6697C150.379 12.7382 148.682 14.3103 146.49 14.3103C144.297 14.2689 142.642 12.7382 142.642 10.6697ZM143.015 16.2547H150.048V36.8157H143.015V16.2547Z" fill="#A6A5A4" fill-opacity="0.33"></path><path d="M152.572 31.1066C152.572 26.2662 156.667 24.3632 163.493 24.3632H165.479V23.9081C165.479 21.9224 165.024 20.6399 162.749 20.6399C160.804 20.6399 160.101 21.7983 159.936 23.0807H153.316C153.647 18.1163 157.536 15.6755 163.162 15.6755C168.83 15.6755 172.429 17.9922 172.429 23.4531V36.8156H165.562V34.4162C164.569 35.9055 162.749 37.2707 159.48 37.2707C155.84 37.3121 152.572 35.4918 152.572 31.1066ZM165.479 29.6172V28.3761H163.617C160.804 28.3761 159.522 28.9139 159.522 30.6101C159.522 31.8099 160.308 32.5545 161.963 32.5545C163.99 32.5545 165.479 31.3961 165.479 29.6172Z" fill="#A6A5A4" fill-opacity="0.33"></path><path d="M176.69 30.2376V21.0535H174.208V16.2545H176.69V11.952H183.723V16.2545H187.777V21.0535H183.723V29.5344C183.723 31.0237 184.468 31.6856 185.791 31.6856C186.577 31.6856 187.157 31.5615 187.819 31.3133V36.65C186.908 36.8983 185.585 37.2292 183.93 37.2292C179.255 37.312 176.69 35.078 176.69 30.2376Z" fill="#A6A5A4" fill-opacity="0.33"></path><path d="M189.018 26.8041V26.4731C189.018 19.8539 193.941 15.6755 200.147 15.6755C205.773 15.6755 210.614 18.9023 210.614 26.3076V28.1693H196.134C196.341 30.8997 197.913 32.4718 200.436 32.4718C202.753 32.4718 203.746 31.3961 204.036 30.0309H210.655C210.034 34.6644 206.435 37.3121 200.23 37.3121C193.735 37.3121 189.018 33.506 189.018 26.8041ZM203.746 24.1977C203.622 21.7155 202.422 20.3503 200.106 20.3503C197.996 20.3503 196.506 21.7155 196.175 24.1977H203.746Z" fill="#A6A5A4" fill-opacity="0.33"></path><path d="M210.532 8.68378H218.682L222.322 26.2247L226.087 8.68378H233.244L237.34 26.3902L241.146 8.68378H248.634L242.056 36.8155H233.617L229.273 18.9436L224.97 36.8155H217.11L210.532 8.68378Z" fill="#A6A5A4" fill-opacity="0.33"></path><path d="M250.991 8.68378H261.706C269.4 8.68378 273 12.1175 273 18.0748V18.2403C273 24.1562 269.028 27.3417 262.078 27.3417H259.017V36.8155H250.991V8.68378ZM261.333 21.8395C263.94 21.8395 265.305 20.6398 265.305 18.2817V18.1162C265.305 15.7167 263.898 14.7238 261.375 14.7238H259.017V21.7981H261.333V21.8395Z" fill="#A6A5A4" fill-opacity="0.33"></path><path d="M37.9153 25.7154C37.5004 25.7154 37.0856 25.7571 36.6708 25.7989L30.6973 14.9867C32.0247 13.4004 32.8129 11.3548 32.8129 9.14231C32.8129 4.09108 28.7476 0 23.7282 0C18.7087 0 14.6434 4.13283 14.6434 9.14231C14.6434 11.3131 15.3901 13.3169 16.6761 14.9032L10.4537 25.8406C9.99735 25.7571 9.54104 25.7154 9.08473 25.7154C4.06531 25.7154 0 29.8064 0 34.8577C0 39.9089 4.06531 44 9.08473 44C14.1041 44 18.1695 39.9089 18.1695 34.8577C18.1695 32.6869 17.4228 30.6831 16.1368 29.0968L22.3592 18.1594C22.8155 18.2429 23.2718 18.2846 23.7282 18.2846C24.143 18.2846 24.5578 18.2429 24.9726 18.2011L30.9462 29.0133C29.6187 30.5996 28.8305 32.6452 28.8305 34.8577C28.8305 39.9089 32.8959 44 37.9153 44C42.9347 44 47 39.9089 47 34.8577C47 29.8064 42.9347 25.7154 37.9153 25.7154ZM23.7282 6.01138C25.4289 6.01138 26.8394 7.43074 26.8394 9.14231C26.8394 10.8539 25.4289 12.2732 23.7282 12.2732C22.0274 12.2732 20.6169 10.8539 20.6169 9.14231C20.6169 7.43074 22.0274 6.01138 23.7282 6.01138ZM9.08473 37.9886C7.38394 37.9886 5.97352 36.5693 5.97352 34.8577C5.97352 33.1461 7.38394 31.7268 9.08473 31.7268C10.7855 31.7268 12.1959 33.1461 12.1959 34.8577C12.1959 36.5693 10.7855 37.9886 9.08473 37.9886ZM37.9153 37.9886C36.2145 37.9886 34.8041 36.5693 34.8041 34.8577C34.8041 33.1461 36.2145 31.7268 37.9153 31.7268C39.6161 31.7268 41.0265 33.1461 41.0265 34.8577C41.0265 36.5693 39.6576 37.9886 37.9153 37.9886Z" fill="#A6A5A4" fill-opacity="0.33"></path></svg> 