<?xml version="1.0" encoding="UTF-8"?> <svg xmlns="http://www.w3.org/2000/svg" width="291" height="36" viewBox="0 0 291 36" fill="none"><path d="M56.0668 7.68683C60.2358 7.68683 64.4048 9.57954 65.5947 14.1997H61.1886C60.1413 12.2788 58.4612 11.509 56.0683 11.509C52.1422 11.509 49.9268 14.3141 49.9268 17.858C49.9268 21.6293 52.3095 24.1788 56.0668 24.1788C58.9441 24.1788 61.0402 23.3596 61.9392 20.3849H56.2167V16.8114H66.0427C66.2389 18.6843 66.0257 20.5763 65.4172 22.3638C63.8273 26.3469 60.0569 28.0532 56.0668 28.0532C50.5232 28.0532 45.3477 24.4514 45.3477 17.875C45.3477 11.2985 50.5509 7.68683 56.0668 7.68683ZM88.4818 27.1549V27.7523H83.6874L79.3758 21.2041H75.6302V27.7523H71.1354V7.90717C74.1115 7.90717 77.0892 7.87892 80.0668 7.90717C84.8613 7.90717 87.4636 11.1968 87.4636 14.735C87.4902 15.9561 87.1509 17.1584 86.487 18.1958C85.8231 19.2332 84.8631 20.0609 83.7237 20.5784L88.4818 27.1549ZM80.0668 17.7168C80.9163 17.7309 81.7323 17.406 82.3186 16.8184C82.9048 16.2308 83.2059 15.437 83.1521 14.6277C83.175 14.2309 83.1114 13.8339 82.9652 13.4626C82.8191 13.0914 82.5937 12.7544 82.304 12.4737C82.0114 12.1901 81.6617 11.9682 81.2768 11.8219C80.8918 11.6756 80.4799 11.608 80.0668 11.6234H75.572V17.7168H80.0668ZM98.0577 24.491L96.4372 27.7806H91.7635V27.2114L101.411 7.77158H103.476L113.065 27.2114V27.7806H108.425L106.777 24.4924L98.0577 24.491ZM99.5225 20.9188H105.335L102.429 14.3706L99.5225 20.9188ZM122.04 19.1377L124.254 14.2788L127.072 7.96508H131.836V8.53431L122.903 27.7297H121.045L112.028 8.53431V7.96508H116.793L119.609 14.2788L121.944 19.166L122.04 19.1377ZM136.088 27.7862V7.87469H140.584V27.7862H136.088ZM144.866 11.6234V7.96508H162.517V11.6516H155.876V27.8088H151.53V11.622L144.866 11.6234ZM174.785 15.9582L176.87 12.0217L179.364 7.96508H184.128V8.59081L176.941 19.8439V27.7806H172.445V19.8439L165.227 8.56256V7.96508H170.05L172.653 12.1926L174.631 15.9865L174.785 15.9582Z" fill="#A6A5A4" fill-opacity="0.33"></path><path d="M34.2304 24.2763C34.1823 25.1767 33.9156 26.0533 33.4519 26.8344C32.9883 27.6156 32.3409 28.2791 31.5626 28.7708L19.943 35.2724C19.1057 35.6832 18.1817 35.9 17.2437 35.9059C16.3056 35.9117 15.3788 35.7065 14.5361 35.3063L2.8278 28.9572C2.04208 28.4762 1.3848 27.8214 0.909741 27.0464C0.434679 26.2713 0.155331 25.3981 0.094551 24.4981L0 11.6347C0.0483103 10.7345 0.315835 9.85829 0.780606 9.07797C1.24538 8.29765 1.89414 7.63551 2.67361 7.14592L14.2917 0.631616C15.1295 0.222116 16.0532 0.00600332 16.9911 0.000123295C17.9289 -0.00575673 18.8555 0.198755 19.6986 0.597716L31.4011 6.95382C33.0012 7.93831 34.0195 9.5909 34.1402 11.4073L34.2304 24.2763Z" fill="#A6A5A4" fill-opacity="0.33"></path><path d="M13.8339 14.9739H29.2094V10.8099H13.8703C12.8645 10.7781 11.863 10.9526 10.9314 11.322C9.9997 11.6915 9.15876 12.2476 8.46343 12.954C5.11778 16.3906 5.02759 25.032 5.02759 25.032H29.0901V17.2098H24.7655V20.8568H9.64168C9.73623 19.4966 10.385 17.0671 11.6127 15.81C11.8995 15.5241 12.2463 15.3015 12.6296 15.1572C13.0128 15.0129 13.4236 14.9504 13.8339 14.9739Z" fill="white"></path><path d="M197.338 10.19V17.2777H206.342V19.0927H197.338V27.6269H195.33V8.38059H206.8V10.1885L197.338 10.19ZM209.974 17.9953C209.933 13.9259 212.467 10.2337 216.392 8.64896C218.31 7.87327 220.421 7.66015 222.462 8.03592C224.504 8.41169 226.388 9.35989 227.881 10.7634C229.357 12.1509 230.369 13.9384 230.784 15.8927C231.198 17.847 230.997 19.8772 230.205 21.7185C228.585 25.4828 224.746 27.939 220.485 27.9404C217.713 27.9775 215.039 26.9453 213.049 25.0703C212.074 24.1515 211.3 23.0517 210.771 21.8362C210.243 20.6208 209.972 19.3145 209.974 17.9953ZM228.966 17.9953C228.974 14.7169 226.915 11.755 223.747 10.4951C222.198 9.87766 220.497 9.71358 218.853 10.023C217.21 10.3325 215.695 11.1019 214.497 12.2366C213.311 13.3585 212.501 14.8007 212.172 16.3757C211.842 17.9506 212.009 19.5854 212.649 21.0674C213.958 24.0971 217.052 26.0732 220.485 26.0732C221.597 26.0882 222.702 25.8899 223.735 25.4894C224.768 25.089 225.709 24.4944 226.505 23.7398C227.292 22.9927 227.916 22.0988 228.339 21.1116C228.762 20.1244 228.975 19.0644 228.966 17.9953ZM243.08 19.912H237.387V27.6099H235.354V8.38059H243.484C246.506 8.34104 249.091 10.4484 249.524 13.3059C249.959 16.1633 248.109 18.8851 245.199 19.6676L250.166 27.6325H247.844L243.079 19.912H243.08ZM237.387 18.097H243.484C245.591 17.8681 247.181 16.1661 247.181 14.142C247.181 12.1166 245.591 10.4131 243.484 10.1843H237.387V18.097ZM272.528 27.6099H270.497V11.2931L263.35 22.5575H263.059L255.948 11.2931V27.6099H253.911V8.38059H256.442L263.221 19.0927L269.985 8.38059H272.51L272.528 27.6099ZM276.595 23.2412L278.34 22.2793C279.068 24.5887 280.985 26.0732 284.176 26.0732C287.254 26.0732 288.971 24.6692 288.971 22.6084C288.971 20.3852 286.963 19.6676 283.974 18.7354C280.662 17.693 277.472 16.8681 277.472 13.3256C277.472 9.9456 280.34 8.05007 283.712 8.05007C286.624 7.9964 289.281 9.63768 290.422 12.1985L288.707 13.0855C287.934 11.1081 285.92 9.82413 283.712 9.89899C281.27 9.89899 279.501 11.1109 279.501 13.2225C279.501 15.3328 281.247 15.9698 284.003 16.8243C287.689 17.9614 291 18.9684 291 22.5123C291 25.8062 288.214 27.8938 284.146 27.8938C280.4 27.9404 277.644 26.1706 276.596 23.2412H276.595Z" fill="#A6A5A4" fill-opacity="0.33"></path></svg> 