<?xml version="1.0" encoding="UTF-8"?> <svg xmlns="http://www.w3.org/2000/svg" width="210" height="37" viewBox="0 0 210 37" fill="none"><mask id="mask0_154_80" style="mask-type:luminance" maskUnits="userSpaceOnUse" x="0" y="0" width="210" height="37"><path d="M0 -3.8147e-05H209.296V37H0V-3.8147e-05Z" fill="white"></path></mask><g mask="url(#mask0_154_80)"><path d="M25.987 0.247742C23.8833 0.247742 22.1921 1.93893 22.1921 4.04261V35.3503C22.1921 35.7216 22.5221 36.0516 22.8934 36.0516C26.6882 36.0516 29.7819 32.9579 29.7819 29.163V4.04261C29.7819 1.93893 28.0907 0.247742 25.987 0.247742Z" fill="#A6A5A4" fill-opacity="0.33"></path><path d="M46.2399 0.247749H40.8776V36.2991H56.5521V31.7617H46.2399V0.247749Z" fill="#A6A5A4" fill-opacity="0.33"></path><path d="M64.1832 15.716C64.6782 14.891 65.4619 14.5198 66.6169 14.5198C67.8543 14.5198 68.6793 14.891 69.1331 15.5923C69.628 16.3347 69.8343 17.7785 69.8343 19.8821V21.5733H63.3582V19.8821C63.3995 17.9434 63.647 16.541 64.1832 15.716ZM66.6169 10.5187C63.812 10.5187 61.667 11.3024 60.3058 12.8286C58.9446 14.3548 58.2434 16.706 58.2434 19.8409V27.0594C58.2434 30.6068 58.8621 33.1229 60.0996 34.6079C61.3371 36.0929 63.5232 36.8353 66.5756 36.8353C69.463 36.8353 71.608 36.2166 72.9692 34.9791C74.3304 33.7417 74.9904 31.8442 74.8666 29.3281V28.3381H69.7518V29.3281C69.793 30.5243 69.5455 31.4318 69.0506 31.968C68.5556 32.5042 67.7306 32.793 66.5756 32.793C65.2557 32.793 64.3895 32.463 64.0182 31.7617C63.6057 31.0193 63.3582 29.4518 63.3582 27.0594V25.4919H74.9491V19.7996C74.9491 16.6235 74.2891 14.2311 72.9279 12.7461C71.608 11.2612 69.463 10.5187 66.6169 10.5187Z" fill="#A6A5A4" fill-opacity="0.33"></path><path d="M88.7263 24.5432V26.5644C88.8088 28.6269 88.4788 30.2356 87.8601 31.2668C87.2414 32.298 86.2926 32.793 85.0139 32.793C84.1065 32.793 83.4465 32.5455 83.034 32.0505C82.6215 31.5143 82.4153 30.648 82.4153 29.3693C82.4153 27.8019 82.869 26.5644 83.8177 25.7395C84.7252 24.9145 86.1276 24.502 87.9426 24.502H88.7263V24.5432ZM85.8389 10.5187C83.2815 10.5187 81.2603 11.2199 79.8578 12.5811C78.4554 13.9423 77.7542 15.881 77.8367 18.3147V18.5622H82.9102V18.3147C82.9102 17.0772 83.1577 16.1285 83.694 15.4685C84.2302 14.8086 84.9314 14.5198 85.8801 14.5198C86.7876 14.5198 87.4888 14.8086 87.9426 15.386C88.4376 15.9635 88.6851 16.8297 88.6851 17.9435V20.6246H88.4376C84.3539 20.6246 81.4665 21.2846 79.8166 22.6046C78.1666 23.9245 77.3417 26.2757 77.3417 29.5756V29.6168V29.6581C77.3417 31.968 77.8779 33.7417 78.8679 34.9791C79.8991 36.2166 81.384 36.8766 83.364 36.8766C85.9214 36.8766 87.7363 36.0929 88.8088 34.5667V36.2991H93.9236V18.3147C93.9236 15.6335 93.2637 13.6536 91.9849 12.4161C90.6237 11.1374 88.6026 10.5187 85.8389 10.5187Z" fill="#A6A5A4" fill-opacity="0.33"></path><path d="M102.503 13.2411L102.338 13.4473V11.0136H97.2236V36.2991H102.338V22.3983C102.338 19.8409 102.751 18.0672 103.535 17.0772C104.318 16.1285 105.762 15.6335 107.783 15.6335H108.031V10.5187H107.783C105.721 10.5599 103.947 11.4674 102.503 13.2411Z" fill="#A6A5A4" fill-opacity="0.33"></path><path d="M120.446 10.5187C118.425 10.5187 116.651 11.2611 115.125 12.7048V11.0549H110.01V36.2991H115.125V19.6346C115.125 17.8609 115.414 16.541 115.991 15.716C116.569 14.891 117.435 14.5198 118.631 14.5198C119.621 14.5198 120.322 14.8085 120.817 15.4685C121.312 16.1285 121.601 17.0772 121.601 18.3147V36.2991H126.633V16.706C126.633 14.726 126.097 13.1998 125.025 12.1274C123.952 11.0549 122.385 10.5187 120.446 10.5187Z" fill="#A6A5A4" fill-opacity="0.33"></path><path d="M145.938 11.0961V24.9557C145.938 27.5544 145.525 29.328 144.742 30.318C143.958 31.308 142.555 31.7617 140.576 31.7617H135.914V4.7851H140.081C142.308 4.7851 143.834 5.23884 144.7 6.14631C145.525 7.05378 145.938 8.70372 145.938 11.0961ZM139.462 0.247749H130.552V36.2991H142.184C145.402 36.2991 147.753 35.3916 149.197 33.5767C150.64 31.803 151.342 28.8331 151.342 24.8732V11.0136C151.342 7.26002 150.393 4.49636 148.537 2.80516C146.639 1.11397 143.628 0.247749 139.462 0.247749Z" fill="#A6A5A4" fill-opacity="0.33"></path><path d="M166.273 24.5432V26.5644C166.356 28.6269 166.026 30.2356 165.407 31.2668C164.788 32.298 163.84 32.793 162.561 32.793C161.654 32.793 160.994 32.5455 160.581 32.0505C160.169 31.5143 159.962 30.648 159.962 29.3693C159.962 27.8019 160.417 26.5644 161.365 25.7395C162.273 24.9145 163.675 24.502 165.49 24.502H166.273V24.5432ZM163.386 10.5187C160.829 10.5187 158.807 11.2199 157.405 12.5811C156.003 13.9423 155.301 15.881 155.384 18.3147V18.5622H160.457V18.3147C160.457 17.0772 160.705 16.1285 161.241 15.4685C161.778 14.8086 162.479 14.5198 163.428 14.5198C164.335 14.5198 165.036 14.8086 165.49 15.386C165.985 15.9635 166.232 16.8297 166.232 17.9435V20.6246H165.985C161.901 20.6246 159.014 21.2846 157.364 22.6046C155.714 23.9245 154.889 26.2757 154.889 29.5756V29.6168V29.6581C154.889 31.968 155.425 33.7417 156.415 34.9791C157.447 36.2166 158.931 36.8766 160.911 36.8766C163.469 36.8766 165.284 36.0929 166.356 34.5667V36.2991H171.471V18.3147C171.471 15.6335 170.811 13.6536 169.532 12.4161C168.171 11.1374 166.15 10.5187 163.386 10.5187Z" fill="#A6A5A4" fill-opacity="0.33"></path><path d="M183.227 21.037C181.659 19.9233 180.669 19.0983 180.216 18.6033C179.803 18.1084 179.638 17.4896 179.638 16.7059C179.638 15.9634 179.844 15.386 180.216 15.056C180.587 14.6847 181.206 14.5197 181.989 14.5197C182.855 14.5197 183.474 14.7672 183.845 15.2622C184.216 15.7572 184.382 16.6234 184.34 17.7784V18.7683H189.372V17.3246C189.372 15.0972 188.837 13.406 187.682 12.2923C186.485 11.1373 184.588 10.5599 181.948 10.5599C179.597 10.5599 177.782 11.1373 176.503 12.2923C175.224 13.4473 174.565 15.0972 174.565 17.2009C174.565 18.6446 174.977 19.9646 175.76 20.9958C176.544 22.027 178.112 23.3882 180.422 24.9969C182.154 26.1931 183.309 27.1831 183.845 27.843C184.382 28.503 184.67 29.2455 184.67 30.0705C184.67 31.0192 184.423 31.7204 183.969 32.1329C183.515 32.5866 182.773 32.8341 181.783 32.8341C180.752 32.8341 180.009 32.5454 179.514 31.9679C179.019 31.3904 178.813 30.4417 178.896 29.2043V28.2143H173.863V29.6167C173.863 31.9267 174.482 33.7004 175.76 34.8966C177.081 36.1753 179.102 36.794 181.824 36.794C184.34 36.794 186.32 36.134 187.682 34.8553C189.043 33.5354 189.744 31.6792 189.744 29.2868C189.744 27.843 189.29 26.5231 188.383 25.4094C187.558 24.3369 185.825 22.852 183.227 21.037Z" fill="#A6A5A4" fill-opacity="0.33"></path><path d="M207.398 12.1686C206.326 11.0961 204.759 10.5187 202.778 10.5187C200.922 10.5187 199.148 11.3024 197.622 12.8698V0.247749H192.507V36.2991H197.622V19.6346C197.622 17.8609 197.911 16.541 198.489 15.716C199.066 14.891 199.891 14.5198 201.128 14.5198C202.078 14.5198 202.82 14.8085 203.273 15.4273C203.768 16.046 204.016 16.9947 204.016 18.2322V36.2991H209.048V16.7885C209.007 14.8085 208.471 13.2411 207.398 12.1686Z" fill="#A6A5A4" fill-opacity="0.33"></path><path d="M14.9736 9.36381C12.8699 9.36381 11.1787 11.055 11.1787 13.1587V35.1026C11.1787 35.4742 11.5087 35.8042 11.8799 35.8042C15.6748 35.8042 18.7685 32.7106 18.7685 28.9153V13.1587C18.7685 11.055 17.0773 9.36381 14.9736 9.36381Z" fill="#A6A5A4" fill-opacity="0.33"></path><path d="M3.96028 20.0885C1.8566 20.0885 0.165405 21.7797 0.165405 23.8834V35.5151C0.165405 35.8867 0.495394 36.2167 0.866632 36.2167C4.66151 36.2167 7.75516 33.1231 7.75516 29.3278V23.8834C7.75516 21.7797 6.06396 20.0885 3.96028 20.0885Z" fill="#A6A5A4" fill-opacity="0.33"></path></g></svg> 