<?xml version="1.0" encoding="UTF-8"?> <svg xmlns="http://www.w3.org/2000/svg" width="181" height="52" viewBox="0 0 181 52" fill="none"><path fill-rule="evenodd" clip-rule="evenodd" d="M10.0018 49.9851C10.0139 49.95 11.092 46.7986 12.3976 42.9819C13.7033 39.1652 14.7881 36.0262 14.8084 36.0063C14.8287 35.9864 14.8591 36.0151 14.8759 36.07C14.927 36.2362 15.4147 37.1678 15.5593 37.3757C15.762 37.6669 16.2749 38.1731 16.5604 38.3636C17.3994 38.9235 18.2841 39.1128 19.4048 38.9723C19.723 38.9324 19.9908 38.9071 20 38.916C20.0175 38.9332 10.3428 49.7027 10.1134 49.9214C10.0399 49.9914 9.9897 50.0201 10.0018 49.9851Z" fill="#A6A5A4" fill-opacity="0.33"></path><path fill-rule="evenodd" clip-rule="evenodd" d="M35.4506 36.9498C35.3577 36.9183 33.1681 35.6392 30.5849 34.1073C28.0017 32.5754 25.8781 31.3221 25.866 31.3221C25.8538 31.3221 25.6115 31.5625 25.3275 31.8564C24.7505 32.4534 24.2743 32.8062 23.5826 33.1492C22.772 33.5512 21.636 33.8608 20.7846 33.9117C20.4335 33.9327 20.3451 33.9232 20.1372 33.8421C19.609 33.6361 19.3186 33.2099 18.9674 32.1251C18.4428 30.5051 18.4124 28.9837 18.8782 27.6713C18.946 27.4804 18.9924 27.3007 18.9813 27.2721C18.9702 27.2435 18.6339 27.0273 18.234 26.7916C12.7149 23.5395 9.5542 21.6404 9.39201 21.4788C9.12953 21.2173 9.00052 20.9118 9 20.5507C8.99918 19.901 9.29274 19.3846 9.79489 19.1529L10.0456 19.0372L14.8107 18.8639C17.4315 18.7685 19.6043 18.6902 19.6391 18.6898C19.7743 18.6884 19.8176 18.5951 19.9986 17.9165C20.9902 14.1968 22.725 10.8084 25.1061 7.94058C27.5789 4.96233 31.0234 2.5237 34.8678 1.02963C35.703 0.705036 36.5499 0.41389 37.2238 0.21965C37.5025 0.139339 37.6925 0.0704902 37.646 0.0666522C37.5943 0.0623765 37.6188 0.0444431 37.7094 0.0203416C37.8909 -0.0279783 38.4494 0.0182358 38.3215 0.0710088L38.2371 0.105867L38.3215 0.10987C38.5648 0.121408 39.0112 0.448819 39.1907 0.747403C39.378 1.05909 39.8038 2.81306 40.0305 4.20713C40.2454 5.52849 40.3026 6.34336 40.3037 8.09898C40.3048 9.70392 40.2779 10.1811 40.1139 11.4755C39.7352 14.4653 38.7542 17.5485 37.3696 20.1012C36.3547 21.9724 35.1869 23.5754 33.4528 25.478C33.0422 25.9285 32.7002 26.3135 32.6927 26.3337C32.6853 26.3538 33.6719 28.2902 34.8853 30.6368C36.0987 32.9833 37.1278 35.0009 37.1721 35.1203C37.2829 35.4183 37.261 35.9075 37.124 36.1955C36.9981 36.4601 36.7115 36.7547 36.4541 36.8841C36.2125 37.0056 35.7122 37.0384 35.4506 36.9498ZM32.1365 16.6942C32.949 16.4715 33.7094 15.8381 34.0651 15.0876C34.3023 14.587 34.3893 14.2084 34.3893 13.6769C34.3893 11.452 32.2286 9.93446 30.2379 10.7612C29.6487 11.0058 29.0997 11.4647 28.7804 11.9793C27.8544 13.4718 28.3385 15.495 29.8353 16.3878C30.4661 16.764 31.4187 16.8908 32.1365 16.6942ZM172.645 35.4166C170.758 35.2777 169.119 34.7341 167.744 33.7912C167.03 33.3016 166.285 32.5408 165.836 31.8427C165.426 31.2061 165.357 31.0445 165.439 30.9156C165.475 30.8589 165.79 30.6839 166.228 30.4768L166.957 30.1322L167.039 30.2388C167.084 30.2974 167.19 30.4669 167.276 30.6155C168.162 32.1575 170.317 33.3703 172.624 33.626C173.171 33.6866 174.136 33.6563 174.842 33.5564C175.837 33.4155 176.732 33.1249 177.395 32.7273C177.829 32.4671 178.441 31.8459 178.651 31.4523C179.007 30.7846 179.154 29.8346 179.002 29.1746C178.757 28.1037 178.01 27.3689 176.582 26.7914C175.766 26.4616 175.136 26.3068 172.497 25.787C171.268 25.5449 170.459 25.3482 169.826 25.1378C167.613 24.4021 166.509 23.413 166.071 21.7724C166.01 21.5429 165.997 21.3282 165.999 20.6221C166.002 19.8245 166.012 19.7188 166.115 19.3209C166.684 17.1325 168.671 15.7195 171.801 15.2764C172.443 15.1855 174.238 15.1734 174.946 15.2552C176.839 15.4737 178.161 16.0713 179.273 17.2119C179.679 17.6289 180.19 18.2718 180.333 18.5456C180.432 18.7356 180.324 18.8423 179.63 19.2402C179.137 19.5228 178.973 19.5973 178.904 19.5709C178.855 19.5522 178.716 19.3904 178.594 19.2113C177.921 18.2173 176.872 17.524 175.605 17.2351C174.877 17.0692 174.377 17.0233 173.3 17.0237C172.456 17.024 172.198 17.0398 171.759 17.1175C170.115 17.4083 168.95 18.041 168.345 18.9718C167.773 19.8502 167.68 20.9686 168.108 21.8194C168.227 22.0555 168.67 22.5 168.992 22.7063C169.398 22.9662 169.829 23.162 170.451 23.3699C171.215 23.6249 171.454 23.6818 173.663 24.1353C176.301 24.6767 177.117 24.9098 178.172 25.4233C178.77 25.7138 179.256 26.0555 179.673 26.4768C180.243 27.0538 180.576 27.6475 180.781 28.452C180.926 29.0182 180.964 30.132 180.862 30.7972C180.487 33.2331 178.565 34.7926 175.326 35.2909C174.545 35.4111 173.338 35.4677 172.645 35.4166ZM107.077 35.1194C106.448 35.0393 106.031 34.9439 105.468 34.752C103.258 33.9977 101.743 32.2127 101.298 29.8375C100.789 27.1274 101.416 24.6374 103.022 22.9861C104.073 21.9065 105.422 21.27 107.073 21.0755C107.723 20.999 109.082 21.0438 109.695 21.1621C112.574 21.7169 114.298 23.7068 114.632 26.8602C114.68 27.3161 114.692 28.8108 114.65 29.0757L114.624 29.2385H109.56C106.15 29.2385 104.47 29.2532 104.415 29.2834C104.37 29.3081 104.333 29.3688 104.333 29.4181C104.333 29.5836 104.589 30.2946 104.741 30.5519C105.693 32.1644 108.095 32.7418 110.432 31.9204C110.9 31.7562 111.618 31.3512 111.765 31.1686C111.793 31.1336 111.838 31.105 111.864 31.105C111.891 31.105 112.347 31.5527 112.879 32.0997L113.846 33.0944L113.645 33.2826C112.847 34.0324 111.543 34.6842 110.284 34.9624C109.283 35.1838 108.054 35.244 107.077 35.1194ZM111.542 26.6501C111.672 26.6144 111.669 26.3939 111.533 25.9526C111.273 25.1116 110.692 24.4753 109.873 24.1351C108.792 23.6864 107.411 23.7117 106.302 24.2006C105.811 24.4169 105.229 24.9168 104.914 25.3918C104.745 25.6461 104.449 26.2631 104.405 26.4503C104.351 26.6859 104.218 26.6775 107.977 26.6769C109.886 26.6766 111.49 26.6645 111.542 26.6501ZM130.026 35.0455C129.967 34.9589 129.961 33.9606 129.961 25.2759C129.961 18.691 129.975 15.576 130.004 15.5188C130.045 15.44 130.101 15.4349 130.91 15.4349C131.552 15.4349 131.78 15.4486 131.805 15.4891C131.824 15.519 131.849 19.538 131.86 24.4203L131.882 33.2971L137.117 33.3193C139.996 33.3314 142.357 33.3461 142.363 33.3518C142.369 33.3575 142.373 33.7392 142.373 34.2C142.373 34.7937 142.359 35.0529 142.323 35.0899C142.284 35.1299 140.862 35.1419 136.182 35.1419H130.092L130.026 35.0455ZM144.812 35.0951C144.742 35.0531 144.738 34.5405 144.738 25.2949C144.738 17.7649 144.749 15.5272 144.788 15.487C144.825 15.4494 145.113 15.4349 145.821 15.4349H146.802L146.905 15.5759C146.961 15.6535 148.503 18.0806 150.332 20.9694C152.161 23.8581 153.687 26.2559 153.722 26.2976C153.757 26.3394 153.81 26.3736 153.838 26.3736C153.867 26.3736 155.425 23.9466 157.3 20.9802C159.175 18.0138 160.738 15.5526 160.773 15.5108C160.83 15.4424 160.937 15.4349 161.842 15.4349C162.793 15.4349 162.85 15.4394 162.891 15.5188C162.921 15.576 162.935 18.691 162.935 25.2759C162.935 33.9606 162.928 34.9589 162.869 35.0455C162.805 35.1395 162.783 35.142 161.985 35.142C161.187 35.142 161.164 35.1394 161.1 35.0455C161.041 34.959 161.035 34.1156 161.035 26.9091C161.035 21.1049 161.022 18.861 160.988 18.8397C160.963 18.8234 160.907 18.8467 160.865 18.8914C160.822 18.936 159.336 21.258 157.562 24.0513C155.788 26.8446 154.293 29.176 154.241 29.2323C154.155 29.3253 154.118 29.333 153.834 29.3183C153.631 29.3077 153.499 29.2794 153.459 29.2377C153.426 29.2023 151.923 26.8587 150.119 24.0296C148.316 21.2005 146.811 18.8617 146.774 18.8323C146.59 18.6835 146.595 18.4202 146.595 26.9562C146.595 33.184 146.584 35.0497 146.545 35.0899C146.48 35.1562 144.921 35.1609 144.812 35.0951ZM96.2688 34.9834C94.2822 34.7888 93.0345 33.7365 92.5745 31.8679C92.3982 31.1516 92.3848 30.8433 92.3847 27.5C92.3847 25.0749 92.3724 24.2949 92.3339 24.2553C92.2969 24.2173 91.9661 24.2032 91.1095 24.2032H89.9358V22.8359V21.4685H91.1095C91.9661 21.4685 92.2969 21.4545 92.3339 21.4165C92.3716 21.3777 92.3846 20.9274 92.3846 19.6584C92.3846 18.7202 92.3893 17.9515 92.3951 17.9502C92.4009 17.9488 93.0944 17.875 93.9362 17.7859L95.4667 17.624V19.4942C95.4667 20.8909 95.4795 21.3775 95.5173 21.4165C95.5551 21.4553 96.0164 21.4685 97.3328 21.4685H99.0976V22.8359V24.2032H97.3084C95.828 24.2032 95.5108 24.2137 95.4702 24.2639C95.4338 24.309 95.4245 25.1358 95.4337 27.4869C95.446 30.6224 95.4469 30.6517 95.5398 30.9314C95.7212 31.4782 96.0332 31.822 96.5393 32.0329C96.7154 32.1063 96.8463 32.1225 97.261 32.1223C97.7454 32.1221 97.7899 32.1141 98.2736 31.942C98.5518 31.843 98.7815 31.7655 98.784 31.7699C98.7864 31.7743 98.9735 32.3711 99.1997 33.0962C99.4529 33.908 99.5959 34.43 99.5717 34.4548C99.5086 34.5197 98.7257 34.7806 98.3629 34.8576C97.7608 34.9854 96.8486 35.0401 96.2688 34.9834ZM58.6084 25.2884V15.7387H60.2972H61.986V23.6519C61.986 29.7488 61.9976 31.5771 62.0366 31.6173C62.0755 31.6572 63.2066 31.6693 66.8709 31.6693H71.6544V33.2537V34.8381H65.1314H58.6084V25.2884ZM74.0188 28.1316V21.4251H75.5809H77.1431V28.1316V34.8381H75.5809H74.0188V28.1316ZM81.3128 29.6545C81.3067 26.8035 81.2859 24.4546 81.2666 24.4347C81.2473 24.4148 80.6916 24.3928 80.0317 24.3858L78.8319 24.3731V23.0076V21.6422H80.0336C81.1353 21.6422 81.2387 21.6358 81.2743 21.5662C81.2957 21.5244 81.323 21.0703 81.3351 20.557C81.3638 19.3409 81.4836 18.7539 81.8623 17.9742C82.1823 17.3152 82.7078 16.6877 83.2598 16.3052C84.5677 15.399 86.4284 15.1839 88.1203 15.7432C88.519 15.875 89.5558 16.3947 89.5558 16.4627C89.5558 16.5492 88.4637 18.7773 88.4213 18.7773C88.4012 18.7773 88.2541 18.7 88.0942 18.6055C87.4678 18.2351 86.6453 18.0556 86.0726 18.1643C85.6916 18.2367 85.2483 18.4787 85.0213 18.7382C84.8022 18.9888 84.6073 19.3736 84.5069 19.7539C84.4152 20.1011 84.3699 21.4813 84.447 21.5769C84.4925 21.6332 84.7594 21.6422 86.3945 21.6422H88.2892V23.0082V24.3743L86.3877 24.3864C84.7522 24.3969 84.4807 24.4077 84.4462 24.4637C84.4216 24.5037 84.406 26.5127 84.4056 29.6834L84.405 34.8381H82.8645H81.324L81.3128 29.6545ZM117.294 28.1528V21.4674L118.738 21.4788L120.182 21.4902L120.278 22.1197C120.397 22.902 120.407 22.9444 120.478 22.9444C120.51 22.9444 120.67 22.7698 120.834 22.5564C121.685 21.4493 122.697 21.0313 124.387 21.0896C124.912 21.1077 125.129 21.1356 125.481 21.2295C126.224 21.4278 126.932 21.779 127.339 22.1503L127.525 22.3195L126.837 23.6846C126.459 24.4354 126.144 25.0563 126.137 25.0644C126.13 25.0726 126.024 25.0014 125.9 24.9064C125.592 24.6697 125.201 24.4751 124.816 24.3675C124.339 24.2343 123.332 24.2343 122.813 24.3676C121.345 24.7445 120.548 25.7676 120.419 27.4371C120.397 27.7236 120.378 29.506 120.378 31.398L120.376 34.8381H118.835H117.294L117.294 28.1528ZM180.979 29.8245C180.979 29.4903 180.986 29.3593 180.994 29.5334C181.002 29.7075 181.002 29.981 180.994 30.1411C180.986 30.3012 180.979 30.1588 180.979 29.8245ZM75.2009 19.3795C75.0732 19.3582 74.8506 19.2815 74.7062 19.2089C74.0174 18.8629 73.6711 18.1332 73.7686 17.2335C73.8707 16.2907 74.6027 15.6519 75.5809 15.6519C76.3298 15.6519 76.9402 16.0317 77.2412 16.685C77.3697 16.9637 77.3752 16.9984 77.3748 17.5184C77.3742 18.1929 77.2947 18.4337 76.9449 18.8222C76.6713 19.126 76.3267 19.3139 75.9178 19.3821C75.607 19.4339 75.5256 19.4336 75.2009 19.3795Z" fill="#A6A5A4" fill-opacity="0.33"></path><path fill-rule="evenodd" clip-rule="evenodd" d="M21.7424 51.969C21.8095 51.9494 21.665 51.927 21.3497 51.9081C19.8702 51.8194 18.0797 51.4824 16.44 50.984C15.888 50.8163 15.5637 50.7027 14.6367 50.3527C14.5725 50.3284 14.5199 50.2908 14.5199 50.2692C14.5199 50.2253 23.2712 40.0304 23.6474 39.6361C23.7782 39.4989 23.9005 39.3867 23.9192 39.3867C23.9821 39.3867 25.4056 40.232 25.4244 40.2806C25.4347 40.3071 24.4571 42.0637 23.2518 44.1843C22.0466 46.3049 21.066 48.0687 21.0726 48.1038C21.0796 48.1411 21.1642 48.1842 21.2754 48.2073C21.5783 48.2701 24.32 48.2653 24.9076 48.2009C28.9504 47.758 32.6104 46.1576 35.6729 43.4937C36.2763 42.9688 37.3461 41.8661 37.8481 41.2516C38.3492 40.6382 39.0335 39.6988 39.3173 39.2349C39.619 38.7416 40.3415 37.3687 40.5955 36.8059C42.8333 31.8475 42.9744 26.211 40.9887 21.0948L40.7661 20.5213L40.9577 20.0538C41.3877 19.0046 41.8089 17.6797 42.1167 16.4079C42.2066 16.0366 42.2964 15.7518 42.3209 15.7602C42.4045 15.7886 43.1578 17.1192 43.5783 17.9814C44.94 20.7732 45.7234 23.6784 45.9578 26.8059C46.0141 27.5578 46.014 29.4438 45.9578 30.1935C45.6427 34.3807 44.2994 38.2719 41.9579 41.7799C39.5815 45.34 36.2176 48.1978 32.3425 49.9483C30.4967 50.7822 28.6179 51.3467 26.5714 51.6822C25.872 51.7969 24.7761 51.9193 24.3867 51.9262C24.2005 51.9295 24.1679 51.9388 24.249 51.9653C24.3075 51.9844 23.7435 52 22.9957 52C22.248 52 21.684 51.9861 21.7424 51.969ZM8.35403 46.5654C5.00115 43.7091 2.59507 40.1168 1.22161 35.9167C0.610568 34.0481 0.187132 31.8632 0.0879718 30.0671C0.0683804 29.7122 0.047539 29.5649 0.0288543 29.6491C0.0129724 29.7207 0 29.1937 0 28.478C0 27.7624 0.0129721 27.2354 0.0288376 27.3069C0.047165 27.3896 0.0686089 27.2278 0.0876783 26.8629C0.20357 24.6451 0.771263 22.1043 1.67473 19.7598C1.96595 19.004 2.81442 17.2432 3.22139 16.5501C4.74651 13.9523 6.62546 11.7848 8.97558 9.91203C9.61159 9.40522 10.8795 8.54773 11.6522 8.10185C14.433 6.49712 17.3936 5.51795 20.5953 5.14406C21.4283 5.04679 23.1699 4.97251 23.7431 5.00982L24.2356 5.04187L23.467 5.83027C22.5293 6.79202 21.7197 7.74306 20.9989 8.72943C20.9214 8.83554 20.8694 8.85178 20.4041 8.91518C14.6548 9.69866 9.53187 13.1002 6.48825 18.1549C6.2238 18.5941 5.5372 19.9117 5.33552 20.367C4.53098 22.1833 4.00438 24.1486 3.74907 26.2876C3.65629 27.065 3.61835 29.0754 3.68154 29.866C3.92699 32.9368 4.72999 35.6649 6.13925 38.2156C6.46609 38.8071 7.21406 39.9841 7.28002 40.0106C7.30552 40.0209 7.34744 40.016 7.3732 39.9997C7.39894 39.9835 8.40712 38.2337 9.61357 36.1113C10.82 33.989 11.8133 32.2461 11.8209 32.2383C11.8433 32.2156 13.3718 33.1158 13.3723 33.1521C13.3726 33.1702 13.0887 34.0388 12.7414 35.0822C12.3942 36.1257 11.3778 39.2045 10.4828 41.9241C9.58775 44.6437 8.84177 46.885 8.82504 46.9048C8.8083 46.9246 8.59635 46.7719 8.35403 46.5654Z" fill="#A6A5A4" fill-opacity="0.33"></path></svg> 