<?xml version="1.0" encoding="UTF-8"?> <svg xmlns="http://www.w3.org/2000/svg" width="319" height="156" viewBox="0 0 319 156" fill="none"><g clip-path="url(#clip0_154_119)"><path d="M36.6371 43.6811L30.7689 37.2282C30.6175 37.0605 30.3544 37.0638 30.2031 37.2315L30.0353 37.4188C29.9959 37.4616 29.9597 37.5076 29.9202 37.547C29.6932 37.7903 29.4893 37.9974 29.2919 38.1716C29.111 38.336 28.9071 38.5036 28.6472 38.7041C28.6012 38.7403 28.5518 38.7765 28.5025 38.8126L28.3413 38.9277C28.1571 39.0592 28.1308 39.3222 28.2821 39.4898L34.1306 45.9164C34.249 46.038 34.4266 46.1005 34.647 46.1005C34.7029 46.1005 34.7556 46.0972 34.795 46.0906C35.1766 46.0446 35.6009 45.8375 35.9562 45.5285L36.0187 45.4759C36.67 44.8842 36.9463 44.0755 36.6371 43.6745V43.6811Z" fill="#2B3582"></path><path d="M29.8313 35.9658C32.703 32.1526 32.4595 26.8174 29.2458 23.277C27.3577 21.1962 24.6604 20.0029 21.8414 20.0029C21.45 20.0029 21.0553 20.0259 20.6639 20.072C18.5981 20.3185 16.6936 21.1863 15.1476 22.5867C13.1707 24.375 12.0128 26.824 11.8812 29.4867C11.7497 32.1493 12.6641 34.7002 14.4535 36.6726C16.3416 38.7534 19.0389 39.9467 21.8546 39.9467C22.246 39.9467 22.6408 39.9237 23.0289 39.8777C24.4894 39.7035 25.8643 39.2235 27.111 38.4477C27.6275 38.1289 28.111 37.764 28.5485 37.3662C29.0123 36.9487 29.4399 36.4787 29.8248 35.9658H29.8313ZM28.0024 30.2756C27.9235 31.8995 27.213 33.3985 26.0091 34.4899C25.065 35.3446 23.9006 35.8738 22.6408 36.025C20.6836 36.2551 18.7133 35.5155 17.4008 34.0658C15.1443 31.5774 15.3351 27.7181 17.8251 25.4631C18.7692 24.6084 19.9336 24.0791 21.1934 23.9279C21.4303 23.8983 21.6737 23.8852 21.9105 23.8852C23.6309 23.8852 25.2788 24.6149 26.4334 25.8871C27.5255 27.0935 28.0847 28.6517 28.0057 30.2756H28.0024Z" fill="#2B3582"></path><path d="M58.5506 135.271C58.5934 135.313 58.6493 135.336 58.7085 135.336C58.7348 135.336 58.7644 135.33 58.7907 135.32C58.873 135.287 58.9256 135.208 58.9256 135.119V126.326C58.9256 126.204 58.8269 126.109 58.7085 126.109C56.3566 126.109 54.1297 127.013 52.4357 128.65C52.3502 128.732 52.3469 128.87 52.4324 128.959L58.5539 135.274L58.5506 135.271Z" fill="#2B3582"></path><path d="M58.5343 137.526C58.5409 137.463 58.5178 137.401 58.4751 137.355L52.3536 131.04C52.3141 130.997 52.2582 130.974 52.199 130.974C52.1398 130.974 52.0838 130.994 52.0444 131.037C50.2747 132.749 49.301 135.047 49.301 137.506C49.301 139.383 49.8767 141.184 50.9622 142.716C51.0049 142.775 51.0707 142.808 51.1398 142.808C51.1825 142.808 51.2286 142.795 51.2648 142.769L58.4422 137.687C58.4948 137.651 58.5277 137.591 58.5343 137.529V137.526ZM51.597 141.296C50.8174 140.139 50.4063 138.791 50.4063 137.391C50.4063 135.537 51.1168 133.801 52.4161 132.483L57.1495 137.365L51.6003 141.296H51.597Z" fill="#2B3582"></path><path d="M69.4549 137.884C69.4549 137.499 69.4253 137.102 69.3727 136.701C69.353 136.553 69.3299 136.408 69.3036 136.263C69.2477 135.951 69.172 135.642 69.0865 135.343C69.0503 135.215 69.0076 135.087 68.9648 134.958C68.8694 134.679 68.7609 134.406 68.6425 134.143C68.5898 134.028 68.5372 133.913 68.478 133.798C68.3497 133.545 68.2148 133.302 68.0701 133.068C68.0043 132.963 67.9385 132.861 67.8727 132.759C67.705 132.509 67.5208 132.269 67.3267 132.039C67.251 131.947 67.1721 131.858 67.0932 131.77C66.9188 131.576 66.728 131.385 66.5274 131.194C66.4386 131.112 66.3498 131.033 66.261 130.954C66.057 130.78 65.8432 130.609 65.6261 130.452C65.5274 130.379 65.4287 130.31 65.3268 130.244C65.0899 130.087 64.8498 129.945 64.613 129.817C64.5044 129.758 64.3926 129.699 64.2775 129.646C63.988 129.505 63.6887 129.38 63.3893 129.268C63.2643 129.222 63.1393 129.179 63.0111 129.14C62.715 129.048 62.4124 128.969 62.1032 128.907C61.9617 128.877 61.817 128.851 61.6723 128.831C61.3368 128.778 60.9881 128.745 60.6328 128.732C60.5111 128.729 60.3894 128.722 60.2644 128.722C60.0473 128.722 59.873 128.9 59.873 129.114V137.703L52.8633 142.67C52.7778 142.729 52.7186 142.821 52.7022 142.927C52.6857 143.029 52.7087 143.134 52.7712 143.219L52.8041 143.265C52.9522 143.472 53.1199 143.679 53.3074 143.9C53.3863 143.992 53.4653 144.08 53.5475 144.166C53.7252 144.357 53.9192 144.547 54.1232 144.728C54.212 144.807 54.3041 144.886 54.3962 144.965C54.6495 145.175 54.883 145.353 55.1166 145.51C55.2054 145.573 55.2975 145.629 55.3929 145.685L55.429 145.708C55.6692 145.856 55.9126 145.994 56.1593 146.119C56.2711 146.174 56.3863 146.23 56.5014 146.283C56.7547 146.398 57.0244 146.503 57.3204 146.605C57.4487 146.648 57.577 146.691 57.7053 146.727C58.0277 146.822 58.327 146.894 58.623 146.947C58.7678 146.973 58.9158 146.993 59.0605 147.013C59.4585 147.065 59.8565 147.095 60.2381 147.095C60.2381 147.095 60.2677 147.095 60.271 147.095C60.4355 147.095 60.5999 147.092 60.7644 147.082C61.2019 147.059 61.6394 147.003 62.067 146.917C62.2808 146.875 62.4979 146.822 62.7347 146.756C63.4025 146.569 64.0472 146.309 64.6459 145.984C65.2478 145.658 65.8169 145.257 66.3399 144.797C66.6294 144.541 66.9057 144.265 67.1622 143.975C67.626 143.453 68.0241 142.881 68.3497 142.282C68.6753 141.684 68.9352 141.043 69.1227 140.372C69.1885 140.136 69.2411 139.919 69.2839 139.705C69.3694 139.275 69.4253 138.837 69.4484 138.403C69.4582 138.239 69.4615 138.075 69.4615 137.91V137.884H69.4549Z" fill="#2B3582"></path><path d="M149.235 61.9747C148.999 62.3165 148.61 62.5302 148.196 62.5532C147.791 62.5762 147.374 62.3987 147.104 62.0897C143.107 57.4711 138.255 54.7394 132.69 53.9669C132.081 53.8814 131.456 53.8223 130.831 53.7828C130.673 53.773 130.532 53.8617 130.47 54.0064C130.407 54.1477 130.44 54.3154 130.552 54.4238C134.515 58.2305 141.884 66.4158 146.716 78.4603C146.768 78.5885 146.887 78.6772 147.022 78.6904C147.035 78.6904 147.048 78.6904 147.061 78.6904C147.186 78.6904 147.301 78.6279 147.37 78.526C155.745 65.995 166.949 50.2293 179.383 39.4668C179.521 39.3485 179.55 39.1447 179.455 38.9902C179.359 38.8357 179.162 38.7732 178.994 38.8455C160.087 46.8895 150.295 60.4527 149.239 61.9747H149.235Z" fill="#2B3582"></path><path d="M185.997 106.875L170.241 84.9295C170.179 84.844 170.084 84.7882 169.978 84.775C169.873 84.7619 169.768 84.798 169.689 84.8671C169.593 84.9525 169.498 85.0347 169.403 85.1202C169.304 85.2056 169.205 85.2911 169.107 85.3799L168.916 85.5508C168.774 85.6757 168.636 85.8039 168.491 85.9255C167.702 86.6027 166.988 87.1648 166.314 87.6481C165.686 88.0984 164.985 88.5521 164.11 89.0714C163.955 89.1668 163.794 89.2555 163.636 89.3443L163.429 89.4593C163.324 89.5185 163.219 89.581 163.113 89.6434C163.025 89.696 162.939 89.7453 162.85 89.7979C162.758 89.8505 162.692 89.9393 162.673 90.0412C162.65 90.1431 162.673 90.2516 162.735 90.337L178.475 112.266C178.695 112.575 179.096 112.769 179.636 112.832C179.758 112.845 179.889 112.851 180.021 112.851H180.027C181.086 112.851 182.379 112.391 183.484 111.629L183.649 111.517C185.859 109.929 186.662 107.792 186.001 106.869L185.997 106.875Z" fill="#2B3582"></path><path d="M169.965 81.7705C174.468 77.0467 177.261 71.1165 178.047 64.6242C178.827 58.1779 177.557 51.7907 174.376 46.1564C174.32 46.0578 174.222 45.9887 174.106 45.9723C173.991 45.9558 173.876 45.992 173.794 46.0709C172.159 47.6389 170.475 49.4009 168.794 51.3108C168.699 51.4226 168.672 51.5771 168.735 51.7118C170.59 55.7683 171.182 60.2554 170.445 64.6932C169.459 70.6168 166.225 75.8008 161.34 79.2919C157.521 82.0203 153.025 83.47 148.344 83.4832H148.285C147.423 83.4832 146.551 83.4338 145.696 83.3319C139.39 82.5989 133.66 79.2262 129.976 74.0783C122.766 63.9996 125.105 49.94 135.187 42.7343C139.009 40.0026 143.505 38.5529 148.186 38.5398H148.245C149.107 38.5398 149.979 38.5891 150.834 38.6877C155.992 39.286 160.821 41.6726 164.432 45.4069C164.557 45.5351 164.755 45.5581 164.903 45.4595C166.84 44.1906 168.876 43.0269 170.958 41.998C171.06 41.9487 171.136 41.8534 171.159 41.7383C171.182 41.6265 171.153 41.5082 171.077 41.4227C166.097 35.578 159.153 31.8732 151.518 30.989C150.37 30.8542 149.199 30.7885 148.045 30.7885H147.959C141.67 30.8049 135.631 32.7542 130.499 36.4228C123.937 41.1071 119.592 48.0728 118.269 56.028C116.947 63.9832 118.802 71.9778 123.496 78.5358C128.443 85.4489 136.137 89.9755 144.607 90.9584C145.759 91.0932 146.926 91.1589 148.084 91.1589H148.163C152.62 91.1457 156.916 90.1793 160.932 88.2858C162.597 87.5035 164.176 86.5765 165.633 85.5311C167.166 84.4397 168.623 83.1741 169.962 81.7705H169.965Z" fill="#2B3582"></path><path d="M258.768 149.376C243.726 149.376 231.49 137.148 231.49 122.115C231.49 107.082 243.726 94.8538 258.768 94.8538C273.811 94.8538 286.047 107.082 286.047 122.115C286.047 137.148 273.811 149.376 258.768 149.376ZM258.768 100.199C246.677 100.199 236.838 110.031 236.838 122.115C236.838 134.199 246.677 144.031 258.768 144.031C270.86 144.031 280.698 134.199 280.698 122.115C280.698 110.031 270.86 100.199 258.768 100.199Z" fill="#FDA720"></path><path d="M297.307 43.3523C285.346 43.3523 275.616 33.6286 275.616 21.6762C275.616 9.7237 285.346 0 297.307 0C309.267 0 318.997 9.7237 318.997 21.6762C318.997 33.6286 309.267 43.3523 297.307 43.3523ZM297.307 5.34179C288.297 5.34179 280.965 12.6691 280.965 21.6729C280.965 30.6767 288.297 38.004 297.307 38.004C306.316 38.004 313.648 30.6767 313.648 21.6729C313.648 12.6691 306.316 5.34179 297.307 5.34179Z" fill="#EA9626"></path><path d="M25.0782 58.8484C11.2497 58.8484 0 47.606 0 33.7831C0 19.9602 11.2497 8.72107 25.0782 8.72107C38.9067 8.72107 50.1563 19.9635 50.1563 33.7831C50.1563 47.6027 38.9067 58.8451 25.0782 58.8451V58.8484ZM25.0782 14.0661C14.1969 14.0661 5.34852 22.9122 5.34852 33.7831C5.34852 44.6541 14.2002 53.5001 25.0782 53.5001C35.9561 53.5001 44.8078 44.6541 44.8078 33.7831C44.8078 22.9122 35.9561 14.0661 25.0782 14.0661Z" fill="#F89D13"></path><path d="M59.7252 156C49.5347 156 41.2422 147.713 41.2422 137.529C41.2422 127.345 49.5347 119.058 59.7252 119.058C69.9156 119.058 78.2081 127.345 78.2081 137.529C78.2081 147.713 69.9156 156 59.7252 156ZM59.7252 124.403C52.482 124.403 46.5907 130.29 46.5907 137.529C46.5907 144.767 52.482 150.655 59.7252 150.655C66.9684 150.655 72.8596 144.767 72.8596 137.529C72.8596 130.29 66.9684 124.403 59.7252 124.403Z" fill="#D16E52"></path><path d="M81.6356 103.854C76.6226 103.854 72.5405 99.7781 72.5405 94.765C72.5405 89.752 76.6193 85.6758 81.6356 85.6758C86.6519 85.6758 90.7308 89.752 90.7308 94.765C90.7308 99.7781 86.6519 103.854 81.6356 103.854ZM81.6356 91.0241C79.5699 91.0241 77.889 92.7039 77.889 94.7683C77.889 96.8327 79.5699 98.5125 81.6356 98.5125C83.7014 98.5125 85.3822 96.8327 85.3822 94.7683C85.3822 92.7039 83.7014 91.0241 81.6356 91.0241Z" fill="#FDA720"></path><path d="M152.179 142.476C154.909 141.825 156.594 139.086 155.943 136.357C155.292 133.629 152.55 131.945 149.82 132.596C147.09 133.247 145.405 135.987 146.056 138.715C146.708 141.443 149.449 143.127 152.179 142.476Z" fill="#D16E52"></path><path d="M280.718 76.902C283.525 76.902 285.8 74.6281 285.8 71.8232C285.8 69.0182 283.525 66.7444 280.718 66.7444C277.912 66.7444 275.636 69.0182 275.636 71.8232C275.636 74.6281 277.912 76.902 280.718 76.902Z" fill="#FDA720"></path><path d="M66.0222 108.128C68.0068 106.144 68.0069 102.929 66.0222 100.945C64.0375 98.9618 60.8197 98.9618 58.835 100.945C56.8504 102.929 56.8504 106.144 58.835 108.128C60.8197 110.111 64.0375 110.111 66.0222 108.128Z" fill="#F89D13"></path><path d="M184.938 153.035C179.925 153.035 175.843 148.959 175.843 143.946C175.843 138.933 179.922 134.856 184.938 134.856C189.955 134.856 194.033 138.933 194.033 143.946C194.033 148.959 189.955 153.035 184.938 153.035ZM184.938 140.205C182.873 140.205 181.192 141.884 181.192 143.949C181.192 146.013 182.873 147.693 184.938 147.693C187.004 147.693 188.685 146.013 188.685 143.949C188.685 141.884 187.004 140.205 184.938 140.205Z" fill="#F89D13"></path><path d="M207.935 88.3923L205.233 93.0054L236.58 111.341L239.282 106.727L207.935 88.3923Z" fill="#FDA720"></path><path d="M277.454 27.0963L205.105 50.994L206.783 56.069L279.132 32.1713L277.454 27.0963Z" fill="#EA9626"></path><path d="M47.5868 36.6492L46.0498 41.7689L103.637 59.0348L105.174 53.9151L47.5868 36.6492Z" fill="#F89D13"></path><path d="M103.845 85.1391L86.5854 88.8651L87.7148 94.0897L104.974 90.3637L103.845 85.1391Z" fill="#FDA720"></path><path d="M113.867 104.55L72.2288 127.493L74.8112 132.174L116.45 109.231L113.867 104.55Z" fill="#D16E52"></path><path d="M177.854 121L172.998 123.241L180.118 138.656L184.975 136.416L177.854 121Z" fill="#F89D13"></path><path d="M309.777 18.928C309.777 18.5829 309.54 18.287 309.204 18.2114L306.596 17.6263L308.03 15.3647C308.214 15.0721 308.175 14.6973 307.928 14.4541L304.537 11.0583C304.297 10.8184 303.902 10.7789 303.626 10.9564L301.369 12.3897L300.787 9.77632C300.711 9.43773 300.418 9.20105 300.07 9.20105H295.274C294.928 9.20105 294.632 9.43773 294.557 9.77632L293.975 12.3897L291.721 10.9564C291.438 10.7756 291.044 10.8184 290.807 11.0551L287.416 14.4541C287.172 14.6973 287.129 15.0721 287.317 15.3647L288.751 17.6263L286.143 18.2114C285.804 18.287 285.567 18.5796 285.567 18.928V23.7307C285.567 24.0759 285.804 24.3717 286.143 24.4473L288.751 25.0325L287.317 27.2941C287.133 27.5867 287.172 27.9614 287.416 28.2047L290.807 31.6004C291.044 31.8404 291.438 31.8831 291.721 31.7023L293.978 30.2691L294.56 32.8824C294.636 33.2145 294.935 33.4577 295.277 33.4577H300.073C300.422 33.4577 300.714 33.221 300.79 32.8824L301.372 30.2691L303.629 31.7023C303.912 31.8831 304.306 31.8371 304.54 31.6004L307.931 28.2047C308.171 27.9647 308.218 27.5801 308.033 27.2908L306.599 25.0292L309.208 24.4441C309.546 24.3684 309.783 24.0759 309.783 23.7274V18.9248L309.777 18.928ZM297.649 26.6893H297.576C294.849 26.6367 292.632 24.3783 292.632 21.6466C292.632 18.9149 294.85 16.6565 297.573 16.6072C297.603 16.6072 297.636 16.6072 297.662 16.6039H297.678C300.448 16.6105 302.701 18.8689 302.701 21.6466C302.701 24.4243 300.445 26.6893 297.649 26.6893Z" fill="#2B3582"></path><path d="M206.165 62.711L212.197 62.2836C209.651 47.2839 201.211 34.2664 189.349 25.6998L186.185 30.8312C196.458 38.382 203.8 49.6902 206.168 62.7143L206.165 62.711Z" fill="#D16E52"></path><path d="M156.087 20.9595C167.337 20.9595 177.745 24.6281 186.182 30.8279L189.346 25.6965C179.985 18.9346 168.495 14.9438 156.087 14.9438C143.68 14.9438 132.522 18.8162 123.236 25.4006L127.115 30.0291C135.345 24.3125 145.331 20.9562 156.087 20.9562V20.9595Z" fill="#F89D13"></path><path d="M127.114 30.0324L123.236 25.4039C117.177 29.7004 111.993 35.1539 108.003 41.4359L113.217 44.4503C116.855 38.7798 121.585 33.8719 127.111 30.0324H127.114Z" fill="#FDA720"></path><path d="M212.194 62.2836L206.161 62.711C206.698 65.6695 206.98 68.7135 206.98 71.8232C206.98 99.8701 184.149 122.684 156.084 122.684C128.019 122.684 105.191 99.8668 105.191 71.8232C105.191 61.7511 108.141 52.3561 113.217 44.4503L108.003 41.4359C102.418 50.2325 99.1746 60.6564 99.1746 71.8232C99.1746 103.184 124.703 128.699 156.087 128.699C187.471 128.699 213 103.187 213 71.8232C213 68.5721 212.72 65.3868 212.194 62.2836Z" fill="#EA9626"></path><path d="M251.14 112.957H246.052C245.154 112.957 244.427 113.683 244.427 114.581V130.428C244.427 131.326 245.154 132.052 246.052 132.052H251.14C252.038 132.052 252.765 131.326 252.765 130.428V114.581C252.765 113.683 252.038 112.957 251.14 112.957Z" fill="#2B3582"></path><path d="M260.923 119.475H255.834C254.936 119.475 254.209 120.202 254.209 121.099V130.428C254.209 131.326 254.936 132.052 255.834 132.052H260.923C261.821 132.052 262.548 131.326 262.548 130.428V121.099C262.548 120.202 261.821 119.475 260.923 119.475Z" fill="#2B3582"></path><path d="M270.706 106.438H265.617C264.719 106.438 263.992 107.164 263.992 108.062V130.428C263.992 131.326 264.719 132.052 265.617 132.052H270.706C271.604 132.052 272.33 131.326 272.33 130.428V108.062C272.33 107.164 271.604 106.438 270.706 106.438Z" fill="#2B3582"></path><path d="M273.403 133.344H243.509C243.095 133.344 242.759 133.68 242.759 134.094V134.11C242.759 134.524 243.095 134.86 243.509 134.86H273.403C273.817 134.86 274.153 134.524 274.153 134.11V134.094C274.153 133.68 273.817 133.344 273.403 133.344Z" fill="#2B3582"></path></g><defs><clipPath id="clip0_154_119"><rect width="319" height="156" fill="white"></rect></clipPath></defs></svg> 