<?xml version="1.0" encoding="UTF-8"?> <svg xmlns="http://www.w3.org/2000/svg" width="216" height="44" viewBox="0 0 216 44" fill="none"><path fill-rule="evenodd" clip-rule="evenodd" d="M6.80362 0H66.4757C70.2521 0 73.3091 3.02637 73.3091 6.76483V29.3143C73.3091 33.0527 70.2521 36.0791 66.4757 36.0791H45.0765L48.0136 43.2L35.0962 36.0791H6.83359C3.05725 36.0791 0.000218507 33.0527 0.000218507 29.3143V6.76483C-0.0297524 3.05604 3.02728 0 6.80362 0Z" fill="#A6A5A4" fill-opacity="0.33"></path><path d="M3.13124 6.10562C3.55786 5.54123 4.19779 5.24418 5.05103 5.18477C6.60514 5.06596 7.48886 5.77887 7.70217 7.32351C8.64682 13.5318 9.6829 18.7895 10.7799 23.0966L17.4535 10.7098C18.0629 9.58105 18.8247 8.98696 19.7389 8.92755C21.0797 8.83844 21.9025 9.67016 22.2377 11.4227C22.9995 15.3734 23.9747 18.7301 25.1326 21.5817C25.9249 14.0367 27.2657 8.6008 29.155 5.24419C29.6121 4.41246 30.2825 3.9966 31.1662 3.93719C31.8671 3.87778 32.507 4.08571 33.086 4.53128C33.665 4.97685 33.9697 5.54123 34.0307 6.22443C34.0612 6.75912 33.9697 7.20469 33.726 7.65026C32.5375 9.78898 31.5624 13.3832 30.7701 18.3736C30.0083 23.2154 29.734 26.9879 29.9169 29.691C29.9778 30.4336 29.8559 31.0871 29.5512 31.6515C29.1855 32.305 28.637 32.6615 27.9361 32.7209C27.1438 32.7803 26.3211 32.4238 25.5288 31.6218C22.6948 28.7999 20.4398 24.5819 18.7943 18.9677C16.8135 22.7699 15.3508 25.6215 14.4062 27.5226C12.6083 30.8792 11.0847 32.6021 9.80479 32.6912C8.98203 32.7506 8.28115 32.0674 7.6717 30.6416C6.11758 26.7503 4.44158 19.235 2.64368 8.09583C2.55226 7.32351 2.70462 6.6403 3.13124 6.10562Z" fill="white"></path><path d="M67.9611 10.3683C66.8956 8.39422 65.3269 7.2035 63.2256 6.73348C62.6632 6.60814 62.1305 6.54547 61.6273 6.54547C58.786 6.54547 56.4775 8.1122 54.6721 11.2457C53.133 13.9091 52.3635 16.8546 52.3635 20.082C52.3635 22.4948 52.8371 24.5629 53.7842 26.2863C54.8497 28.2604 56.4183 29.4511 58.5197 29.9211C59.082 30.0464 59.6148 30.1091 60.1179 30.1091C62.9888 30.1091 65.2973 28.5424 67.0732 25.4089C68.6122 22.7141 69.3817 19.7687 69.3817 16.5412C69.3817 14.0971 68.9082 12.0604 67.9611 10.3683ZM64.2319 19.048C63.8175 21.1161 63.0776 22.6515 61.9825 23.6855C61.1242 24.5002 60.3251 24.8449 59.5852 24.6882C58.8748 24.5315 58.2829 23.8735 57.8389 22.6515C57.4838 21.6801 57.3062 20.7087 57.3062 19.8C57.3062 19.0167 57.3654 18.2333 57.5134 17.5126C57.7797 16.2279 58.2829 14.9745 59.082 13.7838C60.0587 12.2484 61.0946 11.6217 62.1601 11.841C62.8704 11.9977 63.4623 12.6557 63.9063 13.8778C64.2615 14.8491 64.439 15.8205 64.439 16.7292C64.439 17.5439 64.3502 18.3273 64.2319 19.048Z" fill="white"></path><path d="M49.5246 10.3683C48.3772 8.39422 46.656 7.2035 44.4249 6.73348C43.8193 6.60814 43.2456 6.54547 42.7037 6.54547C39.6439 6.54547 37.1577 8.1122 35.2134 11.2457C33.556 13.9091 32.7273 16.8546 32.7273 20.082C32.7273 22.4948 33.2373 24.5629 34.2572 26.2863C35.4047 28.2604 37.094 29.4511 39.357 29.9211C39.9626 30.0464 40.5363 30.1091 41.0782 30.1091C44.1699 30.1091 46.656 28.5424 48.5684 25.4089C50.2259 22.7141 51.0546 19.7687 51.0546 16.5412C51.0546 14.0971 50.5446 12.0604 49.5246 10.3683ZM45.5086 19.048C45.0623 21.1161 44.2655 22.6515 43.0862 23.6855C42.1619 24.5002 41.3013 24.8449 40.5044 24.6882C39.7395 24.5315 39.102 23.8735 38.6239 22.6515C38.2414 21.6801 38.0502 20.7087 38.0502 19.8C38.0502 19.0167 38.1139 18.2333 38.2733 17.5126C38.5602 16.2279 39.102 14.9745 39.9626 13.7838C41.0144 12.2484 42.13 11.6217 43.2774 11.841C44.0424 11.9977 44.6799 12.6557 45.158 13.8778C45.5404 14.8491 45.7317 15.8205 45.7317 16.7292C45.7317 17.5439 45.6679 18.3273 45.5086 19.048Z" fill="white"></path><path d="M80.2386 10.7466C78.2271 12.6746 77.2363 15.1285 77.2363 18.1082C77.2363 21.2924 78.2271 23.8923 80.2085 25.8495C82.19 27.8068 84.772 28.8 87.9844 28.8C88.9151 28.8 89.9658 28.6539 91.1067 28.3326V23.6002C90.0559 23.8923 89.1552 24.0384 88.3746 24.0384C86.7835 24.0384 85.5225 23.5125 84.5618 22.4901C83.6011 21.4384 83.1207 20.0362 83.1207 18.2542C83.1207 16.5891 83.6011 15.2161 84.5318 14.1645C85.4925 13.0836 86.6634 12.5578 88.1044 12.5578C89.0351 12.5578 90.0259 12.7039 91.1067 12.996V8.26354C90.116 8.00062 89.0051 7.88377 87.8342 7.88377C84.772 7.85456 82.2501 8.81858 80.2386 10.7466ZM101.074 7.85455C98.3121 7.85455 96.1505 8.76015 94.5893 10.5421C93.0281 12.3241 92.2776 14.8364 92.2776 18.0498C92.2776 21.5261 93.0582 24.1844 94.5893 26.0248C96.1204 27.8652 98.3721 28.8 101.314 28.8C104.166 28.8 106.358 27.8652 107.889 26.0248C109.42 24.1844 110.201 21.5845 110.201 18.2542C110.201 14.924 109.42 12.3533 107.859 10.5421C106.268 8.76015 104.016 7.85455 101.074 7.85455ZM103.446 23.0451C102.906 23.8631 102.095 24.2721 101.074 24.2721C100.113 24.2721 99.3929 23.8631 98.8825 23.0451C98.3721 22.2272 98.1319 20.5913 98.1319 18.1082C98.1319 14.2813 99.1227 12.3825 101.134 12.3825C103.236 12.3825 104.317 14.3106 104.317 18.1958C104.287 20.5913 103.986 22.2272 103.446 23.0451ZM125.032 8.4096L123.951 12.8791C123.681 14.0184 123.411 15.1869 123.171 16.3846L122.57 19.4812C122 16.3846 121.219 12.7039 120.228 8.4096H113.263L110.651 28.3034H115.875L117.286 14.6027L120.859 28.3034H124.582L128.004 14.6319L129.475 28.3034H134.939L132.177 8.4096H125.032ZM150.041 8.4096L148.96 12.8791C148.69 14.0184 148.42 15.1869 148.179 16.3846L147.579 19.4812C147.008 16.3846 146.228 12.7039 145.237 8.4096H138.272L135.66 28.3034H140.884L142.295 14.6027L145.868 28.3034H149.59L152.983 14.6319L154.454 28.3034H159.918L157.156 8.4096H150.041ZM167.033 20.4452H171.927V16.3262H167.033V12.6746H172.678V8.43881H161.509V28.3326H172.708V24.0968H167.033V20.4452ZM188.259 17.2902C188.83 16.3846 189.13 15.4498 189.13 14.4858C189.13 12.6162 188.379 11.1264 186.878 10.0455C185.377 8.96463 183.306 8.4096 180.724 8.4096H174.299V28.3034H179.823V19.2475H179.913L184.386 28.3034H190.211L185.797 19.3351C186.848 18.8677 187.689 18.1958 188.259 17.2902ZM179.793 16.9689V12.2364C181.114 12.2657 182.045 12.4702 182.615 12.8791C183.185 13.2881 183.456 13.9308 183.456 14.8656C183.456 16.2386 182.225 16.9397 179.793 16.9689ZM192.372 10.7466C190.361 12.6746 189.37 15.1285 189.37 18.1082C189.37 21.2924 190.361 23.8923 192.342 25.8495C194.324 27.8068 196.906 28.8 200.118 28.8C201.049 28.8 202.1 28.6539 203.24 28.3326V23.6002C202.19 23.8923 201.289 24.0384 200.508 24.0384C198.917 24.0384 197.656 23.5125 196.696 22.4901C195.735 21.4384 195.254 20.0362 195.254 18.2542C195.254 16.5891 195.735 15.2161 196.666 14.1645C197.626 13.0836 198.797 12.5578 200.238 12.5578C201.169 12.5578 202.16 12.7039 203.24 12.996V8.26354C202.25 8.00062 201.139 7.88377 199.968 7.88377C196.936 7.85456 194.384 8.81858 192.372 10.7466ZM210.296 24.0384V20.416H215.189V16.297H210.296V12.6454H215.97V8.4096H204.802V28.3034H216V24.0676H210.296V24.0384Z" fill="#A6A5A4" fill-opacity="0.33"></path></svg> 