<?xml version="1.0" encoding="utf-8"?>
<svg xmlns="http://www.w3.org/2000/svg" height="512pt" version="1.1" viewBox="0 0 512 512" width="512pt">
<path d="M 0.00 0.00 L 512.00 0.00 L 512.00 425.30 C 509.33 428.58 508.81 432.78 508.81 436.87 C 508.03 434.81 506.96 432.88 505.00 431.76 C 503.86 436.17 503.67 441.02 500.72 444.75 C 498.95 447.91 495.37 449.03 492.26 450.39 C 491.98 454.20 491.89 458.03 491.82 461.85 C 491.17 461.90 489.86 461.98 489.21 462.02 C 488.28 460.75 487.37 459.47 486.45 458.20 C 486.12 459.41 485.80 460.62 485.48 461.85 C 485.12 461.81 484.40 461.75 484.04 461.72 C 482.79 459.15 481.35 456.67 479.78 454.28 C 479.99 453.20 480.20 452.13 480.43 451.07 C 479.94 450.69 479.45 450.32 478.97 449.96 C 478.43 451.57 477.92 453.20 477.37 454.82 C 475.86 454.07 474.35 453.31 472.85 452.56 C 472.73 451.80 472.60 451.05 472.48 450.30 C 471.85 450.91 471.24 451.55 470.61 452.16 C 469.02 450.99 467.16 448.96 465.03 450.08 C 461.35 451.55 457.38 451.77 453.58 452.71 C 453.83 451.98 454.09 451.26 454.35 450.55 C 453.43 450.16 452.51 449.78 451.60 449.41 C 451.54 447.78 451.50 446.14 451.46 444.51 C 448.15 444.88 443.73 444.51 442.11 448.15 C 440.92 449.75 441.89 451.66 442.25 453.38 C 440.48 453.79 438.72 454.21 436.98 454.65 C 440.58 455.78 444.32 456.38 447.97 457.34 C 446.56 457.90 445.16 458.47 443.74 458.98 C 420.11 458.00 396.46 457.38 372.82 456.89 C 372.91 452.93 370.31 449.71 368.67 446.31 C 357.37 426.15 348.28 404.87 338.81 383.83 C 342.62 381.73 346.69 379.91 349.85 376.85 C 355.47 371.53 358.76 364.33 361.38 357.19 C 370.06 332.69 377.11 307.64 386.42 283.36 C 397.96 250.82 407.84 217.71 419.36 185.16 C 420.45 181.80 422.40 178.65 422.78 175.10 C 421.91 169.52 412.79 168.16 410.61 173.54 C 407.68 181.48 406.06 189.86 403.06 197.79 C 402.48 190.29 400.21 182.97 396.69 176.34 C 395.91 174.74 394.67 173.45 393.31 172.35 C 391.37 171.24 389.25 170.37 386.99 170.39 C 374.01 169.87 361.01 170.66 348.05 169.86 C 344.27 169.98 339.74 169.85 337.00 172.94 C 333.58 177.24 332.83 182.89 330.52 187.77 C 326.82 185.37 323.37 182.41 319.12 181.02 C 312.50 179.05 305.46 178.25 298.63 179.50 C 298.56 178.96 298.43 177.89 298.36 177.36 C 298.17 175.55 297.90 173.76 297.64 171.96 C 297.11 167.90 295.71 164.04 294.09 160.31 C 294.22 153.85 294.41 147.37 295.27 140.97 C 295.84 136.62 297.24 132.40 297.36 128.00 C 297.51 123.29 294.58 118.78 290.44 116.67 C 287.84 115.38 284.85 115.62 282.05 115.24 C 281.87 115.02 281.52 114.57 281.35 114.35 C 280.18 111.90 278.87 109.45 276.86 107.59 C 269.74 100.31 258.22 99.99 249.37 104.07 C 248.40 104.11 247.42 104.12 246.45 104.08 C 244.50 102.12 242.76 99.98 241.05 97.81 C 238.00 101.51 234.63 105.28 233.52 110.08 C 232.05 116.91 235.39 124.93 242.04 127.70 C 241.53 127.64 240.50 127.53 239.99 127.47 C 241.40 140.86 243.50 154.20 246.61 167.31 C 247.29 170.24 248.53 173.02 250.17 175.55 C 251.35 177.18 252.65 178.72 254.02 180.19 C 258.65 184.94 265.13 180.38 270.18 178.77 C 270.56 178.90 271.33 179.14 271.71 179.27 C 272.08 180.57 272.41 181.89 272.69 183.22 C 273.01 185.09 273.25 186.98 273.48 188.87 C 263.18 189.41 256.53 198.69 251.88 206.88 C 242.86 213.79 234.45 221.43 225.92 228.92 C 218.66 234.95 211.72 241.37 205.00 247.99 C 205.12 248.44 205.36 249.34 205.48 249.79 L 204.78 249.47 C 204.06 249.14 203.34 248.82 202.61 248.51 C 203.46 246.99 204.39 245.51 205.06 243.90 C 205.72 241.06 205.55 237.83 203.39 235.65 C 199.20 231.23 192.30 231.19 186.76 232.46 C 182.95 236.35 178.30 239.15 173.33 241.32 C 169.53 234.20 166.46 226.70 163.63 219.14 C 162.41 219.28 161.20 219.43 159.98 219.58 C 163.07 227.17 166.39 234.66 169.63 242.18 C 166.69 242.31 163.75 242.42 160.82 242.76 C 159.46 242.91 158.11 243.14 156.75 243.33 C 146.43 244.80 135.98 244.93 125.65 246.27 C 132.91 254.88 138.45 264.83 146.11 273.11 C 146.56 273.54 147.46 274.40 147.91 274.83 C 149.22 274.51 150.52 274.21 151.84 273.93 C 144.08 277.16 139.52 285.82 139.65 294.03 C 139.41 308.83 139.97 323.62 140.34 338.41 C 140.40 360.68 140.59 382.95 140.61 405.23 C 145.81 405.80 151.11 406.65 156.33 405.85 C 156.37 406.08 156.45 406.54 156.49 406.78 C 156.15 406.86 155.47 407.02 155.13 407.09 C 151.30 406.54 147.44 406.72 143.60 406.82 C 143.70 412.08 143.71 417.35 143.82 422.62 C 145.69 423.67 147.45 424.90 149.25 426.07 C 148.21 427.86 146.29 428.68 144.47 429.43 C 135.48 433.02 127.07 437.85 118.61 442.52 C 114.66 444.77 109.99 445.61 106.30 448.33 C 103.36 450.91 104.34 455.32 104.28 458.80 C 92.88 458.52 81.38 458.52 70.10 460.38 C 70.11 460.96 70.12 462.12 70.13 462.70 C 76.30 464.28 82.71 464.20 89.03 464.58 C 102.15 465.35 115.38 464.74 128.41 466.49 C 123.59 466.92 118.26 466.51 114.25 469.73 C 110.73 471.72 108.51 476.60 103.96 476.10 C 99.98 475.64 96.37 473.72 92.62 472.43 C 92.54 471.35 92.47 470.28 92.40 469.21 C 85.93 468.58 78.84 468.45 73.18 472.15 C 68.35 473.83 62.37 472.46 58.35 476.34 C 55.83 477.89 57.03 480.99 57.08 483.38 C 57.04 485.96 58.35 488.16 59.49 490.36 C 60.98 495.02 64.92 498.25 67.16 502.52 C 65.80 503.72 64.45 504.93 63.11 506.15 C 64.52 507.47 65.95 508.78 67.36 510.12 C 67.39 510.59 67.47 511.53 67.51 512.00 L 0.00 512.00 L 0.00 0.00 Z" fill="#9c8883" opacity="1.00" stroke="#9c8883" stroke-width="0.25"/>
<path d="M 233.52 110.08 C 234.63 105.28 238.00 101.51 241.05 97.81 C 242.76 99.98 244.50 102.12 246.45 104.08 C 246.13 104.58 245.48 105.58 245.15 106.07 C 245.88 107.22 246.61 108.37 247.33 109.53 C 249.28 113.97 254.28 117.32 253.68 122.63 C 253.32 126.71 248.56 127.03 245.55 128.24 C 244.37 128.09 243.20 127.91 242.04 127.70 C 235.39 124.93 232.05 116.91 233.52 110.08 Z" fill="#00325b" opacity="1.00" stroke="#00325b" stroke-width="0.25"/>
<path d="M 249.37 104.07 C 258.22 99.99 269.74 100.31 276.86 107.59 C 273.15 107.60 270.38 104.59 266.80 103.92 C 271.23 107.06 275.56 110.35 279.03 114.57 C 279.61 114.52 280.77 114.40 281.35 114.35 C 281.52 114.57 281.87 115.02 282.05 115.24 C 284.85 115.62 287.84 115.38 290.44 116.67 C 294.58 118.78 297.51 123.29 297.36 128.00 C 297.24 132.40 295.84 136.62 295.27 140.97 C 294.41 147.37 294.22 153.85 294.09 160.31 C 292.10 157.04 288.90 154.65 287.20 151.21 C 288.68 147.95 289.39 144.34 288.74 140.79 C 287.73 135.44 278.60 133.19 276.55 138.95 C 276.29 143.91 277.47 148.81 278.55 153.62 C 278.13 154.37 277.71 155.12 277.30 155.87 C 275.20 152.04 275.19 147.51 273.42 143.61 C 270.78 140.39 268.08 136.93 268.06 132.54 C 267.77 129.82 267.60 127.08 267.32 124.36 C 266.53 124.52 264.96 124.83 264.17 124.99 C 265.61 122.53 265.67 119.72 264.57 117.12 C 266.13 117.67 267.70 118.20 269.29 118.70 C 266.68 114.83 262.34 112.85 258.82 109.99 C 264.01 111.39 267.95 115.33 273.01 117.01 C 269.71 112.99 264.79 110.97 260.78 107.82 C 265.36 108.64 268.93 111.74 272.92 113.89 C 273.18 112.99 273.44 112.10 273.69 111.20 C 268.97 105.89 261.52 106.04 255.07 105.00 C 256.12 105.68 257.16 106.36 258.22 107.04 C 255.79 106.76 253.36 106.47 250.93 106.20 C 250.54 105.67 249.76 104.60 249.37 104.07 Z" fill="#030d40" opacity="1.00" stroke="#030d40" stroke-width="0.25"/>
<path d="M 246.45 104.08 C 247.42 104.12 248.40 104.11 249.37 104.07 C 249.76 104.60 250.54 105.67 250.93 106.20 C 251.30 106.71 252.02 107.74 252.39 108.25 C 250.97 107.86 249.56 107.47 248.15 107.08 C 249.30 108.52 250.45 109.97 251.59 111.43 C 250.16 110.81 248.74 110.18 247.33 109.53 C 246.61 108.37 245.88 107.22 245.15 106.07 C 245.48 105.58 246.13 104.58 246.45 104.08 Z" fill="#0f4d79" opacity="1.00" stroke="#0f4d79" stroke-width="0.25"/>
<path d="M 266.80 103.92 C 270.38 104.59 273.15 107.60 276.86 107.59 C 278.87 109.45 280.18 111.90 281.35 114.35 C 280.77 114.40 279.61 114.52 279.03 114.57 C 275.56 110.35 271.23 107.06 266.80 103.92 Z" fill="#172354" opacity="1.00" stroke="#172354" stroke-width="0.25"/>
<path d="M 255.07 105.00 C 261.52 106.04 268.97 105.89 273.69 111.20 C 273.44 112.10 273.18 112.99 272.92 113.89 C 268.93 111.74 265.36 108.64 260.78 107.82 C 264.79 110.97 269.71 112.99 273.01 117.01 C 267.95 115.33 264.01 111.39 258.82 109.99 C 262.34 112.85 266.68 114.83 269.29 118.70 C 267.70 118.20 266.13 117.67 264.57 117.12 C 265.67 119.72 265.61 122.53 264.17 124.99 C 258.14 126.82 251.99 129.33 245.55 128.24 C 248.56 127.03 253.32 126.71 253.68 122.63 C 254.28 117.32 249.28 113.97 247.33 109.53 C 248.74 110.18 250.16 110.81 251.59 111.43 C 250.45 109.97 249.30 108.52 248.15 107.08 C 249.56 107.47 250.97 107.86 252.39 108.25 C 252.02 107.74 251.30 106.71 250.93 106.20 C 253.36 106.47 255.79 106.76 258.22 107.04 C 257.16 106.36 256.12 105.68 255.07 105.00 Z" fill="#002651" opacity="1.00" stroke="#002651" stroke-width="0.25"/>
<path d="M 245.55 128.24 C 251.99 129.33 258.14 126.82 264.17 124.99 C 264.96 124.83 266.53 124.52 267.32 124.36 C 267.60 127.08 267.77 129.82 268.06 132.54 C 266.58 132.15 265.12 131.77 263.66 131.38 C 261.61 133.81 259.99 136.57 259.04 139.62 C 258.09 139.29 257.14 138.95 256.18 138.66 C 255.65 138.78 254.59 139.01 254.06 139.13 C 252.73 139.48 251.27 139.76 250.46 141.02 C 251.27 142.03 252.19 142.97 253.13 143.87 C 254.12 146.21 254.00 148.74 253.40 151.16 C 252.48 154.77 254.19 158.76 252.13 162.10 C 250.88 163.95 251.56 166.10 252.09 168.07 C 252.38 167.94 252.97 167.68 253.27 167.55 C 254.70 166.90 256.12 166.22 257.53 165.51 C 257.48 166.84 257.63 168.39 256.49 169.35 C 254.50 171.53 252.97 174.26 250.17 175.55 C 248.53 173.02 247.29 170.24 246.61 167.31 C 243.50 154.20 241.40 140.86 239.99 127.47 C 240.50 127.53 241.53 127.64 242.04 127.70 C 243.20 127.91 244.37 128.09 245.55 128.24 Z" fill="#fbc7aa" opacity="1.00" stroke="#fbc7aa" stroke-width="0.25"/>
<path d="M 259.04 139.62 C 259.99 136.57 261.61 133.81 263.66 131.38 C 265.12 131.77 266.58 132.15 268.06 132.54 C 268.08 136.93 270.78 140.39 273.42 143.61 C 275.19 147.51 275.20 152.04 277.30 155.87 C 278.11 162.47 277.08 169.68 273.31 175.28 C 266.72 176.23 260.36 178.22 254.02 180.19 C 252.65 178.72 251.35 177.18 250.17 175.55 C 252.97 174.26 254.50 171.53 256.49 169.35 C 257.63 168.39 257.48 166.84 257.53 165.51 C 257.52 164.60 257.49 163.69 257.46 162.79 C 255.91 164.16 252.57 164.94 253.27 167.55 C 252.97 167.68 252.38 167.94 252.09 168.07 C 251.56 166.10 250.88 163.95 252.13 162.10 C 254.19 158.76 252.48 154.77 253.40 151.16 C 254.00 148.74 254.12 146.21 253.13 143.87 C 253.66 143.74 254.71 143.48 255.23 143.35 C 255.34 142.75 255.56 141.55 255.67 140.96 C 255.27 140.50 254.46 139.59 254.06 139.13 C 254.59 139.01 255.65 138.78 256.18 138.66 C 257.14 138.95 258.09 139.29 259.04 139.62 Z" fill="#fac0a2" opacity="1.00" stroke="#fac0a2" stroke-width="0.25"/>
<path d="M 276.55 138.95 C 278.60 133.19 287.73 135.44 288.74 140.79 C 289.39 144.34 288.68 147.95 287.20 151.21 C 284.32 152.05 281.45 152.89 278.55 153.62 C 277.47 148.81 276.29 143.91 276.55 138.95 Z" fill="#f6b394" opacity="1.00" stroke="#f6b394" stroke-width="0.25"/>
<path d="M 250.46 141.02 C 251.27 139.76 252.73 139.48 254.06 139.13 C 254.46 139.59 255.27 140.50 255.67 140.96 C 255.56 141.55 255.34 142.75 255.23 143.35 C 254.71 143.48 253.66 143.74 253.13 143.87 C 252.19 142.97 251.27 142.03 250.46 141.02 Z" fill="#07143c" opacity="1.00" stroke="#07143c" stroke-width="0.25"/>
<path d="M 278.55 153.62 C 281.45 152.89 284.32 152.05 287.20 151.21 C 288.90 154.65 292.10 157.04 294.09 160.31 C 295.71 164.04 297.11 167.90 297.64 171.96 C 289.02 172.72 281.53 177.18 273.79 180.60 C 273.24 179.17 272.83 177.69 272.54 176.20 L 273.31 175.28 C 277.08 169.68 278.11 162.47 277.30 155.87 C 277.71 155.12 278.13 154.37 278.55 153.62 Z" fill="#f9795c" opacity="1.00" stroke="#f9795c" stroke-width="0.25"/>
<path d="M 253.27 167.55 C 252.57 164.94 255.91 164.16 257.46 162.79 C 257.49 163.69 257.52 164.60 257.53 165.51 C 256.12 166.22 254.70 166.90 253.27 167.55 Z" fill="#dc9086" opacity="1.00" stroke="#dc9086" stroke-width="0.25"/>
<path d="M 337.00 172.94 C 339.74 169.85 344.27 169.98 348.05 169.86 C 361.01 170.66 374.01 169.87 386.99 170.39 C 389.25 170.37 391.37 171.24 393.31 172.35 C 392.67 184.89 388.30 196.80 385.04 208.82 C 383.59 213.11 382.60 218.85 377.79 220.62 C 370.83 221.69 363.75 220.93 356.74 221.18 C 354.70 213.43 352.05 205.88 349.58 198.27 C 352.25 198.51 355.89 199.54 357.54 196.65 C 359.20 193.57 358.81 186.86 354.02 187.30 C 349.56 187.69 345.60 193.29 349.03 197.18 C 344.16 194.70 339.74 191.31 334.46 189.67 C 333.11 189.11 331.78 188.50 330.52 187.77 C 332.83 182.89 333.58 177.24 337.00 172.94 Z" fill="#f13a3b" opacity="1.00" stroke="#f13a3b" stroke-width="0.25"/>
<path d="M 410.61 173.54 C 412.79 168.16 421.91 169.52 422.78 175.10 C 422.40 178.65 420.45 181.80 419.36 185.16 C 407.84 217.71 397.96 250.82 386.42 283.36 C 377.11 307.64 370.06 332.69 361.38 357.19 C 358.76 364.33 355.47 371.53 349.85 376.85 C 346.69 379.91 342.62 381.73 338.81 383.83 C 348.28 404.87 357.37 426.15 368.67 446.31 C 370.31 449.71 372.91 452.93 372.82 456.89 C 371.27 458.72 369.75 461.47 367.00 461.33 C 363.50 460.53 361.85 457.01 360.21 454.18 C 351.29 436.48 342.38 418.77 334.26 400.68 C 331.61 395.34 329.71 389.60 326.29 384.67 C 315.30 384.47 304.31 384.54 293.33 384.32 C 293.15 398.56 293.26 412.80 293.15 427.04 C 292.83 436.29 292.50 445.58 293.16 454.83 C 291.97 456.14 290.92 457.85 289.05 458.25 C 286.05 458.36 283.90 456.09 281.91 454.21 C 281.66 431.00 281.93 407.80 281.89 384.59 C 280.13 384.62 278.38 384.65 276.63 384.69 C 273.57 396.65 272.09 408.92 270.05 421.08 C 268.20 432.12 266.56 443.21 264.73 454.26 C 264.00 456.62 263.26 459.69 260.58 460.52 C 256.82 461.12 253.36 457.04 253.94 453.44 C 258.06 429.51 261.09 405.41 265.39 381.52 L 264.44 380.58 C 262.64 378.48 264.52 375.59 265.90 373.77 C 267.83 373.07 269.93 373.26 271.95 373.17 C 288.97 373.19 305.98 373.25 323.00 373.40 C 327.71 373.31 332.57 373.83 337.13 372.38 C 340.36 371.45 342.41 368.61 344.36 366.08 C 349.42 359.33 351.47 350.99 354.30 343.19 C 357.81 333.32 360.31 323.13 364.05 313.34 C 365.50 309.91 366.87 306.44 367.87 302.84 C 370.16 294.67 373.22 286.75 375.97 278.73 C 382.81 260.22 388.82 241.41 394.84 222.63 C 398.13 214.53 400.36 206.08 403.06 197.79 C 406.06 189.86 407.68 181.48 410.61 173.54 Z" fill="#051140" opacity="1.00" stroke="#051140" stroke-width="0.25"/>
<path d="M 273.79 180.60 C 281.53 177.18 289.02 172.72 297.64 171.96 C 297.90 173.76 298.17 175.55 298.36 177.36 C 294.03 177.71 290.26 180.07 286.11 181.18 C 281.84 182.86 277.25 183.31 272.69 183.22 C 272.41 181.89 272.08 180.57 271.71 179.27 C 271.33 179.14 270.56 178.90 270.18 178.77 C 270.99 177.94 271.77 177.08 272.54 176.20 C 272.83 177.69 273.24 179.17 273.79 180.60 Z" fill="#fc9675" opacity="1.00" stroke="#fc9675" stroke-width="0.25"/>
<path d="M 393.31 172.35 C 394.67 173.45 395.91 174.74 396.69 176.34 C 400.21 182.97 402.48 190.29 403.06 197.79 C 400.36 206.08 398.13 214.53 394.84 222.63 L 394.45 221.44 C 381.91 220.82 369.37 222.10 356.83 221.50 L 356.74 221.18 C 363.75 220.93 370.83 221.69 377.79 220.62 C 382.60 218.85 383.59 213.11 385.04 208.82 C 388.30 196.80 392.67 184.89 393.31 172.35 Z" fill="#72364c" opacity="1.00" stroke="#72364c" stroke-width="0.25"/>
<path d="M 254.02 180.19 C 260.36 178.22 266.72 176.23 273.31 175.28 L 272.54 176.20 C 271.77 177.08 270.99 177.94 270.18 178.77 C 265.13 180.38 258.65 184.94 254.02 180.19 Z" fill="#f8b58c" opacity="1.00" stroke="#f8b58c" stroke-width="0.25"/>
<path d="M 286.11 181.18 C 290.26 180.07 294.03 177.71 298.36 177.36 C 298.43 177.89 298.56 178.96 298.63 179.50 C 298.67 179.81 298.77 180.44 298.81 180.76 C 290.43 183.57 282.36 187.96 273.48 188.87 C 273.25 186.98 273.01 185.09 272.69 183.22 C 277.25 183.31 281.84 182.86 286.11 181.18 Z" fill="#fda28c" opacity="1.00" stroke="#fda28c" stroke-width="0.25"/>
<path d="M 298.63 179.50 C 305.46 178.25 312.50 179.05 319.12 181.02 C 323.37 182.41 326.82 185.37 330.52 187.77 C 331.78 188.50 333.11 189.11 334.46 189.67 C 334.40 193.34 334.20 197.07 335.11 200.67 C 331.82 199.70 328.38 199.56 324.99 199.97 C 317.92 191.50 307.05 187.84 298.81 180.76 C 298.77 180.44 298.67 179.81 298.63 179.50 Z" fill="#f98c17" opacity="1.00" stroke="#f98c17" stroke-width="0.25"/>
<path d="M 273.48 188.87 C 282.36 187.96 290.43 183.57 298.81 180.76 C 307.05 187.84 317.92 191.50 324.99 199.97 C 323.15 208.07 322.65 216.38 321.15 224.53 C 319.60 234.87 317.32 245.12 314.19 255.10 C 311.82 262.72 308.46 269.96 305.44 277.33 C 305.19 277.25 304.69 277.11 304.44 277.03 C 296.54 274.12 288.12 273.14 280.07 270.84 C 273.24 268.99 271.10 259.93 263.65 259.61 C 259.38 259.18 255.09 259.39 250.81 259.30 C 251.09 254.97 250.72 250.64 250.61 246.31 C 250.07 233.17 250.19 219.94 251.88 206.88 C 256.53 198.69 263.18 189.41 273.48 188.87 Z" fill="#fdc03e" opacity="1.00" stroke="#fdc03e" stroke-width="0.25"/>
<path d="M 349.03 197.18 C 345.60 193.29 349.56 187.69 354.02 187.30 C 358.81 186.86 359.20 193.57 357.54 196.65 C 355.89 199.54 352.25 198.51 349.58 198.27 C 349.44 198.00 349.17 197.45 349.03 197.18 Z" fill="#0b0e44" opacity="1.00" stroke="#0b0e44" stroke-width="0.25"/>
<path d="M 334.46 189.67 C 339.74 191.31 344.16 194.70 349.03 197.18 C 349.17 197.45 349.44 198.00 349.58 198.27 C 352.05 205.88 354.70 213.43 356.74 221.18 L 356.83 221.50 C 357.98 226.25 359.83 230.77 361.40 235.39 C 360.39 237.31 359.46 239.27 358.55 241.24 C 357.58 240.67 356.60 240.10 355.63 239.53 C 352.38 241.60 349.47 244.61 345.53 245.26 C 342.12 230.38 339.07 215.40 335.11 200.67 C 334.20 197.07 334.40 193.34 334.46 189.67 Z" fill="#f56410" opacity="1.00" stroke="#f56410" stroke-width="0.25"/>
<path d="M 324.99 199.97 C 328.38 199.56 331.82 199.70 335.11 200.67 C 339.07 215.40 342.12 230.38 345.53 245.26 C 347.33 253.76 349.26 262.32 349.75 271.02 C 349.95 276.01 349.64 281.44 346.65 285.65 C 345.01 287.85 342.19 288.39 339.69 289.03 C 338.37 288.28 337.04 287.53 335.72 286.80 L 335.70 285.68 C 335.68 284.37 335.66 283.07 335.64 281.78 C 336.08 279.16 336.28 276.50 336.12 273.85 C 335.88 269.46 333.95 265.44 332.72 261.29 C 329.02 249.00 326.54 236.23 321.15 224.53 C 322.65 216.38 323.15 208.07 324.99 199.97 Z" fill="#fcab31" opacity="1.00" stroke="#fcab31" stroke-width="0.25"/>
<path d="M 225.92 228.92 C 234.45 221.43 242.86 213.79 251.88 206.88 C 250.19 219.94 250.07 233.17 250.61 246.31 C 243.77 252.15 236.63 257.63 229.88 263.58 C 229.43 263.46 228.55 263.21 228.11 263.09 C 220.30 259.11 213.37 253.61 205.48 249.79 C 205.36 249.34 205.12 248.44 205.00 247.99 C 211.72 241.37 218.66 234.95 225.92 228.92 Z" fill="#f97206" opacity="1.00" stroke="#f97206" stroke-width="0.25"/>
<path d="M 159.98 219.58 C 161.20 219.43 162.41 219.28 163.63 219.14 C 166.46 226.70 169.53 234.20 173.33 241.32 C 173.74 242.06 174.17 242.80 174.59 243.54 C 173.35 243.63 172.10 243.72 170.86 243.82 C 170.43 243.28 170.02 242.74 169.63 242.18 C 166.39 234.66 163.07 227.17 159.98 219.58 Z" fill="#fcfafa" opacity="1.00" stroke="#fcfafa" stroke-width="0.25"/>
<path d="M 356.83 221.50 C 369.37 222.10 381.91 220.82 394.45 221.44 L 394.84 222.63 C 388.82 241.41 382.81 260.22 375.97 278.73 C 375.31 274.44 374.20 270.24 372.82 266.14 C 371.09 260.82 368.56 255.83 366.21 250.78 C 364.31 245.74 363.04 240.51 361.40 235.39 C 359.83 230.77 357.98 226.25 356.83 221.50 Z" fill="#9a8885" opacity="1.00" stroke="#9a8885" stroke-width="0.25"/>
<path d="M 321.15 224.53 C 326.54 236.23 329.02 249.00 332.72 261.29 C 333.95 265.44 335.88 269.46 336.12 273.85 C 334.73 277.34 332.43 280.35 330.32 283.43 C 331.58 283.76 332.83 284.10 334.09 284.45 C 334.61 283.56 335.13 282.67 335.64 281.78 C 335.66 283.07 335.68 284.37 335.70 285.68 C 325.43 283.57 315.59 279.90 305.44 277.33 C 308.46 269.96 311.82 262.72 314.19 255.10 C 317.32 245.12 319.60 234.87 321.15 224.53 Z" fill="#f26a10" opacity="1.00" stroke="#f26a10" stroke-width="0.25"/>
<path d="M 186.76 232.46 C 192.30 231.19 199.20 231.23 203.39 235.65 C 205.55 237.83 205.72 241.06 205.06 243.90 C 204.95 242.00 204.75 240.11 204.58 238.22 C 202.32 237.46 200.03 236.78 197.68 236.34 C 195.88 237.16 193.42 237.54 192.56 239.57 C 190.56 244.64 192.14 250.07 192.74 255.25 C 189.09 251.24 188.31 245.68 186.34 240.82 C 184.82 243.66 186.40 247.09 185.94 250.17 C 184.60 249.62 183.26 249.06 181.93 248.51 C 181.99 248.87 182.12 249.58 182.19 249.94 L 180.39 251.21 C 180.26 249.17 180.03 247.14 179.77 245.11 C 181.53 243.30 183.19 241.38 185.18 239.81 C 186.85 239.98 188.33 240.86 189.87 241.49 C 191.33 238.80 193.81 236.60 195.41 234.19 C 193.18 232.55 189.53 233.07 186.76 232.46 Z" fill="#fbbc9d" opacity="1.00" stroke="#fbbc9d" stroke-width="0.25"/>
<path d="M 173.33 241.32 C 178.30 239.15 182.95 236.35 186.76 232.46 C 189.53 233.07 193.18 232.55 195.41 234.19 C 193.81 236.60 191.33 238.80 189.87 241.49 C 188.33 240.86 186.85 239.98 185.18 239.81 C 183.19 241.38 181.53 243.30 179.77 245.11 C 179.24 243.76 178.59 242.34 177.19 241.69 C 177.69 245.70 179.05 249.69 178.14 253.76 C 176.84 251.54 175.40 249.42 173.81 247.41 C 172.84 246.19 171.83 245.01 170.86 243.82 C 172.10 243.72 173.35 243.63 174.59 243.54 C 174.17 242.80 173.74 242.06 173.33 241.32 Z" fill="#fcd0b2" opacity="1.00" stroke="#fcd0b2" stroke-width="0.25"/>
<path d="M 361.40 235.39 C 363.04 240.51 364.31 245.74 366.21 250.78 C 367.67 257.52 368.86 264.38 368.85 271.31 C 368.39 280.24 366.38 289.51 360.66 296.63 C 356.41 301.87 350.94 307.20 343.78 307.55 C 339.06 307.65 334.34 307.38 329.65 306.83 C 328.96 308.43 328.30 310.04 327.79 311.71 C 323.95 311.99 320.05 311.53 316.86 309.21 C 316.22 309.63 314.95 310.48 314.31 310.90 C 313.56 310.67 312.80 310.45 312.05 310.24 C 312.41 310.11 313.13 309.83 313.48 309.69 C 313.17 309.28 312.54 308.45 312.22 308.03 C 313.40 307.42 314.58 306.81 315.77 306.21 C 311.57 303.18 306.07 302.32 302.33 298.71 C 304.24 299.26 306.17 299.73 308.10 300.24 C 316.86 302.22 325.20 306.13 334.26 306.66 C 336.41 300.90 339.32 295.27 339.69 289.03 C 342.19 288.39 345.01 287.85 346.65 285.65 C 349.64 281.44 349.95 276.01 349.75 271.02 C 349.26 262.32 347.33 253.76 345.53 245.26 C 349.47 244.61 352.38 241.60 355.63 239.53 C 356.60 240.10 357.58 240.67 358.55 241.24 C 359.46 239.27 360.39 237.31 361.40 235.39 Z" fill="#ea5911" opacity="1.00" stroke="#ea5911" stroke-width="0.25"/>
<path d="M 192.56 239.57 C 193.42 237.54 195.88 237.16 197.68 236.34 C 196.80 238.57 196.30 240.92 196.06 243.30 C 195.01 243.09 193.97 242.88 192.92 242.69 C 192.97 243.08 193.07 243.85 193.12 244.24 C 193.38 250.45 195.26 256.43 195.76 262.62 C 195.63 263.31 195.37 264.71 195.24 265.40 C 192.93 265.67 190.60 265.84 188.28 265.99 C 186.88 263.64 185.59 261.18 185.09 258.47 C 184.57 255.49 183.45 252.67 182.19 249.94 C 182.12 249.58 181.99 248.87 181.93 248.51 C 183.26 249.06 184.60 249.62 185.94 250.17 C 186.40 247.09 184.82 243.66 186.34 240.82 C 188.31 245.68 189.09 251.24 192.74 255.25 C 192.14 250.07 190.56 244.64 192.56 239.57 Z" fill="#f98b70" opacity="1.00" stroke="#f98b70" stroke-width="0.25"/>
<path d="M 197.68 236.34 C 200.03 236.78 202.32 237.46 204.58 238.22 C 204.75 240.11 204.95 242.00 205.06 243.90 C 204.39 245.51 203.46 246.99 202.61 248.51 C 201.02 247.81 199.42 247.11 197.83 246.41 C 196.25 245.71 194.66 245.00 193.12 244.24 C 193.07 243.85 192.97 243.08 192.92 242.69 C 193.97 242.88 195.01 243.09 196.06 243.30 C 196.30 240.92 196.80 238.57 197.68 236.34 Z" fill="#e68270" opacity="1.00" stroke="#e68270" stroke-width="0.25"/>
<path d="M 160.82 242.76 C 163.75 242.42 166.69 242.31 169.63 242.18 C 170.02 242.74 170.43 243.28 170.86 243.82 C 171.83 245.01 172.84 246.19 173.81 247.41 C 173.79 249.32 173.79 251.23 173.72 253.14 C 173.33 256.21 172.48 259.20 171.74 262.20 C 170.77 260.72 169.79 259.24 168.84 257.76 C 167.02 253.81 165.10 249.86 164.12 245.59 C 165.66 244.88 167.65 244.51 168.25 242.63 C 165.77 242.58 163.29 242.58 160.82 242.76 Z" fill="#fab497" opacity="1.00" stroke="#fab497" stroke-width="0.25"/>
<path d="M 177.19 241.69 C 178.59 242.34 179.24 243.76 179.77 245.11 C 180.03 247.14 180.26 249.17 180.39 251.21 C 179.43 256.18 182.16 261.18 180.57 266.00 C 177.38 265.71 173.27 265.59 171.74 262.20 C 172.48 259.20 173.33 256.21 173.72 253.14 C 175.15 253.80 176.57 254.45 178.01 255.10 C 178.04 254.77 178.10 254.09 178.14 253.76 C 179.05 249.69 177.69 245.70 177.19 241.69 Z" fill="#fb8e6d" opacity="1.00" stroke="#fb8e6d" stroke-width="0.25"/>
<path d="M 156.75 243.33 C 158.11 243.14 159.46 242.91 160.82 242.76 C 163.29 242.58 165.77 242.58 168.25 242.63 C 167.65 244.51 165.66 244.88 164.12 245.59 C 161.57 246.19 159.32 248.57 159.81 251.32 C 161.23 258.71 159.50 266.15 158.00 273.37 C 155.94 273.46 153.87 273.53 151.84 273.93 C 150.52 274.21 149.22 274.51 147.91 274.83 C 147.46 274.40 146.56 273.54 146.11 273.11 C 148.02 269.19 150.32 265.36 151.12 261.02 C 152.18 256.51 152.30 251.84 153.41 247.35 C 154.80 245.75 157.01 245.18 158.83 244.17 C 158.31 243.96 157.27 243.54 156.75 243.33 Z" fill="#f0f1f2" opacity="1.00" stroke="#f0f1f2" stroke-width="0.25"/>
<path d="M 125.65 246.27 C 135.98 244.93 146.43 244.80 156.75 243.33 C 157.27 243.54 158.31 243.96 158.83 244.17 C 157.01 245.18 154.80 245.75 153.41 247.35 C 152.30 251.84 152.18 256.51 151.12 261.02 C 150.32 265.36 148.02 269.19 146.11 273.11 C 138.45 264.83 132.91 254.88 125.65 246.27 Z" fill="#fcfcfc" opacity="1.00" stroke="#fcfcfc" stroke-width="0.25"/>
<path d="M 159.81 251.32 C 159.32 248.57 161.57 246.19 164.12 245.59 C 165.10 249.86 167.02 253.81 168.84 257.76 C 170.60 262.40 172.37 267.93 177.25 270.16 C 178.27 270.63 179.30 271.09 180.34 271.55 C 180.39 271.94 180.49 272.73 180.55 273.12 C 173.04 272.88 165.52 273.41 158.00 273.37 C 159.50 266.15 161.23 258.71 159.81 251.32 Z" fill="#e6e9ea" opacity="1.00" stroke="#e6e9ea" stroke-width="0.25"/>
<path d="M 193.12 244.24 C 194.66 245.00 196.25 245.71 197.83 246.41 C 197.12 249.26 196.35 252.37 197.94 255.09 C 200.56 260.06 202.11 265.52 202.39 271.15 C 202.21 271.90 201.85 273.40 201.67 274.15 C 201.45 274.03 201.00 273.78 200.77 273.65 C 200.67 269.50 200.51 264.17 195.76 262.62 C 195.26 256.43 193.38 250.45 193.12 244.24 Z" fill="#b2bebd" opacity="1.00" stroke="#b2bebd" stroke-width="0.25"/>
<path d="M 197.94 255.09 C 196.35 252.37 197.12 249.26 197.83 246.41 C 199.42 247.11 201.02 247.81 202.61 248.51 C 203.34 248.82 204.06 249.14 204.78 249.47 C 204.59 256.74 204.33 264.09 202.39 271.15 C 202.11 265.52 200.56 260.06 197.94 255.09 Z" fill="#bfcccb" opacity="1.00" stroke="#bfcccb" stroke-width="0.25"/>
<path d="M 229.88 263.58 C 236.63 257.63 243.77 252.15 250.61 246.31 C 250.72 250.64 251.09 254.97 250.81 259.30 C 248.04 259.78 244.48 260.25 243.22 263.16 C 243.26 264.40 243.32 265.64 243.41 266.88 C 243.05 267.49 242.33 268.72 241.98 269.33 C 241.90 269.50 241.74 269.85 241.66 270.02 C 236.91 268.19 232.67 265.31 228.11 263.09 C 228.55 263.21 229.43 263.46 229.88 263.58 Z" fill="#041552" opacity="1.00" stroke="#041552" stroke-width="0.25"/>
<path d="M 173.81 247.41 C 175.40 249.42 176.84 251.54 178.14 253.76 C 178.10 254.09 178.04 254.77 178.01 255.10 C 176.57 254.45 175.15 253.80 173.72 253.14 C 173.79 251.23 173.79 249.32 173.81 247.41 Z" fill="#dd7677" opacity="1.00" stroke="#dd7677" stroke-width="0.25"/>
<path d="M 204.78 249.47 L 205.48 249.79 C 213.37 253.61 220.30 259.11 228.11 263.09 C 232.67 265.31 236.91 268.19 241.66 270.02 C 241.83 271.00 242.04 271.96 242.31 272.92 C 241.32 276.98 240.33 282.19 243.42 285.56 C 237.26 286.52 231.59 282.75 225.63 281.71 C 218.13 279.43 210.89 276.26 203.18 274.71 C 202.80 274.57 202.05 274.29 201.67 274.15 C 201.85 273.40 202.21 271.90 202.39 271.15 C 204.33 264.09 204.59 256.74 204.78 249.47 Z" fill="#fdfdfd" opacity="1.00" stroke="#fdfdfd" stroke-width="0.25"/>
<path d="M 180.39 251.21 L 182.19 249.94 C 183.45 252.67 184.57 255.49 185.09 258.47 C 182.71 260.13 182.21 262.96 181.56 265.58 C 181.31 265.68 180.82 265.90 180.57 266.00 C 182.16 261.18 179.43 256.18 180.39 251.21 Z" fill="#ceaea7" opacity="1.00" stroke="#ceaea7" stroke-width="0.25"/>
<path d="M 366.21 250.78 C 368.56 255.83 371.09 260.82 372.82 266.14 C 371.59 267.93 370.26 269.65 368.85 271.31 C 368.86 264.38 367.67 257.52 366.21 250.78 Z" fill="#872f58" opacity="1.00" stroke="#872f58" stroke-width="0.25"/>
<path d="M 168.84 257.76 C 169.79 259.24 170.77 260.72 171.74 262.20 C 173.27 265.59 177.38 265.71 180.57 266.00 C 180.82 265.90 181.31 265.68 181.56 265.58 C 182.21 262.96 182.71 260.13 185.09 258.47 C 185.59 261.18 186.88 263.64 188.28 265.99 C 185.03 268.36 181.11 269.33 177.25 270.16 C 172.37 267.93 170.60 262.40 168.84 257.76 Z" fill="#b0b4b3" opacity="1.00" stroke="#b0b4b3" stroke-width="0.25"/>
<path d="M 243.22 263.16 C 244.48 260.25 248.04 259.78 250.81 259.30 C 255.09 259.39 259.38 259.18 263.65 259.61 C 271.10 259.93 273.24 268.99 280.07 270.84 C 288.12 273.14 296.54 274.12 304.44 277.03 C 303.45 281.46 304.40 286.40 302.53 290.54 C 299.28 292.45 294.66 290.78 292.04 288.31 C 286.95 287.18 281.67 287.02 276.64 285.55 C 272.03 284.66 267.75 281.12 262.88 282.94 C 258.27 284.46 253.23 285.34 248.77 282.81 C 248.64 281.93 248.52 281.05 248.40 280.18 C 249.22 279.08 250.06 277.98 250.89 276.88 C 249.21 277.59 247.54 278.33 245.87 279.06 C 245.00 277.62 244.72 276.02 244.77 274.36 C 247.42 272.48 250.13 270.69 252.95 269.07 C 249.39 267.66 246.24 270.87 242.82 270.41 L 241.98 269.33 C 242.33 268.72 243.05 267.49 243.41 266.88 C 243.32 265.64 243.26 264.40 243.22 263.16 Z" fill="#fac0a5" opacity="1.00" stroke="#fac0a5" stroke-width="0.25"/>
<path d="M 195.76 262.62 C 200.51 264.17 200.67 269.50 200.77 273.65 C 201.00 273.78 201.45 274.03 201.67 274.15 C 202.05 274.29 202.80 274.57 203.18 274.71 C 198.61 274.23 194.02 274.04 189.44 274.32 C 186.44 274.19 183.50 273.56 180.55 273.12 C 180.49 272.73 180.39 271.94 180.34 271.55 C 179.30 271.09 178.27 270.63 177.25 270.16 C 181.11 269.33 185.03 268.36 188.28 265.99 C 190.60 265.84 192.93 265.67 195.24 265.40 C 195.37 264.71 195.63 263.31 195.76 262.62 Z" fill="#a1abae" opacity="1.00" stroke="#a1abae" stroke-width="0.25"/>
<path d="M 368.85 271.31 C 370.26 269.65 371.59 267.93 372.82 266.14 C 374.20 270.24 375.31 274.44 375.97 278.73 C 373.22 286.75 370.16 294.67 367.87 302.84 C 366.87 306.44 365.50 309.91 364.05 313.34 C 356.36 313.63 348.65 313.54 341.01 312.58 C 341.90 310.88 342.84 309.22 343.78 307.55 C 350.94 307.20 356.41 301.87 360.66 296.63 C 366.38 289.51 368.39 280.24 368.85 271.31 Z" fill="#66344a" opacity="1.00" stroke="#66344a" stroke-width="0.25"/>
<path d="M 242.82 270.41 C 246.24 270.87 249.39 267.66 252.95 269.07 C 250.13 270.69 247.42 272.48 244.77 274.36 C 244.16 274.00 242.93 273.28 242.31 272.92 C 242.04 271.96 241.83 271.00 241.66 270.02 C 241.74 269.85 241.90 269.50 241.98 269.33 L 242.82 270.41 Z" fill="#f57a5f" opacity="1.00" stroke="#f57a5f" stroke-width="0.25"/>
<path d="M 151.84 273.93 C 153.87 273.53 155.94 273.46 158.00 273.37 C 165.52 273.41 173.04 272.88 180.55 273.12 C 183.50 273.56 186.44 274.19 189.44 274.32 L 189.50 275.18 C 184.17 275.19 178.23 273.60 173.34 276.35 C 168.51 281.06 165.40 287.48 164.38 294.13 C 163.13 302.24 163.42 310.49 162.59 318.64 C 162.28 329.95 160.46 341.20 160.78 352.52 C 160.58 354.83 160.27 357.13 160.11 359.44 C 159.20 355.82 158.55 351.83 155.46 349.33 C 152.49 351.03 149.18 351.93 145.75 351.74 C 145.10 352.38 144.45 353.03 143.81 353.69 C 140.85 349.00 143.53 342.97 140.34 338.41 C 139.97 323.62 139.41 308.83 139.65 294.03 C 139.52 285.82 144.08 277.16 151.84 273.93 Z" fill="#005174" opacity="1.00" stroke="#005174" stroke-width="0.25"/>
<path d="M 242.31 272.92 C 242.93 273.28 244.16 274.00 244.77 274.36 C 244.72 276.02 245.00 277.62 245.87 279.06 C 247.54 278.33 249.21 277.59 250.89 276.88 C 250.06 277.98 249.22 279.08 248.40 280.18 C 248.52 281.05 248.64 281.93 248.77 282.81 C 248.38 282.65 247.59 282.33 247.20 282.17 C 246.35 283.46 245.50 284.76 244.65 286.06 C 244.34 285.93 243.73 285.68 243.42 285.56 C 240.33 282.19 241.32 276.98 242.31 272.92 Z" fill="#f89871" opacity="1.00" stroke="#f89871" stroke-width="0.25"/>
<path d="M 189.44 274.32 C 194.02 274.04 198.61 274.23 203.18 274.71 C 210.89 276.26 218.13 279.43 225.63 281.71 C 225.07 282.14 223.95 283.00 223.38 283.42 C 212.11 280.64 201.03 276.77 189.50 275.18 L 189.44 274.32 Z" fill="#889398" opacity="1.00" stroke="#889398" stroke-width="0.25"/>
<path d="M 330.32 283.43 C 332.43 280.35 334.73 277.34 336.12 273.85 C 336.28 276.50 336.08 279.16 335.64 281.78 C 335.13 282.67 334.61 283.56 334.09 284.45 C 332.83 284.10 331.58 283.76 330.32 283.43 Z" fill="#4c3735" opacity="1.00" stroke="#4c3735" stroke-width="0.25"/>
<path d="M 173.34 276.35 C 178.23 273.60 184.17 275.19 189.50 275.18 C 201.03 276.77 212.11 280.64 223.38 283.42 C 235.70 286.96 248.06 290.38 260.37 293.93 C 260.56 293.99 260.93 294.12 261.12 294.19 C 261.82 296.02 262.57 297.84 263.34 299.65 C 260.64 303.18 255.91 303.11 252.29 305.13 C 249.10 306.85 244.79 307.48 243.07 311.06 C 241.41 313.80 240.25 316.84 238.27 319.38 C 236.25 321.56 232.89 322.50 231.95 325.59 C 227.47 325.68 222.95 325.24 218.53 326.17 C 209.82 320.81 200.78 315.96 192.31 310.22 C 191.80 312.99 191.36 315.78 191.11 318.60 C 190.61 320.36 190.03 322.09 189.47 323.84 C 189.20 322.70 188.93 321.58 188.68 320.45 C 186.47 325.17 180.89 328.26 181.31 334.03 C 179.77 335.35 178.53 336.95 177.98 338.93 C 177.45 338.12 176.91 337.32 176.37 336.53 C 172.10 341.43 171.32 348.31 167.56 353.55 C 165.99 355.33 164.15 356.84 162.44 358.47 C 161.91 356.48 161.35 354.50 160.78 352.52 C 160.46 341.20 162.28 329.95 162.59 318.64 C 163.42 310.49 163.13 302.24 164.38 294.13 C 165.40 287.48 168.51 281.06 173.34 276.35 Z" fill="#002c51" opacity="1.00" stroke="#002c51" stroke-width="0.25"/>
<path d="M 304.44 277.03 C 304.69 277.11 305.19 277.25 305.44 277.33 C 315.59 279.90 325.43 283.57 335.70 285.68 L 335.72 286.80 C 334.04 290.75 331.22 294.70 326.81 295.77 C 320.53 297.24 314.03 297.39 307.63 298.04 C 302.27 297.05 297.62 293.91 292.27 292.92 C 292.20 291.38 292.13 289.84 292.04 288.31 C 294.66 290.78 299.28 292.45 302.53 290.54 C 304.40 286.40 303.45 281.46 304.44 277.03 Z" fill="#fdbe4b" opacity="1.00" stroke="#fdbe4b" stroke-width="0.25"/>
<path d="M 223.38 283.42 C 223.95 283.00 225.07 282.14 225.63 281.71 C 231.59 282.75 237.26 286.52 243.42 285.56 C 243.73 285.68 244.34 285.93 244.65 286.06 C 246.32 286.73 247.99 287.45 249.52 288.41 C 252.88 290.73 256.69 292.22 260.37 293.93 C 248.06 290.38 235.70 286.96 223.38 283.42 Z" fill="#b2c2cd" opacity="1.00" stroke="#b2c2cd" stroke-width="0.25"/>
<path d="M 247.20 282.17 C 247.59 282.33 248.38 282.65 248.77 282.81 C 253.23 285.34 258.27 284.46 262.88 282.94 C 267.75 281.12 272.03 284.66 276.64 285.55 C 281.67 287.02 286.95 287.18 292.04 288.31 C 292.13 289.84 292.20 291.38 292.27 292.92 C 291.58 292.87 290.21 292.77 289.52 292.72 C 289.94 291.62 290.36 290.51 290.79 289.41 C 285.08 288.43 279.27 287.93 273.69 286.31 C 270.90 285.55 268.00 284.55 265.09 285.32 C 259.94 286.53 254.76 287.64 249.52 288.41 C 247.99 287.45 246.32 286.73 244.65 286.06 C 245.50 284.76 246.35 283.46 247.20 282.17 Z" fill="#f9812c" opacity="1.00" stroke="#f9812c" stroke-width="0.25"/>
<path d="M 249.52 288.41 C 254.76 287.64 259.94 286.53 265.09 285.32 C 268.00 284.55 270.90 285.55 273.69 286.31 C 279.27 287.93 285.08 288.43 290.79 289.41 C 290.36 290.51 289.94 291.62 289.52 292.72 C 290.21 292.77 291.58 292.87 292.27 292.92 C 297.62 293.91 302.27 297.05 307.63 298.04 C 307.75 298.59 307.98 299.69 308.10 300.24 C 306.17 299.73 304.24 299.26 302.33 298.71 C 299.43 297.41 296.42 296.39 293.36 295.57 C 292.81 295.41 292.27 295.24 291.73 295.08 C 291.41 297.04 290.66 298.88 289.39 300.41 C 290.09 301.53 290.81 302.65 291.52 303.77 C 281.32 300.78 271.21 297.52 261.12 294.19 C 260.93 294.12 260.56 293.99 260.37 293.93 C 256.69 292.22 252.88 290.73 249.52 288.41 Z" fill="#faad2f" opacity="1.00" stroke="#faad2f" stroke-width="0.25"/>
<path d="M 335.72 286.80 C 337.04 287.53 338.37 288.28 339.69 289.03 C 339.32 295.27 336.41 300.90 334.26 306.66 C 325.20 306.13 316.86 302.22 308.10 300.24 C 307.98 299.69 307.75 298.59 307.63 298.04 C 314.03 297.39 320.53 297.24 326.81 295.77 C 331.22 294.70 334.04 290.75 335.72 286.80 Z" fill="#fcb741" opacity="1.00" stroke="#fcb741" stroke-width="0.25"/>
<path d="M 261.12 294.19 C 271.21 297.52 281.32 300.78 291.52 303.77 C 294.57 304.66 297.57 305.70 300.57 306.72 C 304.39 307.92 308.19 309.17 312.05 310.24 C 312.80 310.45 313.56 310.67 314.31 310.90 C 316.13 311.64 317.97 312.45 319.50 313.72 C 320.98 320.11 318.93 326.98 314.72 331.93 C 309.17 338.53 302.11 343.94 294.05 347.07 C 288.63 349.42 282.56 348.71 276.82 349.37 C 272.66 349.29 268.51 349.36 264.36 349.52 C 253.97 346.44 244.62 340.83 235.09 335.82 C 229.60 332.56 223.94 329.58 218.53 326.17 C 222.95 325.24 227.47 325.68 231.95 325.59 C 232.89 322.50 236.25 321.56 238.27 319.38 C 240.25 316.84 241.41 313.80 243.07 311.06 C 244.79 307.48 249.10 306.85 252.29 305.13 C 255.91 303.11 260.64 303.18 263.34 299.65 C 262.57 297.84 261.82 296.02 261.12 294.19 Z" fill="#00264c" opacity="1.00" stroke="#00264c" stroke-width="0.25"/>
<path d="M 291.73 295.08 C 292.27 295.24 292.81 295.41 293.36 295.57 C 294.56 298.29 298.07 298.63 300.36 300.14 C 299.94 302.33 299.93 304.56 300.57 306.72 C 297.57 305.70 294.57 304.66 291.52 303.77 C 290.81 302.65 290.09 301.53 289.39 300.41 C 290.66 298.88 291.41 297.04 291.73 295.08 Z" fill="#fb951e" opacity="1.00" stroke="#fb951e" stroke-width="0.25"/>
<path d="M 300.36 300.14 C 298.07 298.63 294.56 298.29 293.36 295.57 C 296.42 296.39 299.43 297.41 302.33 298.71 C 306.07 302.32 311.57 303.18 315.77 306.21 C 314.58 306.81 313.40 307.42 312.22 308.03 C 312.54 308.45 313.17 309.28 313.48 309.69 C 313.13 309.83 312.41 310.11 312.05 310.24 C 308.19 309.17 304.39 307.92 300.57 306.72 C 299.93 304.56 299.94 302.33 300.36 300.14 Z" fill="#f37c11" opacity="1.00" stroke="#f37c11" stroke-width="0.25"/>
<path d="M 329.65 306.83 C 334.34 307.38 339.06 307.65 343.78 307.55 C 342.84 309.22 341.90 310.88 341.01 312.58 C 337.97 318.57 335.77 324.93 333.34 331.18 C 330.88 337.56 328.23 343.87 326.07 350.37 C 322.40 350.18 318.73 349.98 315.07 349.97 C 317.41 344.95 318.93 339.63 320.64 334.38 C 323.36 326.94 325.51 319.30 327.79 311.71 C 328.30 310.04 328.96 308.43 329.65 306.83 Z" fill="#04103f" opacity="1.00" stroke="#04103f" stroke-width="0.25"/>
<path d="M 191.11 318.60 C 191.36 315.78 191.80 312.99 192.31 310.22 C 200.78 315.96 209.82 320.81 218.53 326.17 C 223.94 329.58 229.60 332.56 235.09 335.82 C 244.62 340.83 253.97 346.44 264.36 349.52 C 262.40 349.61 260.44 349.73 258.48 349.73 C 249.38 349.45 240.27 349.25 231.17 349.70 C 223.16 349.98 215.14 350.53 207.13 350.18 C 200.65 348.01 195.12 343.89 189.23 340.55 C 189.43 333.19 191.66 326.00 191.11 318.60 Z" fill="#010f3a" opacity="1.00" stroke="#010f3a" stroke-width="0.25"/>
<path d="M 314.31 310.90 C 314.95 310.48 316.22 309.63 316.86 309.21 C 320.05 311.53 323.95 311.99 327.79 311.71 C 325.51 319.30 323.36 326.94 320.64 334.38 C 319.98 333.34 319.32 332.30 318.66 331.26 C 317.56 332.02 316.45 332.77 315.35 333.53 C 315.19 333.13 314.88 332.33 314.72 331.93 C 318.93 326.98 320.98 320.11 319.50 313.72 C 317.97 312.45 316.13 311.64 314.31 310.90 Z" fill="#cf3c29" opacity="1.00" stroke="#cf3c29" stroke-width="0.25"/>
<path d="M 333.34 331.18 C 335.77 324.93 337.97 318.57 341.01 312.58 C 348.65 313.54 356.36 313.63 364.05 313.34 C 360.31 323.13 357.81 333.32 354.30 343.19 C 351.47 350.99 349.42 359.33 344.36 366.08 C 345.20 362.30 343.31 358.57 341.43 355.43 C 337.58 351.18 331.41 350.78 326.07 350.37 C 328.23 343.87 330.88 337.56 333.34 331.18 Z" fill="#9d8885" opacity="1.00" stroke="#9d8885" stroke-width="0.25"/>
<path d="M 189.47 323.84 C 190.03 322.09 190.61 320.36 191.11 318.60 C 191.66 326.00 189.43 333.19 189.23 340.55 C 188.10 349.90 186.99 359.26 186.31 368.66 C 184.98 385.65 182.45 402.58 182.41 419.64 C 180.22 419.66 178.04 419.66 175.87 419.65 C 171.79 419.59 167.70 419.32 163.63 419.74 C 163.53 419.52 163.33 419.07 163.23 418.84 C 161.40 419.04 159.57 419.22 157.74 419.41 C 157.58 415.53 157.82 411.64 157.43 407.78 C 157.20 407.53 156.73 407.03 156.49 406.78 C 156.45 406.54 156.37 406.08 156.33 405.85 C 151.11 406.65 145.81 405.80 140.61 405.23 C 146.18 404.13 151.86 404.74 157.49 404.62 C 157.85 397.74 158.97 390.91 158.98 384.01 C 159.04 375.80 160.57 367.65 160.11 359.44 C 160.27 357.13 160.58 354.83 160.78 352.52 C 161.35 354.50 161.91 356.48 162.44 358.47 C 164.15 356.84 165.99 355.33 167.56 353.55 C 171.32 348.31 172.10 341.43 176.37 336.53 C 176.91 337.32 177.45 338.12 177.98 338.93 C 178.53 336.95 179.77 335.35 181.31 334.03 C 180.89 328.26 186.47 325.17 188.68 320.45 C 188.93 321.58 189.20 322.70 189.47 323.84 Z" fill="#002349" opacity="1.00" stroke="#002349" stroke-width="0.25"/>
<path d="M 315.35 333.53 C 316.45 332.77 317.56 332.02 318.66 331.26 C 319.32 332.30 319.98 333.34 320.64 334.38 C 318.93 339.63 317.41 344.95 315.07 349.97 C 308.36 350.51 301.64 350.10 294.93 349.79 C 288.89 349.45 282.84 350.04 276.82 349.37 C 282.56 348.71 288.63 349.42 294.05 347.07 C 302.11 343.94 309.17 338.53 314.72 331.93 C 314.88 332.33 315.19 333.13 315.35 333.53 Z" fill="#bb373b" opacity="1.00" stroke="#bb373b" stroke-width="0.25"/>
<path d="M 140.34 338.41 C 143.53 342.97 140.85 349.00 143.81 353.69 C 144.45 353.03 145.10 352.38 145.75 351.74 C 149.18 351.93 152.49 351.03 155.46 349.33 C 158.55 351.83 159.20 355.82 160.11 359.44 C 160.57 367.65 159.04 375.80 158.98 384.01 C 158.97 390.91 157.85 397.74 157.49 404.62 C 151.86 404.74 146.18 404.13 140.61 405.23 C 140.59 382.95 140.40 360.68 140.34 338.41 Z" fill="#004266" opacity="1.00" stroke="#004266" stroke-width="0.25"/>
<path d="M 186.31 368.66 C 186.99 359.26 188.10 349.90 189.23 340.55 C 195.12 343.89 200.65 348.01 207.13 350.18 C 203.36 353.34 198.88 355.98 196.34 360.32 C 194.59 364.42 193.70 369.56 196.21 373.54 C 195.39 373.23 194.58 372.91 193.77 372.60 C 193.06 373.24 192.35 373.87 191.64 374.52 C 191.22 372.34 189.93 370.54 188.45 368.95 C 188.10 370.60 187.77 372.26 187.44 373.92 C 187.05 372.17 186.65 370.42 186.31 368.66 Z" fill="#a48f8a" opacity="1.00" stroke="#a48f8a" stroke-width="0.25"/>
<path d="M 264.36 349.52 C 268.51 349.36 272.66 349.29 276.82 349.37 C 282.84 350.04 288.89 349.45 294.93 349.79 C 301.64 350.10 308.36 350.51 315.07 349.97 C 318.73 349.98 322.40 350.18 326.07 350.37 C 331.41 350.78 337.58 351.18 341.43 355.43 C 343.31 358.57 345.20 362.30 344.36 366.08 C 342.41 368.61 340.36 371.45 337.13 372.38 C 332.57 373.83 327.71 373.31 323.00 373.40 C 305.98 373.25 288.97 373.19 271.95 373.17 C 269.93 373.26 267.83 373.07 265.90 373.77 C 264.52 375.59 262.64 378.48 264.44 380.58 C 259.75 379.98 255.03 380.83 250.33 380.63 C 245.18 374.50 244.19 365.18 248.27 358.26 C 250.57 354.30 254.74 352.10 258.48 349.73 C 260.44 349.73 262.40 349.61 264.36 349.52 Z" fill="#f84d3c" opacity="1.00" stroke="#f84d3c" stroke-width="0.25"/>
<path d="M 207.13 350.18 C 215.14 350.53 223.16 349.98 231.17 349.70 C 226.27 353.58 220.14 357.40 218.93 364.04 C 217.66 369.46 219.38 374.98 222.34 379.53 C 217.43 379.58 212.51 379.71 207.61 379.22 C 204.24 378.87 200.85 378.58 197.47 378.35 C 198.00 376.58 197.08 375.01 196.21 373.54 C 193.70 369.56 194.59 364.42 196.34 360.32 C 198.88 355.98 203.36 353.34 207.13 350.18 Z" fill="#f03d3d" opacity="1.00" stroke="#f03d3d" stroke-width="0.25"/>
<path d="M 231.17 349.70 C 240.27 349.25 249.38 349.45 258.48 349.73 C 254.74 352.10 250.57 354.30 248.27 358.26 C 244.19 365.18 245.18 374.50 250.33 380.63 C 236.12 380.30 221.89 380.48 207.69 379.74 L 207.61 379.22 C 212.51 379.71 217.43 379.58 222.34 379.53 C 219.38 374.98 217.66 369.46 218.93 364.04 C 220.14 357.40 226.27 353.58 231.17 349.70 Z" fill="#a12839" opacity="1.00" stroke="#a12839" stroke-width="0.25"/>
<path d="M 182.41 419.64 C 182.45 402.58 184.98 385.65 186.31 368.66 C 186.65 370.42 187.05 372.17 187.44 373.92 C 187.77 372.26 188.10 370.60 188.45 368.95 C 189.93 370.54 191.22 372.34 191.64 374.52 C 192.35 373.87 193.06 373.24 193.77 372.60 C 194.58 372.91 195.39 373.23 196.21 373.54 C 197.08 375.01 198.00 376.58 197.47 378.35 C 197.00 380.86 196.71 383.42 196.79 385.99 C 196.92 409.20 196.65 432.41 196.65 455.62 C 193.01 453.14 188.15 454.80 184.01 454.39 C 183.31 450.06 181.86 445.88 180.18 441.84 C 179.21 439.69 178.24 437.35 176.16 436.04 C 175.49 430.91 175.82 425.74 175.70 420.59 L 175.87 419.65 C 178.04 419.66 180.22 419.66 182.41 419.64 Z" fill="#9f8b85" opacity="1.00" stroke="#9f8b85" stroke-width="0.25"/>
<path d="M 197.47 378.35 C 200.85 378.58 204.24 378.87 207.61 379.22 L 207.69 379.74 C 207.95 404.64 207.39 429.56 207.83 454.46 C 207.50 456.97 205.72 459.55 203.02 459.75 C 200.21 459.86 198.51 457.29 196.65 455.62 C 196.65 432.41 196.92 409.20 196.79 385.99 C 196.71 383.42 197.00 380.86 197.47 378.35 Z" fill="#091444" opacity="1.00" stroke="#091444" stroke-width="0.25"/>
<path d="M 207.69 379.74 C 221.89 380.48 236.12 380.30 250.33 380.63 C 255.03 380.83 259.75 379.98 264.44 380.58 L 265.39 381.52 C 261.09 405.41 258.06 429.51 253.94 453.44 C 252.01 453.94 250.04 454.35 248.04 454.32 C 234.63 454.23 221.23 454.44 207.83 454.46 C 207.39 429.56 207.95 404.64 207.69 379.74 Z" fill="#9d8984" opacity="1.00" stroke="#9d8984" stroke-width="0.25"/>
<path d="M 270.05 421.08 C 272.09 408.92 273.57 396.65 276.63 384.69 C 278.38 384.65 280.13 384.62 281.89 384.59 C 281.93 407.80 281.66 431.00 281.91 454.21 C 276.18 454.30 270.46 454.28 264.73 454.26 C 266.56 443.21 268.20 432.12 270.05 421.08 Z" fill="#9f8b89" opacity="1.00" stroke="#9f8b89" stroke-width="0.25"/>
<path d="M 293.15 427.04 C 293.26 412.80 293.15 398.56 293.33 384.32 C 304.31 384.54 315.30 384.47 326.29 384.67 C 329.71 389.60 331.61 395.34 334.26 400.68 C 342.38 418.77 351.29 436.48 360.21 454.18 C 360.10 454.51 359.87 455.16 359.76 455.49 C 337.56 455.43 315.35 454.19 293.16 454.83 C 292.50 445.58 292.83 436.29 293.15 427.04 Z" fill="#9e8984" opacity="1.00" stroke="#9e8984" stroke-width="0.25"/>
<path d="M 143.60 406.82 C 147.44 406.72 151.30 406.54 155.13 407.09 C 154.58 412.46 154.45 417.92 155.06 423.29 C 151.29 423.53 147.53 423.19 143.82 422.62 C 143.71 417.35 143.70 412.08 143.60 406.82 Z" fill="#f7c29f" opacity="1.00" stroke="#f7c29f" stroke-width="0.25"/>
<path d="M 155.13 407.09 C 155.47 407.02 156.15 406.86 156.49 406.78 C 156.73 407.03 157.20 407.53 157.43 407.78 C 157.82 411.64 157.58 415.53 157.74 419.41 C 159.57 419.22 161.40 419.04 163.23 418.84 C 163.33 419.07 163.53 419.52 163.63 419.74 C 161.72 419.97 159.82 419.65 157.93 419.45 C 158.23 421.44 158.60 423.45 158.76 425.47 C 158.33 425.75 157.46 426.31 157.03 426.59 C 155.29 426.37 153.55 426.13 151.84 425.75 C 151.71 425.46 151.44 424.87 151.30 424.58 C 152.85 425.63 158.34 427.04 156.93 423.64 C 156.46 423.55 155.52 423.38 155.06 423.29 C 154.45 417.92 154.58 412.46 155.13 407.09 Z" fill="#d45c4b" opacity="1.00" stroke="#d45c4b" stroke-width="0.25"/>
<path d="M 157.93 419.45 C 159.82 419.65 161.72 419.97 163.63 419.74 C 167.70 419.32 171.79 419.59 175.87 419.65 L 175.70 420.59 C 175.02 423.54 174.60 426.55 174.42 429.57 C 169.73 430.16 164.99 430.18 160.29 429.72 C 159.38 428.49 158.40 427.29 157.03 426.59 C 157.46 426.31 158.33 425.75 158.76 425.47 C 158.60 423.45 158.23 421.44 157.93 419.45 Z" fill="#f08777" opacity="1.00" stroke="#f08777" stroke-width="0.25"/>
<path d="M 174.42 429.57 C 174.60 426.55 175.02 423.54 175.70 420.59 C 175.82 425.74 175.49 430.91 176.16 436.04 C 172.03 436.43 167.68 435.97 163.78 437.65 C 160.83 435.99 159.74 432.98 160.29 429.72 C 164.99 430.18 169.73 430.16 174.42 429.57 Z" fill="#e67362" opacity="1.00" stroke="#e67362" stroke-width="0.25"/>
<path d="M 143.82 422.62 C 147.53 423.19 151.29 423.53 155.06 423.29 C 155.52 423.38 156.46 423.55 156.93 423.64 C 158.34 427.04 152.85 425.63 151.30 424.58 C 151.44 424.87 151.71 425.46 151.84 425.75 C 151.33 425.61 150.30 425.32 149.79 425.17 C 149.65 425.40 149.39 425.84 149.25 426.07 C 147.45 424.90 145.69 423.67 143.82 422.62 Z" fill="#4c3735" opacity="1.00" stroke="#4c3735" stroke-width="0.25"/>
<path d="M 149.79 425.17 C 150.30 425.32 151.33 425.61 151.84 425.75 C 153.55 426.13 155.29 426.37 157.03 426.59 C 158.40 427.29 159.38 428.49 160.29 429.72 C 159.74 432.98 160.83 435.99 163.78 437.65 C 160.69 439.74 157.52 441.72 154.24 443.51 C 151.78 441.81 149.38 440.01 147.16 438.00 C 147.63 435.85 145.17 434.91 143.81 436.44 C 140.05 438.20 137.47 442.18 133.13 442.64 C 131.27 443.01 129.66 444.09 128.07 445.07 C 122.30 448.69 116.45 452.18 110.44 455.37 C 109.10 456.07 107.52 455.74 106.11 456.16 C 105.04 457.08 105.16 458.73 104.67 459.97 C 104.57 459.68 104.38 459.09 104.28 458.80 C 104.34 455.32 103.36 450.91 106.30 448.33 C 109.99 445.61 114.66 444.77 118.61 442.52 C 127.07 437.85 135.48 433.02 144.47 429.43 C 146.29 428.68 148.21 427.86 149.25 426.07 C 149.39 425.84 149.65 425.40 149.79 425.17 Z" fill="#ea3b39" opacity="1.00" stroke="#ea3b39" stroke-width="0.25"/>
<path d="M 508.81 436.87 C 508.81 432.78 509.33 428.58 512.00 425.30 L 512.00 512.00 L 67.51 512.00 C 67.47 511.53 67.39 510.59 67.36 510.12 C 65.95 508.78 64.52 507.47 63.11 506.15 C 64.45 504.93 65.80 503.72 67.16 502.52 C 64.92 498.25 60.98 495.02 59.49 490.36 C 58.35 488.16 57.04 485.96 57.08 483.38 C 57.03 480.99 55.83 477.89 58.35 476.34 C 62.37 472.46 68.35 473.83 73.18 472.15 C 78.84 468.45 85.93 468.58 92.40 469.21 C 92.47 470.28 92.54 471.35 92.62 472.43 C 96.37 473.72 99.98 475.64 103.96 476.10 C 108.51 476.60 110.73 471.72 114.25 469.73 C 118.26 466.51 123.59 466.92 128.41 466.49 C 154.15 466.32 179.82 469.04 205.56 468.28 C 233.37 469.60 261.21 469.25 289.04 469.21 C 311.68 468.60 334.35 468.91 356.98 467.75 C 368.65 467.05 380.33 467.39 392.00 466.85 C 411.71 466.55 431.39 465.34 451.07 464.24 C 452.99 464.08 456.29 463.89 455.92 461.16 C 452.29 458.92 447.81 459.30 443.74 458.98 C 445.16 458.47 446.56 457.90 447.97 457.34 C 444.32 456.38 440.58 455.78 436.98 454.65 C 438.72 454.21 440.48 453.79 442.25 453.38 C 441.89 451.66 440.92 449.75 442.11 448.15 C 443.73 444.51 448.15 444.88 451.46 444.51 C 451.50 446.14 451.54 447.78 451.60 449.41 C 452.51 449.78 453.43 450.16 454.35 450.55 C 454.09 451.26 453.83 451.98 453.58 452.71 C 457.38 451.77 461.35 451.55 465.03 450.08 C 467.16 448.96 469.02 450.99 470.61 452.16 C 471.24 451.55 471.85 450.91 472.48 450.30 C 472.60 451.05 472.73 451.80 472.85 452.56 C 474.35 453.31 475.86 454.07 477.37 454.82 C 477.92 453.20 478.43 451.57 478.97 449.96 C 479.45 450.32 479.94 450.69 480.43 451.07 C 480.20 452.13 479.99 453.20 479.78 454.28 C 481.35 456.67 482.79 459.15 484.04 461.72 C 484.40 461.75 485.12 461.81 485.48 461.85 C 485.80 460.62 486.12 459.41 486.45 458.20 C 487.37 459.47 488.28 460.75 489.21 462.02 C 489.86 461.98 491.17 461.90 491.82 461.85 C 491.89 458.03 491.98 454.20 492.26 450.39 C 495.37 449.03 498.95 447.91 500.72 444.75 C 503.67 441.02 503.86 436.17 505.00 431.76 C 506.96 432.88 508.03 434.81 508.81 436.87 Z" fill="#9f8b86" opacity="1.00" stroke="#9f8b86" stroke-width="0.25"/>
<path d="M 143.81 436.44 C 145.17 434.91 147.63 435.85 147.16 438.00 C 145.80 437.95 144.69 437.43 143.81 436.44 Z" fill="#b75f79" opacity="1.00" stroke="#b75f79" stroke-width="0.25"/>
<path d="M 163.78 437.65 C 167.68 435.97 172.03 436.43 176.16 436.04 C 178.24 437.35 179.21 439.69 180.18 441.84 C 181.86 445.88 183.31 450.06 184.01 454.39 C 183.24 457.06 181.22 459.02 179.03 460.61 C 175.50 461.51 172.28 459.76 169.87 457.31 C 167.24 459.28 164.63 461.94 161.07 461.75 C 147.62 462.41 134.14 462.33 120.67 462.10 C 120.65 461.28 120.61 459.64 120.59 458.82 C 131.73 453.57 143.26 449.12 154.24 443.51 C 157.52 441.72 160.69 439.74 163.78 437.65 Z" fill="#030a41" opacity="1.00" stroke="#030a41" stroke-width="0.25"/>
<path d="M 133.13 442.64 C 137.47 442.18 140.05 438.20 143.81 436.44 C 144.69 437.43 145.80 437.95 147.16 438.00 C 149.38 440.01 151.78 441.81 154.24 443.51 C 143.26 449.12 131.73 453.57 120.59 458.82 C 120.46 459.45 120.19 460.71 120.06 461.34 C 114.95 460.91 109.44 462.25 104.67 459.97 C 105.16 458.73 105.04 457.08 106.11 456.16 C 107.52 455.74 109.10 456.07 110.44 455.37 C 116.45 452.18 122.30 448.69 128.07 445.07 C 129.66 444.09 131.27 443.01 133.13 442.64 Z" fill="#dd3235" opacity="1.00" stroke="#dd3235" stroke-width="0.25"/>
<path d="M 248.04 454.32 C 250.04 454.35 252.01 453.94 253.94 453.44 C 253.36 457.04 256.82 461.12 260.58 460.52 C 263.26 459.69 264.00 456.62 264.73 454.26 C 270.46 454.28 276.18 454.30 281.91 454.21 C 283.90 456.09 286.05 458.36 289.05 458.25 C 290.92 457.85 291.97 456.14 293.16 454.83 C 315.35 454.19 337.56 455.43 359.76 455.49 C 359.87 455.16 360.10 454.51 360.21 454.18 C 361.85 457.01 363.50 460.53 367.00 461.33 C 369.75 461.47 371.27 458.72 372.82 456.89 C 396.46 457.38 420.11 458.00 443.74 458.98 C 447.81 459.30 452.29 458.92 455.92 461.16 C 456.29 463.89 452.99 464.08 451.07 464.24 C 431.39 465.34 411.71 466.55 392.00 466.85 C 380.33 467.39 368.65 467.05 356.98 467.75 C 334.35 468.91 311.68 468.60 289.04 469.21 C 261.21 469.25 233.37 469.60 205.56 468.28 C 202.68 465.58 198.49 464.29 194.68 465.66 C 190.20 467.33 185.43 466.49 180.88 465.67 C 180.27 463.98 179.67 462.29 179.03 460.61 C 181.22 459.02 183.24 457.06 184.01 454.39 C 188.15 454.80 193.01 453.14 196.65 455.62 C 198.51 457.29 200.21 459.86 203.02 459.75 C 205.72 459.55 207.50 456.97 207.83 454.46 C 221.23 454.44 234.63 454.23 248.04 454.32 Z" fill="#7f6d75" opacity="1.00" stroke="#7f6d75" stroke-width="0.25"/>
<path d="M 161.07 461.75 C 164.63 461.94 167.24 459.28 169.87 457.31 C 172.28 459.76 175.50 461.51 179.03 460.61 C 179.67 462.29 180.27 463.98 180.88 465.67 C 185.43 466.49 190.20 467.33 194.68 465.66 C 198.49 464.29 202.68 465.58 205.56 468.28 C 179.82 469.04 154.15 466.32 128.41 466.49 C 115.38 464.74 102.15 465.35 89.03 464.58 C 82.71 464.20 76.30 464.28 70.13 462.70 C 70.12 462.12 70.11 460.96 70.10 460.38 C 81.38 458.52 92.88 458.52 104.28 458.80 C 104.38 459.09 104.57 459.68 104.67 459.97 C 109.44 462.25 114.95 460.91 120.06 461.34 C 120.19 460.71 120.46 459.45 120.59 458.82 C 120.61 459.64 120.65 461.28 120.67 462.10 C 134.14 462.33 147.62 462.41 161.07 461.75 Z" fill="#81737b" opacity="1.00" stroke="#81737b" stroke-width="0.25"/>
</svg>