<?xml version="1.0" encoding="UTF-8"?> <svg xmlns="http://www.w3.org/2000/svg" width="129" height="156" viewBox="0 0 129 156" fill="none"><g filter="url(#filter0_d_81_21)"><path d="M63.6624 97C90.172 97 111.662 75.5097 111.662 49C111.662 22.4903 90.172 1 63.6624 1C37.1527 1 15.6624 22.4903 15.6624 49C15.6624 75.5097 37.1527 97 63.6624 97Z" fill="white"></path></g><mask id="mask0_81_21" style="mask-type:luminance" maskUnits="userSpaceOnUse" x="16" y="0" width="95" height="94"><path d="M110.662 0H16.6624V94H110.662V0Z" fill="white"></path></mask><g mask="url(#mask0_81_21)"><path d="M63.6624 94C89.6194 94 110.662 72.9574 110.662 47C110.662 21.0426 89.6194 0 63.6624 0C37.7054 0 16.6624 21.0426 16.6624 47C16.6624 72.9574 37.7054 94 63.6624 94Z" fill="#1DBF73"></path><path d="M75.1273 34.9822C77.8723 34.9822 80.0983 32.7562 80.0983 30.0104C80.0983 27.2645 77.8723 25.0386 75.1273 25.0386C72.3813 25.0386 70.1553 27.2645 70.1553 30.0104C70.1553 32.7562 72.3813 34.9822 75.1273 34.9822Z" fill="white"></path><path d="M80.3204 38.2424H57.5614V36.751C57.5614 33.822 60.4914 33.7665 61.9824 33.7665C63.6934 33.7665 64.4694 33.933 64.4694 33.933V25.8656C63.2594 25.7149 62.0414 25.6413 60.8224 25.6454C56.0704 25.6454 47.2854 26.9703 47.2854 37.0267V38.3053H43.1404V45.764H47.2854V61.5102H43.4184V68.9688H62.0894V61.5028H57.5584V45.7566H69.9834V61.5028H66.1214V68.9614H84.1894V61.5028H80.3204V38.2424Z" fill="white"></path></g><path d="M12.027 106.773L9.19275 112.52L2.85165 113.444C1.71445 113.609 1.25875 115.011 2.08335 115.814L6.67105 120.284L5.58595 126.6C5.39065 127.741 6.59295 128.596 7.59985 128.062L13.2726 125.08L18.9453 128.062C19.9523 128.592 21.1545 127.741 20.9592 126.6L19.8741 120.284L24.4618 115.814C25.2865 115.011 24.8308 113.609 23.6937 113.444L17.3525 112.52L14.5183 106.773C14.0105 105.749 12.5392 105.736 12.027 106.773Z" fill="#FDA720"></path><path d="M37.0273 106.773L34.1923 112.52L27.8513 113.444C26.7143 113.609 26.2583 115.011 27.0833 115.814L31.6713 120.284L30.5863 126.6C30.3903 127.741 31.5933 128.596 32.6003 128.062L38.2723 125.08L43.9453 128.062C44.9523 128.592 46.1543 127.741 45.9593 126.6L44.8743 120.284L49.4613 115.814C50.2863 115.011 49.8303 113.609 48.6933 113.444L42.3523 112.52L39.5183 106.773C39.0103 105.749 37.5393 105.736 37.0273 106.773Z" fill="#FDA720"></path><path d="M62.0273 106.773L59.1923 112.52L52.8513 113.444C51.7143 113.609 51.2583 115.011 52.0833 115.814L56.6713 120.284L55.5863 126.6C55.3903 127.741 56.5933 128.596 57.6003 128.062L63.2723 125.08L68.9453 128.062C69.9523 128.592 71.1543 127.741 70.9593 126.6L69.8743 120.284L74.4613 115.814C75.2863 115.011 74.8303 113.609 73.6933 113.444L67.3523 112.52L64.5183 106.773C64.0103 105.749 62.5393 105.736 62.0273 106.773Z" fill="#FDA720"></path><path d="M87.0273 106.773L84.1923 112.52L77.8513 113.444C76.7143 113.609 76.2583 115.011 77.0833 115.814L81.6713 120.284L80.5863 126.6C80.3903 127.741 81.5933 128.596 82.6003 128.062L88.2723 125.08L93.9453 128.062C94.9523 128.592 96.1543 127.741 95.9593 126.6L94.8743 120.284L99.4613 115.814C100.286 115.011 99.8303 113.609 98.6933 113.444L92.3523 112.52L89.5183 106.773C89.0103 105.749 87.5393 105.736 87.0273 106.773Z" fill="#FDA720"></path><path d="M112.027 106.773L109.192 112.52L102.851 113.444C101.714 113.609 101.258 115.011 102.083 115.814L106.671 120.284L105.586 126.6C105.39 127.741 106.593 128.596 107.6 128.062L113.272 125.08L118.945 128.062C119.952 128.592 121.154 127.741 120.959 126.6L119.874 120.284L124.461 115.814C125.286 115.011 124.83 113.609 123.693 113.444L117.352 112.52L114.518 106.773C114.01 105.749 112.539 105.736 112.027 106.773Z" fill="#FDA720"></path><path d="M3.42 152.36H7.9V155H0V140.96H3.42V152.36ZM20.0512 149.24C20.0512 149.56 20.0312 149.893 19.9912 150.24H12.2512C12.3045 150.933 12.5245 151.467 12.9112 151.84C13.3112 152.2 13.7979 152.38 14.3712 152.38C15.2245 152.38 15.8179 152.02 16.1512 151.3H19.7912C19.6045 152.033 19.2645 152.693 18.7712 153.28C18.2912 153.867 17.6845 154.327 16.9512 154.66C16.2179 154.993 15.3979 155.16 14.4912 155.16C13.3979 155.16 12.4245 154.927 11.5712 154.46C10.7179 153.993 10.0512 153.327 9.5712 152.46C9.0912 151.593 8.8512 150.58 8.8512 149.42C8.8512 148.26 9.0845 147.247 9.5512 146.38C10.0312 145.513 10.6979 144.847 11.5512 144.38C12.4045 143.913 13.3845 143.68 14.4912 143.68C15.5712 143.68 16.5312 143.907 17.3712 144.36C18.2112 144.813 18.8645 145.46 19.3312 146.3C19.8112 147.14 20.0512 148.12 20.0512 149.24ZM16.5512 148.34C16.5512 147.753 16.3512 147.287 15.9512 146.94C15.5512 146.593 15.0512 146.42 14.4512 146.42C13.8779 146.42 13.3912 146.587 12.9912 146.92C12.6045 147.253 12.3645 147.727 12.2712 148.34H16.5512ZM26.8753 151.8L29.2953 143.84H32.9353L28.9753 155H24.7554L20.7954 143.84H24.4554L26.8753 151.8ZM44.8953 149.24C44.8953 149.56 44.8753 149.893 44.8353 150.24H37.0953C37.1483 150.933 37.3683 151.467 37.7553 151.84C38.1553 152.2 38.6413 152.38 39.2153 152.38C40.0683 152.38 40.6613 152.02 40.9953 151.3H44.6353C44.4483 152.033 44.1083 152.693 43.6153 153.28C43.1353 153.867 42.5283 154.327 41.7953 154.66C41.0613 154.993 40.2413 155.16 39.3353 155.16C38.2413 155.16 37.2683 154.927 36.4153 154.46C35.5613 153.993 34.8953 153.327 34.4153 152.46C33.9353 151.593 33.6953 150.58 33.6953 149.42C33.6953 148.26 33.9283 147.247 34.3953 146.38C34.8753 145.513 35.5413 144.847 36.3953 144.38C37.2483 143.913 38.2283 143.68 39.3353 143.68C40.4153 143.68 41.3753 143.907 42.2153 144.36C43.0553 144.813 43.7083 145.46 44.1753 146.3C44.6553 147.14 44.8953 148.12 44.8953 149.24ZM41.3953 148.34C41.3953 147.753 41.1953 147.287 40.7953 146.94C40.3953 146.593 39.8953 146.42 39.2953 146.42C38.7213 146.42 38.2353 146.587 37.8353 146.92C37.4483 147.253 37.2083 147.727 37.1153 148.34H41.3953ZM50.1193 140.2V155H46.6993V140.2H50.1193ZM56.3763 152.26C56.8293 151.9 57.0363 151.733 56.9963 151.76C58.3023 150.68 59.3293 149.793 60.0763 149.1C60.8363 148.407 61.4763 147.68 61.9963 146.92C62.5163 146.16 62.7763 145.42 62.7763 144.7C62.7763 144.153 62.6493 143.727 62.3963 143.42C62.1423 143.113 61.7623 142.96 61.2563 142.96C60.7493 142.96 60.3493 143.153 60.0563 143.54C59.7763 143.913 59.6363 144.447 59.6363 145.14H56.3363C56.3623 144.007 56.6023 143.06 57.0563 142.3C57.5223 141.54 58.1293 140.98 58.8763 140.62C59.6363 140.26 60.4763 140.08 61.3963 140.08C62.9823 140.08 64.1763 140.487 64.9763 141.3C65.7893 142.113 66.1963 143.173 66.1963 144.48C66.1963 145.907 65.7093 147.233 64.7363 148.46C63.7623 149.673 62.5223 150.86 61.0163 152.02H66.4163V154.8H56.3763V152.26Z" fill="#060A4A"></path><path d="M77.5803 155.14C76.5533 155.14 75.6333 154.973 74.8203 154.64C74.0063 154.307 73.3533 153.813 72.8603 153.16C72.3803 152.507 72.1263 151.72 72.1003 150.8H75.7403C75.7933 151.32 75.9733 151.72 76.2803 152C76.5863 152.267 76.9863 152.4 77.4803 152.4C77.9863 152.4 78.3863 152.287 78.6803 152.06C78.9733 151.82 79.1203 151.493 79.1203 151.08C79.1203 150.733 79.0003 150.447 78.7603 150.22C78.5333 149.993 78.2463 149.807 77.9003 149.66C77.5663 149.513 77.0863 149.347 76.4603 149.16C75.5533 148.88 74.8133 148.6 74.2403 148.32C73.6663 148.04 73.1733 147.627 72.7603 147.08C72.3463 146.533 72.1403 145.82 72.1403 144.94C72.1403 143.633 72.6133 142.613 73.5603 141.88C74.5063 141.133 75.7403 140.76 77.2603 140.76C78.8063 140.76 80.0533 141.133 81.0003 141.88C81.9463 142.613 82.4533 143.64 82.5203 144.96H78.8203C78.7933 144.507 78.6263 144.153 78.3203 143.9C78.0133 143.633 77.6203 143.5 77.1403 143.5C76.7263 143.5 76.3933 143.613 76.1403 143.84C75.8863 144.053 75.7603 144.367 75.7603 144.78C75.7603 145.233 75.9733 145.587 76.4003 145.84C76.8263 146.093 77.4933 146.367 78.4003 146.66C79.3063 146.967 80.0403 147.26 80.6003 147.54C81.1733 147.82 81.6663 148.227 82.0803 148.76C82.4933 149.293 82.7003 149.98 82.7003 150.82C82.7003 151.62 82.4933 152.347 82.0803 153C81.6803 153.653 81.0933 154.173 80.3203 154.56C79.5463 154.947 78.6333 155.14 77.5803 155.14ZM95.3243 149.24C95.3243 149.56 95.3043 149.893 95.2643 150.24H87.5243C87.5783 150.933 87.7983 151.467 88.1843 151.84C88.5843 152.2 89.0713 152.38 89.6443 152.38C90.4983 152.38 91.0913 152.02 91.4243 151.3H95.0643C94.8783 152.033 94.5383 152.693 94.0443 153.28C93.5643 153.867 92.9583 154.327 92.2243 154.66C91.4913 154.993 90.6713 155.16 89.7643 155.16C88.6713 155.16 87.6983 154.927 86.8443 154.46C85.9913 153.993 85.3243 153.327 84.8443 152.46C84.3643 151.593 84.1243 150.58 84.1243 149.42C84.1243 148.26 84.3583 147.247 84.8243 146.38C85.3043 145.513 85.9713 144.847 86.8243 144.38C87.6783 143.913 88.6583 143.68 89.7643 143.68C90.8443 143.68 91.8043 143.907 92.6443 144.36C93.4843 144.813 94.1383 145.46 94.6043 146.3C95.0843 147.14 95.3243 148.12 95.3243 149.24ZM91.8243 148.34C91.8243 147.753 91.6243 147.287 91.2243 146.94C90.8243 146.593 90.3243 146.42 89.7243 146.42C89.1513 146.42 88.6643 146.587 88.2643 146.92C87.8783 147.253 87.6383 147.727 87.5443 148.34H91.8243ZM100.549 140.2V155H97.1293V140.2H100.549ZM106.447 140.2V155H103.027V140.2H106.447ZM119.445 149.24C119.445 149.56 119.425 149.893 119.385 150.24H111.645C111.699 150.933 111.919 151.467 112.305 151.84C112.705 152.2 113.192 152.38 113.765 152.38C114.619 152.38 115.212 152.02 115.545 151.3H119.185C118.999 152.033 118.659 152.693 118.165 153.28C117.685 153.867 117.079 154.327 116.345 154.66C115.612 154.993 114.792 155.16 113.885 155.16C112.792 155.16 111.819 154.927 110.965 154.46C110.112 153.993 109.445 153.327 108.965 152.46C108.485 151.593 108.245 150.58 108.245 149.42C108.245 148.26 108.479 147.247 108.945 146.38C109.425 145.513 110.092 144.847 110.945 144.38C111.799 143.913 112.779 143.68 113.885 143.68C114.965 143.68 115.925 143.907 116.765 144.36C117.605 144.813 118.259 145.46 118.725 146.3C119.205 147.14 119.445 148.12 119.445 149.24ZM115.945 148.34C115.945 147.753 115.745 147.287 115.345 146.94C114.945 146.593 114.445 146.42 113.845 146.42C113.272 146.42 112.785 146.587 112.385 146.92C111.999 147.253 111.759 147.727 111.665 148.34H115.945ZM124.67 145.7C125.07 145.087 125.57 144.607 126.17 144.26C126.77 143.9 127.436 143.72 128.17 143.72V147.34H127.23C126.376 147.34 125.736 147.527 125.31 147.9C124.883 148.26 124.67 148.9 124.67 149.82V155H121.25V143.84H124.67V145.7Z" fill="#E26330"></path><defs><filter id="filter0_d_81_21" x="11.6624" y="1" width="104" height="104" filterUnits="userSpaceOnUse" color-interpolation-filters="sRGB"><feFlood flood-opacity="0" result="BackgroundImageFix"></feFlood><feColorMatrix in="SourceAlpha" type="matrix" values="0 0 0 0 0 0 0 0 0 0 0 0 0 0 0 0 0 0 127 0" result="hardAlpha"></feColorMatrix><feOffset dy="4"></feOffset><feGaussianBlur stdDeviation="2"></feGaussianBlur><feComposite in2="hardAlpha" operator="out"></feComposite><feColorMatrix type="matrix" values="0 0 0 0 0 0 0 0 0 0 0 0 0 0 0 0 0 0 0.25 0"></feColorMatrix><feBlend mode="normal" in2="BackgroundImageFix" result="effect1_dropShadow_81_21"></feBlend><feBlend mode="normal" in="SourceGraphic" in2="effect1_dropShadow_81_21" result="shape"></feBlend></filter></defs></svg> 