<?xml version="1.0" encoding="UTF-8"?> <svg xmlns="http://www.w3.org/2000/svg" xmlns:xlink="http://www.w3.org/1999/xlink" id="Layer_1" data-name="Layer 1" viewBox="0 0 490.83 298.92"><defs><style> .cls-1 { fill: #0b98d5; } .cls-1, .cls-2, .cls-3, .cls-4, .cls-5, .cls-6, .cls-7, .cls-8, .cls-9, .cls-10, .cls-11, .cls-12 { stroke-width: 0px; } .cls-2, .cls-13 { fill: #181549; } .cls-13 { font-family: EthnocentricRg-Regular, Ethnocentric; font-size: 22.76px; } .cls-14 { stroke: #fff; stroke-width: 8px; } .cls-14, .cls-15 { fill: none; stroke-miterlimit: 10; } .cls-3 { fill: #9d5d90; } .cls-4, .cls-7 { fill: #fff; } .cls-5 { fill: url(#linear-gradient); } .cls-5, .cls-10 { opacity: .57; } .cls-6 { fill: #5a575c; } .cls-7 { fill-rule: evenodd; } .cls-15 { stroke: #e2642e; stroke-width: 6px; } .cls-8 { fill: #e2642e; } .cls-9 { fill: #403f41; } .cls-10 { fill: url(#linear-gradient-2); } .cls-11 { fill: #e1623d; } .cls-12 { fill: #4d8bc9; } </style><linearGradient id="linear-gradient" x1="228.08" y1="155.61" x2="242.03" y2="155.61" gradientUnits="userSpaceOnUse"><stop offset="0" stop-color="#000"></stop><stop offset=".25" stop-color="#d9d8d8"></stop><stop offset=".32" stop-color="#c6c4c4"></stop><stop offset=".61" stop-color="#5b5859"></stop><stop offset="1" stop-color="#383535"></stop><stop offset="1" stop-color="#fff"></stop><stop offset="1" stop-color="#545152"></stop><stop offset="1" stop-color="#343030"></stop></linearGradient><linearGradient id="linear-gradient-2" x1="179.43" y1="165.96" x2="212.67" y2="165.96" xlink:href="#linear-gradient"></linearGradient></defs><g><g><rect class="cls-4" x="150.48" y="96.52" width="183.93" height="99.49"></rect><g><path class="cls-9" d="m264.69,237.11h-53.86v.21c0,.91.83,1.65,1.86,1.65h52.79l-.78-1.86Z"></path><path class="cls-6" d="m274.37,238.97c1.03,0,1.86-.74,1.86-1.65v-.21h-11.54l.78,1.86h8.9Z"></path><path class="cls-9" d="m148.28,200.58v8.19c0,3.19,2.58,5.77,5.77,5.77h70.78l-1.11,14.28h-.33s-12.55,7.42-12.55,7.42l53.47-.05-15.02-35.61h-101Z"></path><path class="cls-6" d="m249.28,200.58l15.02,35.61h11.92s-12.57-7.4-12.57-7.4h-.33s-1.11-14.25-1.11-14.25h71.11c3.19,0,5.77-2.58,5.77-5.77v-8.19h-89.82Z"></path><path class="cls-9" d="m156.22,191.72v-93.6h49.84l-3.61-8.56h-48.4c-3.19,0-5.77,2.58-5.77,5.77v104.17h100.54l-3.28-7.78h-89.32Z"></path><path class="cls-6" d="m339.1,95.33c0-3.19-2.58-5.77-5.77-5.77h-130.89l3.61,8.56h125.54v93.6h-86.06l3.28,7.78h90.28v-104.17Zm-95.41-.47c-.51,0-.93-.42-.93-.93s.42-.93.93-.93.93.42.93.93-.42.93-.93.93Z"></path></g></g><g><rect class="cls-4" x="194.21" y="62.16" width="99.68" height="61.82"></rect><path class="cls-9" d="m197.6,121.16v-55.52h28.16l-3.26-4.84h-26.89c-1.72,0-3.11,1.39-3.11,3.11v61.06h73.15l-2.56-3.81h-65.49Z"></path><path class="cls-6" d="m294.87,63.91c0-1.72-1.39-3.11-3.11-3.11h-69.25l3.26,4.84h64.01v55.52h-26.68l2.56,3.81h29.21v-61.06Zm-51.18-.15c-.31,0-.55-.25-.55-.55s.25-.55.55-.55.55.25.55.55-.25.55-.55.55Z"></path></g></g><rect class="cls-1" x="70.26" y="0" width="94" height="58.87" rx="29.44" ry="29.44"></rect><rect class="cls-11" x="0" y="107.66" width="94" height="58.87" rx="29.44" ry="29.44"></rect><rect class="cls-11" x="313.56" y="239.07" width="94" height="58.87" rx="29.44" ry="29.44"></rect><rect class="cls-12" x="396.83" y="115.15" width="94" height="58.87" rx="29.44" ry="29.44"></rect><rect class="cls-2" x="325.27" y="0" width="94" height="58.87" rx="29.44" ry="29.44"></rect><g><polyline class="cls-15" points="164.26 29.44 244.62 29.44 244.62 62.66"></polyline><line class="cls-15" x1="94" y1="137.1" x2="148.28" y2="137.1"></line><polyline class="cls-15" points="121.14 248.83 131.25 248.83 131.25 184.09 150.48 184.09"></polyline><polyline class="cls-15" points="360.56 239.07 360.56 184.09 339.1 184.09"></polyline><polyline class="cls-15" points="443.83 115.15 443.83 103.29 339.1 103.29"></polyline><polyline class="cls-15" points="325.27 29.44 309.67 29.44 309.67 89.56"></polyline></g><g><circle class="cls-1" cx="117.41" cy="29.28" r="22.72"></circle><g id="g4578"><g id="g3"><g id="g5"><path id="path9" class="cls-7" d="m127.55,40.66h-20.3l-5.79-16.69,7.26,5.31c-.03.19-.06.35-.06.54,0,1.66,1.34,2.97,2.97,2.97s2.97-1.34,2.97-2.97c0-1.28-.8-2.37-1.95-2.78l4.73-9.97,4.73,9.94c-1.18.42-2.01,1.5-2.01,2.81,0,1.66,1.34,2.97,2.97,2.97s2.97-1.34,2.97-2.97c0-.22-.03-.45-.06-.64l7.39-5.24-5.82,16.72Z"></path></g></g></g></g><g><path class="cls-4" d="m356.24,51.45h0v-17.82c0-2.05,1.66-3.74,3.74-3.74h0c2.05,0,3.74,1.66,3.74,3.74v10.38c0,4.1-3.35,7.45-7.48,7.45Z"></path><path class="cls-4" d="m368.7,51.45h0v-30.25c0-2.05,1.66-3.74,3.74-3.74h0c2.05,0,3.74,1.66,3.74,3.74v22.8c-.03,4.1-3.38,7.45-7.48,7.45Z"></path><path class="cls-4" d="m381.12,51.45h0V11.25c0-2.05,1.66-3.74,3.74-3.74h0c2.05,0,3.74,1.66,3.74,3.74v32.75c-.03,4.1-3.35,7.45-7.48,7.45Z"></path></g><g><circle class="cls-11" cx="363.28" cy="267.74" r="22.73"></circle><g><path class="cls-4" d="m351.14,253.33l-2.58,14.19c-.4,2.14-.36,4.31.13,6.41.98,4.09,3.96,9.07,12.86,7.96,0,0,11.03-2.71,8.18-13.7,0,0-.62-1.82-2.67-1.38-2.05.4-1.82,3.47-1.82,3.47,0,0-.22,3.69-1.42,4.09,0,0-2.85-4.09.4-7.56,3.25-3.47,10.41-2.05,10.01,3.69,0,0,.4,3.69-3.07,5.52,0,0-.8.8-1.25,1.82,0,0-2.22,3.07-3.47,3.69,0,0-1.02.8,1.42.8,0,0,7.07.27,10.32-6.23,1.78-3.56,1.73-7.78-.13-11.3-1.82-3.38-5.65-6.72-13.66-4.72,0,0,1.96-6.54-3.69-6.72l-1.38,5.92s-3.25.22-3.87.8c0,0,1.6-6.94-4.31-6.76Z"></path><path class="cls-11" d="m358.3,264.76s-10.41,6.32.4,11.83c0,0-4.09-4.09-.4-11.83Z"></path></g></g><g><path class="cls-4" d="m441.97,137.11s6.34-12.65,20.59-12.07c0,0,1.41,15.58-10.29,21.28l1.34,7.39c.18.98-.94,1.63-1.7,1.01l-7.25-6.02s.22,1.38-1.52,1.74c-2.94.62-5.18-2.57-3.88-5.29.14-.29.33-.62.51-.94l-5.65-5.84c-.69-.69-.14-1.85.83-1.78l7.03.51Z"></path><g><g><path id="path1037" class="cls-7" d="m429.1,160.67s1.56-2.57,3.44-5.65,3.41-5.62,3.44-5.62.04,0,.04.07c0,.14.25,1.05.33,1.27.11.29.47.83.65,1.05.62.65,1.34.98,2.32,1.09.29.04.51.07.51.07,0,.04-10.37,7.57-10.62,7.72-.07,0-.11.04-.11,0Z"></path><path id="path1029" class="cls-7" d="m437.54,165.27c.07,0-.07-.04-.33-.14-1.27-.36-2.79-1.01-4.1-1.74-.43-.25-.72-.4-1.45-.91-.04-.04-.07-.07-.07-.11s9.6-7.03,10.04-7.29c.14-.11.25-.18.29-.14.07,0,1.12,1.01,1.16,1.05,0,.04-1.2,1.34-2.65,2.9-1.45,1.59-2.65,2.9-2.65,2.94s.07.07.14.14c.25.11,2.65.65,3.19.72,3.62.43,7.14-.22,10.33-1.92.62-.33,1.78-1.05,2.32-1.49s1.34-1.09,1.67-1.45c.36-.36,1.27-1.38,1.59-1.81,2.9-3.81,4.13-8.59,3.37-13.37l-.07-.54.25-.36c.58-.8,1.2-1.85,1.7-2.9.14-.29.29-.54.29-.51.07.04.47,1.34.65,2.14.65,2.65.76,5.29.36,8.01-.11.65-.47,2.28-.65,2.9-1.09,3.52-3.01,6.6-5.73,9.13-2.75,2.57-6.27,4.35-9.97,5.11-1.78.36-3.52.47-5.36.36-.62-.04-1.63-.14-1.96-.22q-.18-.04-.14,0s-.43-.07-1.09-.22-1.23-.29-1.16-.29h0Zm-10.66-7.29c-2.39-3.12-3.77-6.67-4.17-10.51-.18-1.7-.11-3.66.14-5.22.04-.29.07-.43.04-.36-.04.07.07-.4.22-1.01s.25-1.05.25-.98.04-.07.14-.36c.54-1.88,1.52-3.95,2.75-5.76.4-.58,1.49-1.92,1.96-2.43,1.85-1.92,3.88-3.41,6.31-4.53.65-.33,1.92-.8,2.68-1.01,2.75-.83,5.51-1.09,8.37-.76.76.07,2.28.36,2.79.51l.43.11-.83.51c-1.01.65-1.88,1.3-2.72,1.99-.07.07-.14.07-.54.04-5.18-.47-10.29,1.45-13.95,5.18-.33.33-1.16,1.3-1.45,1.67-1.05,1.41-1.88,2.97-2.54,4.75-.22.65-.65,2.36-.76,3.04-.36,2.68-.22,5.18.54,7.61.18.58.58,1.74.65,1.78h.07s1.23-1.3,2.72-2.9c1.45-1.59,2.68-2.86,2.68-2.86.04,0,1.2,1.05,1.2,1.09,0,0-.43.69-.91,1.52-.51.83-1.99,3.26-3.3,5.4s-2.39,3.91-2.39,3.95c-.07-.04-.22-.22-.4-.43h0Z"></path></g><circle class="cls-12" cx="453.24" cy="135.08" r="2.86"></circle></g></g><g><path class="cls-1" d="m243.09,116.45c-12.93,0-23.48-10.54-23.48-23.48s10.54-23.48,23.48-23.48,23.48,10.54,23.48,23.48-10.54,23.48-23.48,23.48Z"></path><path class="cls-4" d="m252.77,84.59c-1.02-2.5-3.87-1.82-3.75.49.11,2.09,1.97,2.92,2.09,4.7.08,1.14-.27,2.39-.46,3l-1.37,3.94-3.3-10.2c-.04-.08,0-.11.04-.15l.04-.04h.64v-1.18h-5.16v1.18h.8s.04,0,.04.08l.68,2.05-3,8.31-3.19-10.28c0-.08,0-.11.04-.15h.87v-1.18h-5.61v1.18h.99s.04,0,.04.08l5.01,16.12c.08.23.27.38.49.38s.42-.15.49-.34l4.44-12.33,3.98,12.29c.08.23.27.38.49.38s.42-.15.49-.34l4.36-12.67c-.08.04.83-2.81-.19-5.31Z"></path></g><g><circle class="cls-14" cx="46.92" cy="125.44" r="5.27"></circle><g><circle class="cls-14" cx="34.63" cy="146.45" r="5.27"></circle><circle class="cls-14" cx="59.19" cy="146.45" r="5.27"></circle></g><line class="cls-14" x1="43.54" y1="130.67" x2="36.65" y2="142.22"></line><line class="cls-14" x1="50.66" y1="129.7" x2="57.56" y2="143.2"></line></g><g><rect class="cls-8" x="83.92" y="240.05" width="94" height="58.87" rx="29.44" ry="29.44"></rect><g><g><path class="cls-3" d="m158.39,286.41h-49.9c-3.45,0-6.25-2.8-6.25-6.25v-19.32c0-3.45,2.8-6.25,6.25-6.25h49.9c3.45,0,6.25,2.8,6.25,6.25v19.35c-.03,3.45-2.83,6.21-6.25,6.21Z"></path><polygon class="cls-3" points="132.89 286.41 143.17 292.53 140.6 286.41 132.89 286.41"></polygon></g><g><path class="cls-4" d="m105.21,260.88s2.08-4.16,4.46-.29l2.37,13.37,6.25-11.29s2.37-1.79,3.25,1.2l2.37,8.62s1.2-12.17,3.87-14.25,4.75,1.5,3.25,2.96c0,0-3.58,11.87-2.96,18.12,0,0,.46,6.67-5.2.75,0,0-4.46-5.95-4.16-9.21,0,0-3.25,8-5.33,10.08-2.08,2.08-2.96,2.08-3.87-.88-.88-2.99-4.29-19.19-4.29-19.19Z"></path><g><ellipse class="cls-4" cx="154.13" cy="269.97" rx="9.79" ry="7.29" transform="translate(-147.73 344.29) rotate(-74.11)"></ellipse><ellipse class="cls-3" cx="154.2" cy="269.94" rx="5.5" ry="2.96" transform="translate(-143.04 361.01) rotate(-77.3)"></ellipse></g><g><ellipse class="cls-4" cx="138.07" cy="270.3" rx="9.79" ry="7.29" transform="translate(-159.7 329.09) rotate(-74.11)"></ellipse><ellipse class="cls-3" cx="138.16" cy="270.24" rx="5.5" ry="2.96" transform="translate(-155.85 345.59) rotate(-77.3)"></ellipse></g></g></g></g><g><rect class="cls-3" x="83.92" y="240.05" width="94" height="58.87" rx="29.44" ry="29.44"></rect><g><g><path class="cls-3" d="m158.39,286.41h-49.9c-3.45,0-6.25-2.8-6.25-6.25v-19.32c0-3.45,2.8-6.25,6.25-6.25h49.9c3.45,0,6.25,2.8,6.25,6.25v19.35c-.03,3.45-2.83,6.21-6.25,6.21Z"></path><polygon class="cls-3" points="132.89 286.41 143.17 292.53 140.6 286.41 132.89 286.41"></polygon></g><g><path class="cls-4" d="m105.21,260.88s2.08-4.16,4.46-.29l2.37,13.37,6.25-11.29s2.37-1.79,3.25,1.2l2.37,8.62s1.2-12.17,3.87-14.25,4.75,1.5,3.25,2.96c0,0-3.58,11.87-2.96,18.12,0,0,.46,6.67-5.2.75,0,0-4.46-5.95-4.16-9.21,0,0-3.25,8-5.33,10.08-2.08,2.08-2.96,2.08-3.87-.88-.88-2.99-4.29-19.19-4.29-19.19Z"></path><g><ellipse class="cls-4" cx="154.13" cy="269.97" rx="9.79" ry="7.29" transform="translate(-147.73 344.29) rotate(-74.11)"></ellipse><ellipse class="cls-3" cx="154.2" cy="269.94" rx="5.5" ry="2.96" transform="translate(-143.04 361.01) rotate(-77.3)"></ellipse></g><g><ellipse class="cls-4" cx="138.07" cy="270.3" rx="9.79" ry="7.29" transform="translate(-159.7 329.09) rotate(-74.11)"></ellipse><ellipse class="cls-3" cx="138.16" cy="270.24" rx="5.5" ry="2.96" transform="translate(-155.85 345.59) rotate(-77.3)"></ellipse></g></g></g></g><g><text class="cls-13" transform="translate(241.87 163.3)"><tspan x="0" y="0">rice</tspan></text><path class="cls-2" d="m227.98,153.02c0-.43.01-.87.01-1.3,0-1.32-.03-2.65-.12-3.97-1.02.02-1.75.29-2.5,1.7l-2.05,3.82c-1.05,1.98-1.64,3.14-2.14,4.21-.23-1.23-.55-2.48-1.02-4.19l-1.43-5.3h-4.71l3.87,13.38c.41,1.41,1.46,2.09,2.64,2.09s2.05-.64,2.59-1.62l2.44-4.32c1.32-2.34,1.93-3.46,2.41-4.55,0,.01.01.02.02.04Z"></path><path class="cls-5" d="m237.43,148l-1.43,5.3c-.46,1.68-.8,2.98-1.05,4.19-.48-1.02-1-2.09-2.14-4.19l-2.03-3.85c-.79-1.49-1.58-1.7-2.7-1.71.04.51.06,1.02.08,1.53.05,1.39.05,2.78.02,4.17.48.97,1.1,2.09,2.23,4.11l2.44,4.3c.57,1,1.39,1.62,2.59,1.62s2.23-.68,2.64-2.09l3.94-13.38h-4.6Z"></path><path class="cls-10" d="m203.78,158.62v4.93c1.08.18,1.58.7,1.58,1.68,0,1.28-.8,1.79-2.59,1.79h-18.48l-4.86,6.28h22.75c7.45,0,10.48-2.99,10.48-8,0-4.39-3.12-6.61-8.89-6.68Z"></path><path class="cls-8" d="m187.8,153.89v-5.02c-.75-.24-1.11-.72-1.11-1.54,0-1.24.84-1.68,2.59-1.68h16.95l4.86-6.35h-21.22c-7.41,0-10.48,2.99-10.48,7.6,0,4.03,2.66,6.78,8.42,7Z"></path><path class="cls-2" d="m203.5,149.05h-13.29c-.35,0-.66-.02-.93-.06v4.91c.07,0,.13,0,.2,0h13.29c1.79,0,2.59.51,2.59,1.75s-.8,1.79-2.59,1.79h-18.48l-4.86,6.28h22.75c7.45,0,10.48-2.99,10.48-8,0-4.46-3.21-6.68-9.17-6.68Z"></path></g></svg> 